<?xml version="1.0" encoding="utf-8"?>
<!-- Generator: Adobe Illustrator 16.0.0, SVG Export Plug-In . SVG Version: 6.00 Build 0)  -->
<!DOCTYPE svg PUBLIC "-//W3C//DTD SVG 1.1//EN" "http://www.w3.org/Graphics/SVG/1.1/DTD/svg11.dtd">
<svg version="1.1" id="Layer_1" xmlns="http://www.w3.org/2000/svg" xmlns:xlink="http://www.w3.org/1999/xlink" x="0px" y="0px"
	 width="300px" height="300px" viewBox="0 0 300 300" enable-background="new 0 0 300 300" xml:space="preserve">
<g>
	<path fill="#B18F6A" d="M-205.67-188.383c5.677,0,10.536,3.382,12.75,8.226c1.444-0.744,3.058-1.207,4.799-1.207
		c2.418,0,4.64,0.825,6.419,2.196c2.363-4.421,7.021-7.431,12.384-7.431c5.677,0,10.536,3.383,12.75,8.227
		c1.442-0.745,3.058-1.207,4.799-1.207c2.471,0,4.74,0.858,6.537,2.286c2.198-2.396,5.163-3.874,8.436-3.874
		c4.953,0,9.195,3.383,11.128,8.227c1.256-0.741,2.658-1.201,4.171-1.205v-22.588v-12.16h-9.729v12.16h-77.829v-12.16h-9.729v12.16
		v17.412C-216.774-184.614-211.668-188.383-205.67-188.383z"/>
	<polygon fill="#B18F6A" points="-114.729,-173.75 -114.729,-161.588 -225.271,-161.588 -225.271,-173.75 -235,-173.75 
		-235,-161.588 -235,-137.267 -235,-125.106 -225.271,-125.106 -225.271,-137.267 -114.729,-137.267 -114.729,-125.106 
		-105,-125.106 -105,-173.75 	"/>
</g>
<g>
	<g>
		<defs>
			<rect id="SVGID_1_" x="400" y="399" width="140" height="140"/>
		</defs>
		<clipPath id="SVGID_2_">
			<use xlink:href="#SVGID_1_"  overflow="visible"/>
		</clipPath>
		<g clip-path="url(#SVGID_2_)">
			<path fill="#DD4231" d="M480.403,449.433c-3.76,0-6.808,3.048-6.808,6.808c0,3.759,3.048,6.806,6.808,6.806
				c3.759,0,6.806-3.047,6.806-6.806C487.209,452.479,484.162,449.433,480.403,449.433z M480.403,461.344
				c-2.818,0-5.104-2.285-5.104-5.104c0-2.819,2.286-5.104,5.104-5.104s5.104,2.285,5.104,5.104
				C485.508,459.059,483.223,461.344,480.403,461.344z"/>
			<circle fill="#DD4231" cx="480.456" cy="456.239" r="2.127"/>
			<path fill="#DD4231" d="M464.729,458.273l-2.033-2.034l2.033-2.034c0.937-0.937,0.937-2.454,0-3.39
				c-0.936-0.937-2.452-0.937-3.39,0l-2.033,2.033l-2.033-2.033c-0.938-0.937-2.454-0.937-3.393,0c-0.934,0.936-0.934,2.453,0,3.39
				l2.036,2.034l-2.036,2.034c-0.934,0.935-0.934,2.452,0,3.389c0.938,0.937,2.454,0.937,3.393,0l2.033-2.033l2.033,2.033
				c0.938,0.937,2.452,0.937,3.39,0C465.664,460.727,465.664,459.208,464.729,458.273z"/>
			<path fill="#DD4231" d="M455,469.17c-0.377,0-1,0.304-1,0.681v4.766c0,0.376,0.623,0.681,1,0.681s1-0.305,1-0.681v-4.766
				C456,469.474,455.377,469.17,455,469.17z"/>
			<path fill="#DD4231" d="M458,469.17c-0.375,0-1,0.304-1,0.681v4.766c0,0.376,0.625,0.681,1,0.681c0.377,0,1-0.305,1-0.681v-4.766
				C459,469.474,458.377,469.17,458,469.17z"/>
			<path fill="#DD4231" d="M460.5,469.17c-0.378,0-0.5,0.304-0.5,0.681v4.766c0,0.376,0.122,0.681,0.5,0.681
				c0.377,0,0.5-0.305,0.5-0.681v-4.766C461,469.474,460.877,469.17,460.5,469.17z"/>
			<path fill="#DD4231" d="M463.5,469.17c-0.376,0-0.5,0.304-0.5,0.681v4.766c0,0.376,0.124,0.681,0.5,0.681
				c0.377,0,0.5-0.305,0.5-0.681v-4.766C464,469.474,463.877,469.17,463.5,469.17z"/>
			<path fill="#DD4231" d="M466,469.17c-0.377,0-1,0.304-1,0.681v4.766c0,0.376,0.623,0.681,1,0.681c0.376,0,1-0.305,1-0.681v-4.766
				C467,469.474,466.376,469.17,466,469.17z"/>
			<path fill="#DD4231" d="M468.5,469.17c-0.377,0-0.5,0.304-0.5,0.681v4.766c0,0.376,0.123,0.681,0.5,0.681s0.5-0.305,0.5-0.681
				v-4.766C469,469.474,468.877,469.17,468.5,469.17z"/>
			<path fill="#DD4231" d="M471,469.17c-0.375,0-1,0.304-1,0.681v4.766c0,0.376,0.625,0.681,1,0.681c0.377,0,1-0.305,1-0.681v-4.766
				C472,469.474,471.377,469.17,471,469.17z"/>
			<path fill="#DD4231" d="M473.5,469.17c-0.377,0-0.5,0.304-0.5,0.681v4.766c0,0.376,0.123,0.681,0.5,0.681
				c0.375,0,0.5-0.305,0.5-0.681v-4.766C474,469.474,473.875,469.17,473.5,469.17z"/>
			<path fill="#DD4231" d="M476.5,469.17c-0.375,0-0.5,0.304-0.5,0.681v4.766c0,0.376,0.125,0.681,0.5,0.681
				c0.378,0,0.5-0.305,0.5-0.681v-4.766C477,469.474,476.878,469.17,476.5,469.17z"/>
			<path fill="#DD4231" d="M479,469.17c-0.377,0-1,0.304-1,0.681v4.766c0,0.376,0.623,0.681,1,0.681s1-0.305,1-0.681v-4.766
				C480,469.474,479.377,469.17,479,469.17z"/>
			<path fill="#DD4231" d="M482,469.17c-0.377,0-1,0.304-1,0.681v4.766c0,0.376,0.623,0.681,1,0.681s1-0.305,1-0.681v-4.766
				C483,469.474,482.377,469.17,482,469.17z"/>
			<path fill="#DD4231" d="M485,469.17c-0.375,0-1,0.304-1,0.681v4.766c0,0.376,0.625,0.681,1,0.681c0.377,0,1-0.305,1-0.681v-4.766
				C486,469.474,485.377,469.17,485,469.17z"/>
			<path fill="#DD4231" d="M510,455.558l-6-3.401V435.82c0-3.76-2.824-6.82-6.582-6.82H476.66l-0.682-3h5.785
				c1.128,0,2.042-1.373,2.042-2.5s-0.914-2.5-2.042-2.5h-6.466l-0.794-4h0.453c1.128,0,2.042-0.873,2.042-2s-0.914-2-2.042-2
				h-1.134l-0.229-1.861c0-3.76,0.355-10.459-3.401-10.459c-3.76,0-3.402,6.825-3.402,10.584L466.565,413h-1.136
				c-1.129,0-2.043,0.873-2.043,2s0.914,2,2.043,2h0.453l-0.794,4h-6.466c-1.128,0-2.041,1.373-2.041,2.5s0.913,2.5,2.041,2.5h5.786
				l-0.683,3h-20.758c-3.76,0-6.971,3.062-6.971,6.82v16.335l-7,3.401v13.612l7,3.403v17.694c0,3.76,3.211,6.731,6.971,6.731h54.447
				c3.758,0,6.582-2.973,6.582-6.731v-17.694l6-3.403v-13.611H510z M497,448.753v27.224v7.486c0,3.759-2.629,7.537-6.389,7.537
				h-40.836c-3.759,0-7.775-3.778-7.775-7.537v-7.486v-27.224v-6.126c0-3.759,4.018-5.627,7.775-5.627h40.836
				c3.76,0,6.389,1.868,6.389,5.627V448.753z"/>
			<circle fill="#DD4231" cx="419.319" cy="517.833" r="10.209"/>
			<path fill="#DD4231" d="M421.675,535h-4.71c-4.339,0-7.965,3.135-7.965,7.749v17.321c0,4.613,3.626,8.93,7.965,8.93h4.71
				c4.338,0,7.325-4.315,7.325-8.93v-17.321C429,538.135,426.013,535,421.675,535z"/>
			<path fill="#DD4231" d="M453.179,635.388c-7.518,0-13.611,5.612-13.611,13.612h27.226
				C466.792,641,460.697,635.388,453.179,635.388z"/>
			<path fill="#DD4231" d="M462,587.806c0-3.759-3.048-6.806-6.807-6.806h-6.388c-3.759,0-6.807,3.047-6.807,6.806v34.39
				c0,3.759,3.048,6.806,6.807,6.806h6.388c3.759,0,6.807-3.047,6.807-6.806V587.806z"/>
			<circle fill="#DD4231" cx="521.07" cy="517.833" r="10.209"/>
			<path fill="#DD4231" d="M523.426,535h-4.712c-4.337,0-8.714,3.135-8.714,7.749v17.321c0,4.613,4.377,8.93,8.714,8.93h4.712
				c4.337,0,7.574-4.315,7.574-8.93v-17.321C531,538.135,527.763,535,523.426,535z"/>
			<path fill="#DD4231" d="M487.209,635.388c-7.516,0-13.612,5.612-13.612,13.612h27.226
				C500.821,641,494.728,635.388,487.209,635.388z"/>
			<path fill="#DD4231" d="M497,587.731c0-3.76-2.984-6.731-6.742-6.731h-6.602c-3.76,0-6.656,2.973-6.656,6.731v34.302
				c0,3.759,2.896,6.967,6.656,6.967h6.602c3.758,0,6.742-3.208,6.742-6.967V587.731z"/>
			<path fill="#DD4231" d="M524.643,576h-6.806c-3.76,0-7.837,2.146-7.837,5.905v6.807c0,3.759,3,6.806,7,6.806v-9.527
				c0-1.127,1.751-1.989,2.878-1.989h2.723c1.128,0,1.399,0.862,1.399,1.989v9.527c4,0,7-3.047,7-6.806v-6.807
				C531,578.146,528.401,576,524.643,576z"/>
			<path fill="#DD4231" d="M422.552,576h-6.807c-3.758,0-6.745,2.146-6.745,5.905v6.807c0,3.759,3,6.806,6,6.806v-9.527
				c0-1.127,1.661-1.989,2.788-1.989h2.723c1.127,0,1.489,0.862,1.489,1.989v9.527c5,0,7-3.047,7-6.806v-6.807
				C429,578.146,426.312,576,422.552,576z"/>
			<path fill="#DD4231" d="M497.92,506h-27.487h-27.484c-1.809,0-3.646-0.102-4.828,1.082c-1.188,1.186-2.119,1.986-2.119,3.793
				v27.485v27.485c0,1.809,0.933,3.749,2.119,4.933c1.184,1.186,3.021,2.222,4.828,2.222h27.484h27.487
				c1.808,0,3.212-1.036,4.396-2.222c1.183-1.184,1.684-3.124,1.684-4.933V538.36v-27.485c0-1.807-0.501-2.607-1.684-3.793
				C501.132,505.898,499.728,506,497.92,506z"/>
		</g>
	</g>
</g>
<g>
	<g>
		<defs>
			<rect id="SVGID_3_" x="75" y="-242" width="150" height="150"/>
		</defs>
		<clipPath id="SVGID_4_">
			<use xlink:href="#SVGID_3_"  overflow="visible"/>
		</clipPath>
		<g clip-path="url(#SVGID_4_)">
			<g>
				<g>
					<path fill="#F7CAC9" d="M126.31-221.039l0.886-0.886C126.829-221.65,126.522-221.355,126.31-221.039z"/>
					<path fill="#F7CAC9" d="M127.402-222.131l-0.207,0.206c0.365-0.273,0.793-0.527,1.283-0.759c0.01-0.175,0.021-0.349,0.016-0.54
						L127.402-222.131z"/>
					<path fill="#F7CAC9" d="M173.359-221.925l0.888,0.886C174.032-221.355,173.727-221.65,173.359-221.925z"/>
					<path fill="#F7CAC9" d="M173.154-222.131l-1.094-1.092c-0.004,0.19,0.006,0.365,0.018,0.54
						c0.488,0.231,0.916,0.486,1.281,0.759L173.154-222.131z"/>
					<polyline fill="#F3776B" points="131.129,-180.504 139.333,-219.776 165.824,-220.268 					"/>
					<polygon fill="#91A8CF" points="131.336,-180.28 129.53,-180.277 137.625,-219.395 139.26,-219.421 					"/>
					<polyline fill="#F3776B" points="133.917,-172.557 136.843,-185.979 158.432,-202.565 					"/>
					<polygon fill="#91A8CF" points="133.978,-172.209 132.247,-171.613 134.775,-184.551 136.987,-186.162 					"/>
					<path fill="#DD4231" d="M156.373-145.831c0,13.348,10.357,12.319,14.152,12.319c3.791,0,1.466-10.264,1.466-23.611
						c0-13.347,1.526-23.315-1.466-24.724C166.966-183.519,156.373-159.179,156.373-145.831z"/>
					<path fill="#DD4231" d="M146.487-145.466c0,12.951-10.355,11.957-14.148,11.957s-3.312-10.162-1.466-22.912
						c2.138-14.817-2.327-23.991,1.466-23.991S146.487-158.416,146.487-145.466z"/>
					<path fill="#F7CAC9" stroke="#DDB5B4" stroke-width="0.7281" stroke-miterlimit="10" d="M204.246,164.848
						c-0.87-4.037-6.697-3.134-10.077-3.83c-4.071-0.841-7.88-2.89-11.258-4.934c-3.82-2.312-6.774-3.525-7.065-8.711
						c-0.021-0.461-0.152-0.954-0.254-1.435l0.026-1.737L177.889-7.32c1.269-0.159,2.555-0.297,3.877-0.406
						c0.572-11.282,0.108-22.783,0.108-34.113c0-11.585,3.194-30.695,0.158-42.392v-0.629c4.211,5.981,3.268,18.486,4.729,25.728
						c2.242,11.098,5.274,21.123,5.393,33.21c0.064,6.931,2.16,12.391,0.727,18.805c-1.268,5.667-4.975,11.545-6.807,16.386
						c-1.652,4.369-5.94,5.828-5.258,10.357c1.045,6.929,6.089,3.549,7.566-1.487c1.154-0.331,2.969-0.312,4.135-0.016
						c0.287,5.647,0.051,10.727-2.076,15.178c-1.86,3.897-6.416,9.176,1.983,8.575c11.062-0.788,11.86-21.25,11.849-29.69
						c-0.026-29.421-3.105-59.739-7.989-87.395c-1.075-6.08-1.483-13.714-4.913-19.152c-3.02-4.784-8.393-8.274-12.085-12.638
						c-1.026-1.591-2.496-2.836-3.425-4.455c-8.703-15.171-8.547-17.215-8.518-29.3l-0.089,0.036
						c0.368-6.369,1.14-12.822,2.481-16.609c2.445-6.908,5.566-13.465,7.91-19.986c1.09-3.025,1.738-7.182,1.973-11.422
						c0.229-4.24,0.043-8.565-0.532-11.931c-0.649-3.791,0.322-10.858-1.004-14.547c-1.265-3.515-4.608-3.97-4.824-7.47
						c-2.341-1.111-5.987-1.747-9.675-1.809c-5.159-0.09-10.371,0.941-12.124,3.339c-1.751-2.398-6.966-3.429-12.124-3.339
						c-3.687,0.062-7.334,0.697-9.674,1.809c-0.218,3.5-3.559,3.955-4.823,7.47c-1.328,3.688-0.354,10.756-1.004,14.547
						c-0.576,3.366-0.764,7.691-0.534,11.931c0.233,4.24,0.883,8.397,1.97,11.422c2.347,6.521,5.465,13.078,7.914,19.986
						c2.385,6.729,2.968,21.883,2.679,29.995c-1.037,3.937-3.173,8.246-7.549,15.878c-0.931,1.619-2.399,2.864-3.427,4.455
						c-3.692,4.363-9.065,7.854-12.085,12.638c-3.429,5.438-3.838,13.072-4.913,19.152c-4.884,27.655-7.961,57.974-7.991,87.395
						c-0.01,8.44,0.785,28.902,11.85,29.69c8.399,0.601,3.845-4.678,1.984-8.575c-2.124-4.451-2.363-9.53-2.073-15.178
						c1.164-0.296,2.979-0.315,4.13,0.016c1.478,5.036,6.522,8.416,7.569,1.487c0.682-4.529-3.604-5.988-5.256-10.357
						c-1.834-4.841-1.649-11.784-2.919-17.452c-1.435-6.414,0.629-13.366,0.695-20.297c0.117-12.089-0.71-19.554,1.534-30.651
						c1.461-7.241,0.518-19.746,4.729-25.728v0.629c-3.037,11.696,0.157,30.807,0.157,42.392c0,11.33-0.461,22.831,0.111,34.113
						c1.317,0.109,2.606,0.247,3.875,0.406l2.271,151.521l0.025,1.737c-0.103,0.48-0.229,0.974-0.255,1.435
						c-0.29,5.185-3.245,6.399-7.064,8.711c-3.377,2.044-7.186,4.093-11.256,4.935c-3.383,0.695-9.208-0.207-10.078,3.828
						c-1.201,5.584,4.313,4.604,7.902,5.151c2.027,0.312,3.552,1.074,5.691,1.16c2.369,0.093,4.914-0.148,7.214-0.479
						c4.79-0.688,9.677-0.726,14.635-1.226c4.321-0.437,11.199,1.116,12.13-3.858c1.094-5.836-2.304-11.258-1.7-16.767l0.051-3.054
						h0.019l-0.011-0.684l0.011-0.659c-0.005,0-0.014,0-0.019-0.002L143.618-4.634c2.203,0.274,4.477,0.479,6.86,0.583v0.074
						c0.029,0,0.058,0,0.086,0c0.517,0,1.017-0.018,1.521-0.028c0.507,0.011,1.008,0.028,1.522,0.028c0.029,0,0.062,0,0.088,0
						v-0.074c2.387-0.104,4.658-0.309,6.859-0.583l-2.232,149.063c-0.008,0.002-0.014,0.002-0.021,0.002l0.01,0.659l-0.01,0.684
						h0.021l0.05,3.054c0.604,5.509-2.792,10.931-1.702,16.766c0.934,4.977,7.811,3.424,12.132,3.859
						c4.957,0.5,9.847,0.537,14.636,1.225c2.301,0.332,4.844,0.573,7.215,0.48c2.139-0.086,3.662-0.85,5.69-1.16
						C199.932,169.45,205.448,170.432,204.246,164.848z"/>
				</g>
				<circle fill="#B18F6A" cx="148.538" cy="-183.416" r="1.184"/>
				<circle fill="#B18F6A" cx="153.544" cy="-183.416" r="1.183"/>
				<rect x="143.805" y="-172.971" fill="#FFFFFF" width="2.914" height="1.457"/>
				<rect x="147.629" y="-172.971" fill="#FFFFFF" width="2.911" height="1.457"/>
				<rect x="155.637" y="-173.027" fill="#FFFFFF" width="2.914" height="1.456"/>
				<rect x="151.814" y="-173.027" fill="#FFFFFF" width="2.912" height="1.456"/>
				<path fill="none" stroke="#F3776B" stroke-width="0.7281" stroke-miterlimit="10" d="M161.915-173.728
					c-1.175-0.164-2.084,0.561-3.134,0.729c-0.787,0.126-1.707,0-2.508,0c-1.818,0-3.642,0-5.459,0h0.728c-1.82,0-3.641,0-5.462,0
					c-0.801,0-1.718,0.126-2.507,0c-1.048-0.167-1.961-0.893-3.135-0.729"/>
			</g>
			<polygon fill="#DD4231" points="182.871,-72.262 163.574,-72.262 144.9,-71.806 126.257,-71.806 106.93,-72.262 108.606,-82.79 
				111.147,-94.378 122.159,-105.936 129.395,-115.501 142.148,-105.338 155.723,-94.515 169.296,-83.695 			"/>
			<polygon fill="#015084" points="182.398,-41.849 121.504,-41.849 120.846,-72.262 183.329,-72.262 			"/>
			<polygon fill="#7CC253" points="181.938,2.626 167.092,2.626 152.245,2.626 141.993,2.626 121.957,-7.727 121.931,-8.267 
				121.671,-19.611 121.749,-30.663 121.044,-41.849 137.398,-41.84 152.245,-41.84 167.092,-41.84 181.938,-41.84 181.938,-30.725 
				181.938,-19.606 181.938,-8.49 			"/>
			<polygon fill="#DD4231" points="181.938,-13.621 141.993,2.626 181.938,2.626 			"/>
			<rect x="155.27" y="2.626" fill="#F3776B" width="22.567" height="21.231"/>
			<rect x="155.27" y="23.714" fill="#FFFFFF" width="22.567" height="5.806"/>
			<rect x="155.27" y="29.796" fill="#015084" width="22.567" height="16.62"/>
			<rect x="155.27" y="46.457" fill="#F3776B" width="22.567" height="11.037"/>
			<rect x="155.27" y="57.347" fill="#FFFFFF" width="22.567" height="5.812"/>
			<rect x="155.27" y="62.914" fill="#F3776B" width="22.567" height="5.81"/>
			<rect x="155.27" y="68.271" fill="#7CC253" width="22.567" height="38.703"/>
			<rect x="155.27" y="106.974" fill="#015084" width="22.567" height="38.479"/>
			<polygon fill="#015084" points="116.731,-41.84 99.307,-41.932 106.93,-72.262 121.044,-72.262 			"/>
			<rect x="99.307" y="-41.932" fill="#7CC253" width="17.425" height="44.558"/>
			<line fill="none" x1="120.826" y1="-72.262" x2="117.185" y2="-69.104"/>
			<rect x="114.272" y="-72.262" fill="#DD4231" width="8.011" height="3.157"/>
			<rect x="134.662" y="-72.262" fill="#DD4231" width="8.009" height="3.157"/>
			<rect x="156.262" y="-72.262" fill="#DD4231" width="8.01" height="3.157"/>
			<rect x="146.554" y="-74.565" fill="#015084" width="5.946" height="3.152"/>
			<rect x="168.396" y="-74.688" fill="#015084" width="5.946" height="3.155"/>
			<rect x="125.072" y="-74.688" fill="#015084" width="5.947" height="3.155"/>
			<polygon fill="#015084" points="112.147,-70.683 106.93,-70.683 106.93,-73.838 112.147,-72.982 			"/>
			<polygon fill="#DD4231" points="182.871,-68.377 177.863,-69.104 177.863,-73.838 183.6,-72.262 			"/>
			<g>
				<polygon fill="#FFFFFF" points="139.472,-65.294 129.355,-74.03 118.506,-65.294 107.66,-73.838 107.846,-77.034 
					118.506,-69.034 129.355,-77.772 139.472,-69.034 150.32,-77.772 161.165,-69.034 172.018,-77.772 182.871,-68.377 
					182.871,-65.294 172.745,-74.03 161.895,-65.294 150.32,-74.03 				"/>
			</g>
			<rect x="123.344" y="-44.683" fill="#7CC253" width="7.676" height="4.007"/>
			<rect x="144.825" y="-44.683" fill="#7CC253" width="7.675" height="4.007"/>
			<rect x="166.484" y="-44.683" fill="#7CC253" width="7.678" height="4.007"/>
			<rect x="133.993" y="-43.317" fill="#015084" width="7.676" height="4.004"/>
			<rect x="155.607" y="-43.317" fill="#015084" width="7.678" height="4.004"/>
			<rect x="101.045" y="-45.319" fill="#7CC253" width="7.677" height="4.006"/>
			<polygon fill="#015084" points="116.731,-39.233 112.147,-39.768 111.283,-43.317 116.731,-43.317 			"/>
			<polygon fill="#FFFFFF" points="105.15,-48.624 102.087,-46.16 99.021,-43.69 98.8,-41.643 98.58,-39.596 101.863,-42.239 
				105.15,-44.885 110.577,-40.517 116.003,-36.146 116.003,-37.689 116.731,-39.233 110.577,-43.929 			"/>
			<polygon fill="#015084" points="182.098,-38.685 177.135,-40.04 175.682,-45.319 182.098,-45.319 			"/>
			<polygon fill="#FFFFFF" points="171.244,-48.079 160.391,-39.342 149.547,-48.079 139.426,-39.342 127.853,-48.079 
				120.883,-42.468 121.212,-38.845 128.58,-44.337 138.695,-35.601 150.274,-44.337 160.391,-35.601 171.244,-44.337 
				182.098,-35.601 182.098,-38.685 			"/>
			<polygon fill="#7CC253" points="163.688,110.319 161.143,110.319 159.475,104.415 165.145,104.415 			"/>
			<polygon fill="#7CC253" points="178.068,110.319 174.623,108.863 173.463,104.415 178.068,104.415 			"/>
			<polygon fill="#015084" points="155.32,103.037 158.271,105.815 159.812,111.049 155.281,111.049 			"/>
			<polygon fill="#015084" points="174.568,109.78 167.146,110.319 167.146,104.679 171.332,104.679 			"/>
			<g>
				<polygon fill="#FFFFFF" points="162.786,113.575 155.132,104.679 155.27,100.374 162.79,109.11 170.312,100.374 
					178.068,110.319 177.837,113.575 170.312,104.835 				"/>
			</g>
			<rect x="124.624" y="136.745" fill="#015084" width="24.369" height="5.312"/>
			
				<rect x="124.624" y="128.16" fill="#FFFFFF" stroke="#E6E7E8" stroke-width="0.5078" stroke-miterlimit="10" width="24.179" height="5.458"/>
			<polygon fill="#91A8CF" points="136.289,-183.416 131.129,-180.504 131.129,-182.88 136.843,-185.979 			"/>
			<circle fill="#FFFFFF" cx="164.557" cy="-195.039" r="6.555"/>
			<polyline fill="#F3776B" points="131.932,-180.745 140.135,-220.016 166.627,-220.509 			"/>
			<polygon fill="#91A8CF" points="132.137,-180.521 130.33,-180.516 138.427,-219.634 140.062,-219.663 			"/>
			<polyline fill="#F3776B" points="134.718,-172.798 137.643,-186.22 159.232,-202.806 			"/>
			<polygon fill="#91A8CF" points="134.778,-172.449 133.049,-171.854 135.574,-184.79 137.786,-186.401 			"/>
			<circle fill="#FFFFFF" cx="137.251" cy="-195.039" r="6.554"/>
			<circle fill="#91A8CF" cx="137.252" cy="-195.153" r="2.549"/>
			<circle fill="#7CC253" cx="164.613" cy="-195.153" r="4.005"/>
			<circle fill="#090A11" cx="164.615" cy="-195.153" r="2.548"/>
			<circle fill="#090A11" cx="137.251" cy="-195.153" r="0.728"/>
			<g>
				<path fill="#DD4231" d="M168.871-153.389c-0.053,0.207-0.089,0.385-0.105,0.516
					C168.805-153.023,168.839-153.199,168.871-153.389z"/>
				<path fill="#DD4231" d="M189.007-223.826c-2.146-4.222-9.821-6.726-13.774-10.142c-8.948-7.733-14.207-7.781-23.988-7.059
					c-9.778-0.722-15.037-0.675-23.988,7.059c-3.95,3.416-11.624,5.92-13.773,10.142c-2.26,4.446,0.032,15.138,0.577,19.814
					c0.722,6.186,4.12,11.814,5.354,18.219c1.175,6.098,4.373,12.031,6.651,17.683c0.569,1.41,2.099,6.432,3.077,7.77
					c1.007,1.374,2.362,1.524,2.768,2.293c0.436,0.831,1.7,4.185,1.815,5.173l0.671,0.373c-0.517-1.99-1.01-7.88-1.74-10.458
					c-2.596-9.187-2.294-5.477-3.282-11.945c-1.978-12.945-4.034-22.324,0.574-34.844c2.515-6.841,2.24-8.598,11.598-8.153
					c4.583,0.217,6.854,0.202,9.699,0.102c2.849,0.101,5.119,0.115,9.702-0.102c9.357-0.444,9.083,1.312,11.6,8.153
					c4.605,12.52,2.551,21.899,0.572,34.844c-0.988,6.468-0.686,2.758-3.283,11.945c-0.675,2.382-0.574,7.271-0.963,9.569
					c0.336-1.326,1.333-3.938,1.712-4.657c0.403-0.769,1.761-0.919,2.769-2.293c0.976-1.338,2.508-6.36,3.076-7.77
					c2.275-5.652,5.476-11.585,6.649-17.683c1.235-6.405,4.634-12.034,5.354-18.219C188.977-208.688,191.27-219.38,189.007-223.826z
					"/>
			</g>
		</g>
	</g>
</g>
<path fill="#DD4231" d="M-110.964,491.542c-2.85-9.573-10.914-19.827-21.9-18.912c-2.373,0.198-4.811,0.923-6.84,2.221
	c-1.041,0.659-1.779,1.567-2.594,2.477c-0.732,0.812-1.729,2.761-2.768,3.119c-2.059,0.703-5.121-3.64-6.219-4.914
	c-2.094-2.41-4.109-4.908-6.035-7.473c-3.721-4.964-6.686-10.479-9.236-16.134c-1.188-2.616-1.844-5.376-2.482-8.174
	c-0.719-3.26-1.305-6.614-0.696-9.925c0.206-1.069,0.514-2.153-0.344-3.039c-0.77-0.82-1.825-0.558-2.762-0.976
	c-2.557-1.119-3.412-3.396-5.105-5.536c-3.435-4.352-7.866-7.815-13.176-9.544c-3.794-1.237-7.997-1.779-11.982-1.759
	c-4.453,0.009-8.985,0.061-13.344,1.041c-2.104,0.469-4.219,0.996-6.285,1.642c-1.706,0.526-4.271,0.841-5.522,2.21
	c-0.885,0.975-2.71,1.635-1.113,3.165c1.428,1.385,2.98,2.396,4.542,3.609c1.486,1.157,2.93,2.271,4.583,3.188
	c1.657,0.916,3.386,1.803,4.629,3.26c0.33,0.359,1.582,0.432,2.059,0.696c1.114,0.607,2.265,1.187,3.421,1.728
	c1.984,0.933,4.108,1.555,6.072,2.521c3.187,1.545,7.64,1.545,11.161,1.611c4.696,0.08,9.12-0.995,13.705-1.604
	c0.153,1.238-0.06,2.483-0.688,3.566c-0.622,1.085-1.649,1.767-2.154,2.915c-1.172,2.638-1.794,5.529-3.508,7.91
	c-0.652,0.96-0.937,2.638-1.319,3.75c-0.483,1.393-0.929,2.799-1.311,4.22c-0.38,1.473-0.683,2.942-0.776,4.452
	c-0.087,1.442-0.571,2.74-0.717,4.146c-0.045,0.681,0.211,0.834,0.108,1.617c-0.087,0.806-0.183,1.604-0.262,2.401
	c-0.17,1.619-0.315,3.236-0.455,4.85c-0.168,1.823,0.293,5.961-2.073,6.628c-1.104,0.308-1.926-0.256-2.974-0.344
	c-1.516-0.133-3.003-0.189-4.526,0.037c-2.943,0.444-5.537,1.099-7.911,3.003c-8.583,6.928-7.404,22.594-1.391,30.798
	c3.157,4.313,8.262,7.765,13.638,8.468c5.81,0.754,11.479,1.252,16.699-1.847c4.205-2.498,7.185-6.489,8.979-10.986
	c2.042-5.112,3.464-11.366,1.816-16.779c-1.539-5.03-5.119-9.214-10.165-10.877c-2.358-0.783-4.863-0.931-7.296-0.616
	c-2.892,0.384-3.025-0.562-2.936-3.331c0.357-12.398,3.272-25.283,9.945-35.853c0.769-1.224,1.589-2.402,2.46-3.537
	c0.938-1.225,1.297-1.566,2.352-0.206c1.686,2.204,1.752,5.517,2.659,8.072c2.022,5.646,4.695,11.029,7.875,16.113
	c3.023,4.817,6.744,9.315,10.592,13.499c0.848,0.93,1.719,1.844,2.6,2.737c1.141,1.15,1.33,1.518,0.424,2.856
	c-1.055,1.538-3.004,2.337-4.336,3.604c-7.771,7.391-3.604,17.688,2.688,24.493c3.199,3.463,7.391,6.158,11.93,7.506
	c5.332,1.599,10.834,0.31,15.711-2.044c4.373-2.101,7.992-5.439,10.635-9.49C-109.683,502.844-109.31,497.094-110.964,491.542
	C-112.386,486.767-109.353,496.963-110.964,491.542z"/>
<g id="layer1" transform="translate(-407.50579,-298.09886)">
	<path id="path2384" fill="#F3776B" d="M531.587,513.461c-0.024,2.808-2.14,2.607-2.14,2.607c-2.188,0-3.563-4.374-4.104-4.239
		c-0.689,0.137,0.137,3.691-0.689,4.239c-0.68,0.683-15.196-6.021-16.28-7.11c-0.966-0.966,0.41-2.333,0-3.295
		c-0.282-0.815-2.48-0.551-3.147-0.953c-0.562-0.551,0.667-3.016-0.137-3.567c-0.695-0.398-2.189,2.473-3.15,1.098
		c-0.427-0.546-0.548-1.496-0.548-2.734c0-8.35,8.892-11.767,14.926-13.829c2.452-0.812,1.624,2.335,2.452,2.473
		c0.962,0.272,1.094-1.514,2.192-1.514c0.827,0,3.976,1.514,4.65,0.965c0.555-0.41-1.637-2.469-0.959-3.289
		c0.827-0.685,6.912-2.352,6.96-0.555 M582.404,424.5c0-2.323-1.637-4.101-3.406-4.101h-14.787c-4.103,0-3.841-3.016-3.841-3.696
		c0-18.206,26.424-21.216,26.424-45.032c0-10.399-6.563-17.385-14.229-23.544c-0.42-0.272,0,1.506,0,2.197
		c0,11.083-41.197,16.833-41.197,42.432c0,22.301,22.166,23.263,22.166,26.688c0,0.683-1.36,0.957-1.504,0.957h-16.973
		c-1.78,0-3.421,1.778-3.421,4.101v13.693c-1.65,0.552-3.691-1.921-4.796-1.921c-0.54,0-0.26,4.249-1.229,4.792
		c-0.821,0.41-16.277,5.889-17.657,6.025c-2.183,0.412-1.637-3.423-2.864-3.423c-1.103,0-1.103,3.836-3.845,3.836
		c-1.635,0-2.998-1.51-4.229-1.51c-0.823,0,1.772,3.151,1.772,4.108c0,2.598-5.062,3.546-5.062,5.339
		c0,0.948,4.792-0.417,5.478-0.417c2.458,0,2.187,2.88,3.134,2.88c0.964,0,1.646-3.29,2.471-3.83
		c1.639-0.966,3.563,0.677,4.377,0.677c1.374,0-1.098-3.283,0.147-3.837c0,0,16.693-7.11,17.778-6.572
		c0.959,0.558,0.832,2.196,1.924,2.744c1.095,0.55,2.736-3.833,2.736-1.097v33.538c-1.919,1.229-6.023,1.916-8.217,1.916
		c-1.09,0-0.544-3.557-1.226-3.557c-1.102,0-2.202,3.007-3.835,3.007c-1.504,0-3.696-3.688-5.199-3.688
		c-0.957,0,1.773,4.646,0.133,5.467c-6.294,3.153-16.282,6.156-16.282,16.159c0,2.052,1.101,4.51,0.681,5.192
		c-0.406,0.957-2.591,2.88-2.471,3.7c0,0.816,4.114,0.544,4.942,1.782c0.4,0.679,0.686,3.696,1.508,3.696
		c0.68,0,2.455-2.334,3.964-1.507c4.791,2.879,13.135,6.016,16.971,8.069c0.949,0.553,0.405,3.559,0.949,3.832
		c1.101,0.557,3.287-2.873,6.719-0.955c0.688,0.273,1.187,0.938,1.187,2.174v11.199c-0.008,2.348,1.135,2.914,2.233,3.188
		l40.786,8.35c0,0,3.012,0.548,4.238,0.548c1.514,0,3.556-0.623,3.556-3.634l-0.061-24.926c0-0.267,0.193-0.996,0.598-0.996
		c2.197-0.205,1.659,6.836,2.203,6.836c1.081,0,1.784-4.656,3.147-4.656c1.918,0,3.164,1.78,3.967,1.37
		c0.688-0.41-0.398-2.605-0.398-3.973c0-1.23,3.547-1.777,7.937-3.41c3.828-1.375,6.979-2.881,8.212-2.881
		c0.951,0,1.631,2.595,2.461,2.595c0.683,0,0.82-3.419,2.328-3.419c1.228,0,3.961,1.91,4.654,1.367
		c0.548-0.407-1.365-3.014,0.138-4.107c1.094-0.683,3.691-2.322,3.691-3.011c0-0.406-5.063-0.544-5.334-0.544
		c-0.96-0.277-2.054-3.289-2.751-3.289c-0.801,0-0.801,3.012-2.044,3.974c-1.099,0.811-3.828-2.876-5.056-2.876
		c-0.693,0,0.817,2.734,0.817,4.925c0,2.193-13.273,6.436-15.054,6.436c-2.737,0-2.884-3.42-3.433-3.42
		c-0.809,0-0.686,4.11-4.096,4.11c-1.518,0-1.93-0.827-1.93-1.655v-32.844c0-0.958,0.281-2.469,2.062-2.469
		c2.466,0,2.466,4.931,3.278,4.931c1.516,0,2.338-5.064,5.207-5.064c2.185,0,3.967,3.016,5.334,3.016
		c0.963,0-1.636-3.146-1.636-4.658c0-1.502,13.55-0.958,18.755-10.131c1.502-2.598,1.502-5.742,2.052-6.977
		c0.81-1.37,3.828-1.104,3.828-2.054c0-0.41-2.186-0.958-3.018-1.504c-1.633-0.957-1.082-5.89-1.902-5.89
		c-1.232,0-2.468,3.424-3.701,1.916c-2.189-2.735-11.223-7.939-15.326-9.444c-1.513-0.547,1.098-5.062,0.412-5.479
		c-0.685-0.409-2.473,2.744-5.078,2.196c-2.051-0.41-1.084-4.109-2.179-4.109c-0.556,0-2.611,5.205-4.112,4.794
		c-1.641-0.412-3.976-0.821-3.976-0.821V424.5H582.404z M582.404,442.434c0,0,0.282,0,1.931,0.412
		c1.092,0.269,2.183,0.82,2.183,2.326c0,0.82-0.288,2.466,0.275,2.741c0.557,0.272,0.952-0.274,1.229-0.41
		c5.062-3.695,6.292,2.871,7.39,2.871c0.962,0,0.83-4.519,2.192-4.519c1.102-0.406,11.638,4.655,11.638,7.941
		c0,0.688-1.377,0.82-1.504,1.512c-0.137,0.957,2.464,1.366,2.045,3.145c-0.141,1.103-2.597,2.461-1.918,3.143
		c0.694,0.694,3.976-0.682,4.256-0.682c0.68,0,0.812,1.094,0.812,1.504c0,6.025-14.091,10.547-17.252,9.174
		c-0.96-0.407-1.08-3.42-1.632-3.42c-0.828,0-1.245,2.734-2.88,3.148c-1.642,0.27-4.101-1.784-4.794-1.237
		c-0.681,0.547,1.644,4.383-2.871,4.383c-1.103,0-1.103-1.235-1.103-2.195v-29.836H582.404z M544.914,397.948
		c0-18.887,27.925-29.695,29.829-39.279c2.062,1.919,2.334,5.059,2.334,7.797c0,11.497-19.981,30.796-19.981,44.759
		c0,1.502,0.131,1.92,0.131,2.883c0,1.357-0.541,1.636-0.813,1.636C553.118,415.741,544.914,409.309,544.914,397.948z
		 M541.214,432.582c0-2.196,1.651-3.011,3.144-3.011h24.238c3.003,0,4.243,0.951,4.243,4.102l0.126,41.886
		c0,1.363-14.237,1.785-14.777,0.816c-0.819-1.361-0.422-3.693-1.235-3.693c-0.407,0-2.598,3.289-3.835,3.289
		c-1.222,0-3.276-2.33-4.096-2.33c-0.554,0,0.544,3.281-0.554,4.652c-0.68,0.961-7.253,1.645-7.253,0.822V432.582L541.214,432.582z
		 M573.107,535.365c0,2.881-0.963,3.562-3.418,3.016l-26.137-5.207c-1.512-0.262-2.339-1.23-2.339-2.866v-47.356
		c0-1.229,4.248-1.365,4.926-0.818c1.237,1.093,0.827,5.062,1.647,5.062c1.091,0,3.967-4.788,5.199-4.788
		c2.602,0,4.381,1.499,4.922,1.226c0.548-0.271,0.548-2.461,1.239-3.016c0.96-0.676,3.829-0.676,5.332-0.818
		c2.463-0.137,6.98-0.545,6.98-0.545c1.785,0,1.646,1.237,1.646,3.834v52.278H573.107z"/>
</g>
<g>
	<path fill="#015084" d="M471.622-209.982c-23.741,0-42.98,19.242-42.98,42.982c0,23.737,19.239,42.982,42.98,42.982
		c23.737,0,42.983-19.245,42.983-42.982C514.605-190.74,495.359-209.982,471.622-209.982z M471.622-130.466
		c-20.177,0-36.534-16.357-36.534-36.534c0-20.175,16.357-36.533,36.534-36.533c20.173,0,36.534,16.358,36.534,36.533
		C508.156-146.823,491.795-130.466,471.622-130.466z"/>
	<path fill="#015084" d="M532.296-201.385h-4.554c-1.496,0-7.257,40.575-7.257,40.575c0,1.14,1.207,2.062,2.702,2.062h4.887v23.566
		c0,1.421,1.419,2.567,3.174,2.567h0.581c1.752,0,3.171-1.146,3.171-2.567v-25.629v-4.311v-34.201
		C535-200.461,533.794-201.385,532.296-201.385z"/>
	<path fill="#015084" d="M422.929-201.385c-1.101,0-1.993,0.891-1.993,1.993v15.082h-3.981v-15.082c0-1.103-0.894-1.993-1.991-1.993
		c-1.101,0-1.993,0.891-1.993,1.993v15.082h-3.981v-15.082c0-1.103-0.894-1.993-1.99-1.993c-1.102,0-1.996,0.891-1.996,1.993v17.217
		v1.373v0.049c0,1.176,0.955,2.133,2.133,2.133h3.844v43.835c0,1.202,0.934,2.171,2.079,2.171h3.807
		c1.153,0,2.082-0.969,2.082-2.171v-43.835h3.84c1.181,0,2.139-0.957,2.139-2.133v-0.049v-1.373v-17.217
		C424.922-200.495,424.026-201.385,422.929-201.385z"/>
	<path fill="#015084" d="M471.622-197.088c-16.618,0-30.088,13.472-30.088,30.088c0,16.618,13.47,30.085,30.088,30.085
		S501.71-150.382,501.71-167C501.71-183.616,488.24-197.088,471.622-197.088z M471.622-137.987
		c-16.022,0-29.012-12.988-29.012-29.013c0-16.024,12.988-29.013,29.012-29.013c16.021,0,29.012,12.989,29.012,29.013
		S487.644-137.987,471.622-137.987z"/>
</g>
<path fill="#9BD8DB" d="M514.751,144.99c0.088-0.835,0.249-1.641,0.249-2.49c0-12.422-10.078-22.5-22.5-22.5
	c-3.721,0-7.17,0.988-10.254,2.578C477.515,112.229,467.129,105,455,105c-16.567,0-30,13.433-30,30c0,3.296,0.659,6.408,1.641,9.375
	C416.914,148.213,410,157.647,410,168.75c0,13.213,9.793,24.038,22.5,25.869V195h3.75h26.25h15h24.75h5.25v-0.381
	c12.707-1.831,22.5-12.656,22.5-25.869C530,158.188,523.73,149.15,514.751,144.99z"/>
<g>
	<path fill="#7CC253" d="M-168.956,133.965c4.973,0,9.004-4.03,9.004-9.003c0-0.079-0.021-0.15-0.021-0.229
		c0.742,0.123,1.494,0.229,2.273,0.229c2.435,0,4.686-0.696,6.661-1.822c3.302,3.839,8.138,6.323,13.598,6.323
		c9.945,0,18.009-8.062,18.009-18.009c0-9.945-8.063-18.008-18.009-18.008c-5.46,0-10.296,2.483-13.598,6.321
		c-1.976-1.124-4.227-1.82-6.661-1.82c-7.462,0-13.507,6.047-13.507,13.507c0,1.637,0.334,3.188,0.871,4.644
		c-4.313,0.668-7.624,4.361-7.624,8.864C-177.96,129.935-173.929,133.965-168.956,133.965z"/>
	<path fill="#7CC253" d="M-119.979,203.754c-9.289-7.283-17.154-16.283-23.086-26.549c-6.05-10.467-10.1-22.232-11.629-34.789
		h-14.263h-14.263c-1.53,12.557-5.579,24.322-11.629,34.789c-5.932,10.266-13.797,19.266-23.086,26.549H-240v2.801h140v-2.801
		H-119.979z M-191.762,181.359c2.592-4.482,4.749-9.242,6.452-14.213v0.914h32.708v-0.914c1.703,4.971,3.859,9.729,6.451,14.213
		c4.2,7.271,9.529,13.783,15.694,19.408h-77C-201.292,195.143-195.963,188.632-191.762,181.359z"/>
</g>
<g>
	<path fill="#015084" d="M155,425v-16h-16v16h-32v104h80V425H155z M147,413c2.209,0,4,1.791,4,4s-1.791,4-4,4s-4-1.791-4-4
		S144.791,413,147,413z M183,525h-72v-96h28v12h16v-12h28V525z"/>
	<path fill="#015084" d="M147,449c-11.047,0-20,8.953-20,20s8.953,20,20,20s20-8.953,20-20S158.047,449,147,449z M147,485
		c-8.822,0-16-7.178-16-16s7.178-16,16-16c8.822,0,16,7.178,16,16S155.822,485,147,485z"/>
	<path fill="#015084" d="M131,497c-4.418,0-8,3.582-8,8v8h48v-8c0-4.418-3.582-8-8-8H131z"/>
</g>
<path fill="#015084" d="M177.818,459.301c-1.678,0.745-3.482,1.249-5.377,1.476c1.934-1.159,3.418-2.993,4.117-5.181
	c-1.811,1.072-3.813,1.854-5.947,2.272c-1.707-1.82-4.141-2.957-6.834-2.957c-5.17,0-9.362,4.191-9.362,9.362
	c0,0.733,0.082,1.448,0.242,2.134c-7.782-0.391-14.681-4.118-19.299-9.782c-0.807,1.383-1.269,2.991-1.269,4.707
	c0,3.248,1.653,6.114,4.166,7.793c-1.534-0.048-2.979-0.47-4.24-1.17c-0.001,0.039-0.002,0.078-0.002,0.117
	c0,4.537,3.228,8.32,7.512,9.182c-0.786,0.213-1.613,0.328-2.467,0.328c-0.604,0-1.19-0.059-1.762-0.169
	c1.191,3.721,4.649,6.428,8.746,6.503c-3.204,2.512-7.241,4.009-11.628,4.009c-0.756,0-1.502-0.045-2.234-0.131
	c4.144,2.656,9.065,4.206,14.353,4.206c17.224,0,26.641-14.267,26.641-26.64c0-0.406-0.009-0.812-0.025-1.214
	C174.977,462.828,176.562,461.18,177.818,459.301z"/>
</svg>
