<?xml version="1.0" encoding="utf-8"?>
<!-- Generator: Adobe Illustrator 16.0.0, SVG Export Plug-In . SVG Version: 6.00 Build 0)  -->
<!DOCTYPE svg PUBLIC "-//W3C//DTD SVG 1.1//EN" "http://www.w3.org/Graphics/SVG/1.1/DTD/svg11.dtd">
<svg version="1.1" id="Layer_1" xmlns="http://www.w3.org/2000/svg" xmlns:xlink="http://www.w3.org/1999/xlink" x="0px" y="0px"
	 width="300px" height="300px" viewBox="0 0 300 300" enable-background="new 0 0 300 300" xml:space="preserve">
<g>
	<path fill="#B18F6A" d="M-205.67,128.617c5.677,0,10.536,3.382,12.75,8.226c1.444-0.744,3.058-1.207,4.799-1.207
		c2.418,0,4.64,0.825,6.419,2.196c2.363-4.421,7.021-7.431,12.384-7.431c5.677,0,10.536,3.383,12.75,8.227
		c1.442-0.745,3.058-1.207,4.799-1.207c2.471,0,4.74,0.858,6.537,2.286c2.198-2.396,5.163-3.874,8.436-3.874
		c4.953,0,9.195,3.383,11.128,8.227c1.256-0.741,2.658-1.201,4.171-1.205v-22.588v-12.16h-9.729v12.16h-77.829v-12.16h-9.729v12.16
		v17.412C-216.774,132.386-211.668,128.617-205.67,128.617z"/>
	<polygon fill="#B18F6A" points="-114.729,143.25 -114.729,155.412 -225.271,155.412 -225.271,143.25 -235,143.25 -235,155.412 
		-235,179.732 -235,191.895 -225.271,191.895 -225.271,179.732 -114.729,179.732 -114.729,191.895 -105,191.895 -105,143.25 	"/>
</g>
<g>
	<g>
		<defs>
			<rect id="SVGID_1_" x="400" y="716" width="140" height="140"/>
		</defs>
		<clipPath id="SVGID_2_">
			<use xlink:href="#SVGID_1_"  overflow="visible"/>
		</clipPath>
		<g clip-path="url(#SVGID_2_)">
			<path fill="#DD4231" d="M480.403,766.433c-3.76,0-6.808,3.048-6.808,6.808c0,3.759,3.048,6.806,6.808,6.806
				c3.759,0,6.806-3.047,6.806-6.806C487.209,769.479,484.162,766.433,480.403,766.433z M480.403,778.344
				c-2.818,0-5.104-2.285-5.104-5.104c0-2.819,2.286-5.104,5.104-5.104s5.104,2.285,5.104,5.104
				C485.508,776.059,483.223,778.344,480.403,778.344z"/>
			<circle fill="#DD4231" cx="480.456" cy="773.239" r="2.127"/>
			<path fill="#DD4231" d="M464.729,775.273l-2.033-2.034l2.033-2.034c0.937-0.936,0.937-2.454,0-3.39
				c-0.936-0.937-2.452-0.937-3.39,0l-2.033,2.033l-2.033-2.033c-0.938-0.937-2.454-0.937-3.393,0c-0.934,0.936-0.934,2.453,0,3.39
				l2.036,2.034l-2.036,2.034c-0.934,0.935-0.934,2.452,0,3.389c0.938,0.937,2.454,0.937,3.393,0l2.033-2.033l2.033,2.033
				c0.938,0.937,2.452,0.937,3.39,0C465.664,777.727,465.664,776.208,464.729,775.273z"/>
			<path fill="#DD4231" d="M455,786.17c-0.377,0-1,0.304-1,0.681v4.766c0,0.376,0.623,0.681,1,0.681s1-0.305,1-0.681v-4.766
				C456,786.474,455.377,786.17,455,786.17z"/>
			<path fill="#DD4231" d="M458,786.17c-0.375,0-1,0.304-1,0.681v4.766c0,0.376,0.625,0.681,1,0.681c0.377,0,1-0.305,1-0.681v-4.766
				C459,786.474,458.377,786.17,458,786.17z"/>
			<path fill="#DD4231" d="M460.5,786.17c-0.378,0-0.5,0.304-0.5,0.681v4.766c0,0.376,0.122,0.681,0.5,0.681
				c0.377,0,0.5-0.305,0.5-0.681v-4.766C461,786.474,460.877,786.17,460.5,786.17z"/>
			<path fill="#DD4231" d="M463.5,786.17c-0.376,0-0.5,0.304-0.5,0.681v4.766c0,0.376,0.124,0.681,0.5,0.681
				c0.377,0,0.5-0.305,0.5-0.681v-4.766C464,786.474,463.877,786.17,463.5,786.17z"/>
			<path fill="#DD4231" d="M466,786.17c-0.377,0-1,0.304-1,0.681v4.766c0,0.376,0.623,0.681,1,0.681c0.376,0,1-0.305,1-0.681v-4.766
				C467,786.474,466.376,786.17,466,786.17z"/>
			<path fill="#DD4231" d="M468.5,786.17c-0.377,0-0.5,0.304-0.5,0.681v4.766c0,0.376,0.123,0.681,0.5,0.681s0.5-0.305,0.5-0.681
				v-4.766C469,786.474,468.877,786.17,468.5,786.17z"/>
			<path fill="#DD4231" d="M471,786.17c-0.375,0-1,0.304-1,0.681v4.766c0,0.376,0.625,0.681,1,0.681c0.377,0,1-0.305,1-0.681v-4.766
				C472,786.474,471.377,786.17,471,786.17z"/>
			<path fill="#DD4231" d="M473.5,786.17c-0.377,0-0.5,0.304-0.5,0.681v4.766c0,0.376,0.123,0.681,0.5,0.681
				c0.375,0,0.5-0.305,0.5-0.681v-4.766C474,786.474,473.875,786.17,473.5,786.17z"/>
			<path fill="#DD4231" d="M476.5,786.17c-0.375,0-0.5,0.304-0.5,0.681v4.766c0,0.376,0.125,0.681,0.5,0.681
				c0.378,0,0.5-0.305,0.5-0.681v-4.766C477,786.474,476.878,786.17,476.5,786.17z"/>
			<path fill="#DD4231" d="M479,786.17c-0.377,0-1,0.304-1,0.681v4.766c0,0.376,0.623,0.681,1,0.681s1-0.305,1-0.681v-4.766
				C480,786.474,479.377,786.17,479,786.17z"/>
			<path fill="#DD4231" d="M482,786.17c-0.377,0-1,0.304-1,0.681v4.766c0,0.376,0.623,0.681,1,0.681s1-0.305,1-0.681v-4.766
				C483,786.474,482.377,786.17,482,786.17z"/>
			<path fill="#DD4231" d="M485,786.17c-0.375,0-1,0.304-1,0.681v4.766c0,0.376,0.625,0.681,1,0.681c0.377,0,1-0.305,1-0.681v-4.766
				C486,786.474,485.377,786.17,485,786.17z"/>
			<path fill="#DD4231" d="M510,772.558l-6-3.401V752.82c0-3.76-2.824-6.82-6.582-6.82H476.66l-0.682-3h5.785
				c1.128,0,2.042-1.373,2.042-2.5s-0.914-2.5-2.042-2.5h-6.466l-0.794-4h0.453c1.128,0,2.042-0.873,2.042-2s-0.914-2-2.042-2
				h-1.134l-0.229-1.861c0-3.76,0.355-10.459-3.401-10.459c-3.76,0-3.402,6.825-3.402,10.584L466.565,730h-1.136
				c-1.129,0-2.043,0.873-2.043,2s0.914,2,2.043,2h0.453l-0.794,4h-6.466c-1.128,0-2.041,1.373-2.041,2.5s0.913,2.5,2.041,2.5h5.786
				l-0.683,3h-20.758c-3.76,0-6.971,3.062-6.971,6.82v16.335l-7,3.401v13.612l7,3.403v17.694c0,3.76,3.211,6.731,6.971,6.731h54.447
				c3.758,0,6.582-2.973,6.582-6.731v-17.694l6-3.403v-13.611H510z M497,765.753v27.224v7.486c0,3.759-2.629,7.537-6.389,7.537
				h-40.836c-3.759,0-7.775-3.778-7.775-7.537v-7.486v-27.224v-6.126c0-3.759,4.018-5.627,7.775-5.627h40.836
				c3.76,0,6.389,1.868,6.389,5.627V765.753z"/>
			<circle fill="#DD4231" cx="419.319" cy="834.833" r="10.209"/>
			<path fill="#DD4231" d="M421.675,852h-4.71c-4.339,0-7.965,3.135-7.965,7.749v17.321c0,4.613,3.626,8.93,7.965,8.93h4.71
				c4.338,0,7.325-4.315,7.325-8.93v-17.321C429,855.135,426.013,852,421.675,852z"/>
			<path fill="#DD4231" d="M453.179,952.388c-7.518,0-13.611,5.612-13.611,13.612h27.226
				C466.792,958,460.697,952.388,453.179,952.388z"/>
			<path fill="#DD4231" d="M462,904.806c0-3.759-3.048-6.806-6.807-6.806h-6.388c-3.759,0-6.807,3.047-6.807,6.806v34.39
				c0,3.759,3.048,6.806,6.807,6.806h6.388c3.759,0,6.807-3.047,6.807-6.806V904.806z"/>
			<circle fill="#DD4231" cx="521.07" cy="834.833" r="10.209"/>
			<path fill="#DD4231" d="M523.426,852h-4.712c-4.337,0-8.714,3.135-8.714,7.749v17.321c0,4.613,4.377,8.93,8.714,8.93h4.712
				c4.337,0,7.574-4.315,7.574-8.93v-17.321C531,855.135,527.763,852,523.426,852z"/>
			<path fill="#DD4231" d="M487.209,952.388c-7.516,0-13.612,5.612-13.612,13.612h27.226
				C500.821,958,494.728,952.388,487.209,952.388z"/>
			<path fill="#DD4231" d="M497,904.731c0-3.76-2.984-6.731-6.742-6.731h-6.602c-3.76,0-6.656,2.973-6.656,6.731v34.302
				c0,3.759,2.896,6.967,6.656,6.967h6.602c3.758,0,6.742-3.208,6.742-6.967V904.731z"/>
			<path fill="#DD4231" d="M524.643,893h-6.806c-3.76,0-7.837,2.146-7.837,5.905v6.807c0,3.759,3,6.806,7,6.806v-9.527
				c0-1.127,1.751-1.989,2.878-1.989h2.723c1.128,0,1.399,0.862,1.399,1.989v9.527c4,0,7-3.047,7-6.806v-6.807
				C531,895.146,528.401,893,524.643,893z"/>
			<path fill="#DD4231" d="M422.552,893h-6.807c-3.758,0-6.745,2.146-6.745,5.905v6.807c0,3.759,3,6.806,6,6.806v-9.527
				c0-1.127,1.661-1.989,2.788-1.989h2.723c1.127,0,1.489,0.862,1.489,1.989v9.527c5,0,7-3.047,7-6.806v-6.807
				C429,895.146,426.312,893,422.552,893z"/>
			<path fill="#DD4231" d="M497.92,823h-27.487h-27.484c-1.809,0-3.646-0.102-4.828,1.082c-1.188,1.186-2.119,1.986-2.119,3.793
				v27.485v27.485c0,1.809,0.933,3.749,2.119,4.933c1.184,1.186,3.021,2.222,4.828,2.222h27.484h27.487
				c1.808,0,3.212-1.036,4.396-2.222c1.183-1.184,1.684-3.124,1.684-4.933V855.36v-27.485c0-1.807-0.501-2.607-1.684-3.793
				C501.132,822.898,499.728,823,497.92,823z"/>
		</g>
	</g>
</g>
<g>
	<g>
		<defs>
			<rect id="SVGID_3_" x="50" y="50" width="200" height="200"/>
		</defs>
		<clipPath id="SVGID_4_">
			<use xlink:href="#SVGID_3_"  overflow="visible"/>
		</clipPath>
		<g clip-path="url(#SVGID_4_)">
			<g>
				<g>
					<path fill="#F7CAC9" d="M118.414,77.948l1.181-1.181C119.105,77.133,118.696,77.527,118.414,77.948z"/>
					<path fill="#F7CAC9" d="M119.869,76.492l-0.276,0.275c0.487-0.365,1.057-0.703,1.711-1.013c0.013-0.233,0.028-0.465,0.021-0.72
						L119.869,76.492z"/>
					<path fill="#F7CAC9" d="M181.146,76.767l1.184,1.181C182.043,77.527,181.636,77.133,181.146,76.767z"/>
					<path fill="#F7CAC9" d="M180.872,76.492l-1.458-1.457c-0.005,0.253,0.008,0.487,0.023,0.72
						c0.651,0.308,1.222,0.648,1.708,1.012L180.872,76.492z"/>
					<polyline fill="#F3776B" points="124.838,131.995 135.777,79.632 171.099,78.976 					"/>
					<polygon fill="#91A8CF" points="125.115,132.293 122.707,132.297 133.5,80.14 135.68,80.105 					"/>
					<polyline fill="#F3776B" points="128.556,142.59 132.457,124.695 161.242,102.58 					"/>
					<polygon fill="#91A8CF" points="128.637,143.055 126.33,143.85 129.7,126.599 132.649,124.451 					"/>
					<path fill="#DD4231" d="M158.497,178.226c0,17.798,13.811,16.426,18.87,16.426c5.055,0,1.954-13.686,1.954-31.482
						c0-17.795,2.035-31.086-1.954-32.965C172.621,127.975,158.497,160.427,158.497,178.226z"/>
					<path fill="#DD4231" d="M145.316,178.712c0,17.268-13.807,15.943-18.864,15.943c-5.057,0-4.416-13.55-1.954-30.55
						c2.851-19.756-3.103-31.988,1.954-31.988C131.509,132.117,145.316,161.445,145.316,178.712z"/>
					<path fill="#F7CAC9" stroke="#DDB5B4" stroke-width="0.9708" stroke-miterlimit="10" d="M222.328,592.462
						c-1.16-5.381-8.93-4.177-13.437-5.105c-5.428-1.121-10.506-3.853-15.01-6.578c-5.094-3.083-9.033-4.701-9.421-11.614
						c-0.028-0.614-0.203-1.272-0.339-1.914l0.035-2.315l3.027-202.028c1.691-0.211,3.406-0.396,5.17-0.542
						c0.763-15.041,0.145-30.376,0.145-45.482c0-15.447,4.259-40.928,0.211-56.522v-0.839c5.614,7.975,4.356,24.647,6.306,34.304
						c2.989,14.797,7.032,28.164,7.19,44.28c0.086,9.24,2.88,16.521,0.969,25.072c-1.69,7.557-6.633,15.394-9.076,21.85
						c-2.203,5.824-7.92,7.771-7.01,13.809c1.393,9.238,8.118,4.731,10.088-1.983c1.539-0.44,3.959-0.415,5.514-0.021
						c0.383,7.528,0.067,14.302-2.769,20.236c-2.48,5.195-8.555,12.234,2.645,11.434c14.749-1.051,15.813-28.333,15.798-39.587
						c-0.035-39.227-4.141-79.651-10.652-116.526c-1.434-8.106-1.978-18.285-6.551-25.536c-4.025-6.378-11.189-11.031-16.113-16.851
						c-1.368-2.121-3.328-3.781-4.566-5.939c-11.604-20.229-11.396-22.953-11.356-39.066l-0.118,0.048
						c0.49-8.492,1.52-17.097,3.309-22.146c3.26-9.21,7.422-17.954,10.547-26.648c1.453-4.033,2.317-9.576,2.63-15.229
						c0.305-5.653,0.058-11.42-0.71-15.908c-0.865-5.055,0.43-14.477-1.338-19.396c-1.687-4.687-6.145-5.294-6.433-9.96
						c-3.121-1.481-7.983-2.33-12.899-2.412c-6.879-0.12-13.828,1.255-16.166,4.453c-2.334-3.197-9.288-4.572-16.165-4.453
						c-4.916,0.083-9.779,0.93-12.898,2.412c-0.291,4.667-4.746,5.273-6.431,9.96c-1.77,4.917-0.472,14.341-1.338,19.396
						c-0.768,4.488-1.018,10.255-0.711,15.908c0.311,5.653,1.177,11.196,2.626,15.229c3.13,8.694,7.287,17.438,10.552,26.648
						c3.18,8.973,3.957,29.178,3.572,39.993c-1.383,5.25-4.231,10.995-10.066,21.171c-1.241,2.158-3.198,3.818-4.569,5.939
						c-4.922,5.816-12.086,10.473-16.113,16.851c-4.572,7.251-5.118,17.43-6.551,25.536c-6.512,36.873-10.615,77.3-10.655,116.526
						c-0.013,11.254,1.047,38.536,15.8,39.587c11.199,0.801,5.127-6.238,2.646-11.434c-2.832-5.935-3.15-12.705-2.764-20.236
						c1.552-0.395,3.972-0.42,5.506,0.021c1.971,6.715,8.696,11.222,10.092,1.983c0.91-6.038-4.805-7.984-7.008-13.809
						c-2.445-6.456-2.199-15.714-3.892-23.271c-1.913-8.552,0.839-17.82,0.927-27.062c0.156-16.117-0.947-26.071,2.045-40.867
						c1.948-9.654,0.691-26.328,6.305-34.305v0.839c-4.049,15.595,0.209,41.077,0.209,56.523c0,15.106-0.614,30.441,0.148,45.484
						c1.756,0.145,3.475,0.328,5.167,0.542l3.028,202.027l0.033,2.316c-0.137,0.639-0.305,1.298-0.34,1.912
						c-0.387,6.913-4.327,8.533-9.418,11.615c-4.503,2.725-9.582,5.457-15.009,6.578c-4.51,0.928-12.277-0.276-13.437,5.105
						c-1.602,7.445,5.75,6.139,10.536,6.868c2.703,0.414,4.736,1.433,7.588,1.547c3.159,0.124,6.552-0.198,9.619-0.641
						c6.387-0.917,12.903-0.966,19.514-1.633c5.761-0.582,14.932,1.488,16.173-5.146c1.459-7.78-3.071-15.01-2.267-22.354
						l0.068-4.071h0.025l-0.015-0.913l0.015-0.879c-0.007,0-0.019,0-0.025-0.003l-2.979-198.75c2.937,0.365,5.969,0.639,9.146,0.777
						v0.098c0.039,0,0.078,0,0.114,0c0.69,0,1.356-0.023,2.028-0.036c0.676,0.015,1.344,0.036,2.031,0.036c0.039,0,0.081,0,0.117,0
						v-0.098c3.182-0.139,6.209-0.412,9.146-0.777l-2.979,198.75c-0.008,0.003-0.019,0.003-0.027,0.003l0.015,0.879l-0.015,0.913
						h0.027l0.067,4.071c0.805,7.345-3.723,14.574-2.27,22.354c1.244,6.635,10.413,4.564,16.176,5.146
						c6.609,0.667,13.128,0.716,19.514,1.633c3.067,0.442,6.459,0.765,9.619,0.641c2.854-0.114,4.886-1.134,7.589-1.547
						C216.575,598.601,223.931,599.907,222.328,592.462z"/>
				</g>
				<circle fill="#B18F6A" cx="148.051" cy="128.112" r="1.579"/>
				<circle fill="#B18F6A" cx="154.726" cy="128.112" r="1.577"/>
				<rect x="141.74" y="142.039" fill="#FFFFFF" width="3.885" height="1.942"/>
				<rect x="146.838" y="142.039" fill="#FFFFFF" width="3.881" height="1.942"/>
				<rect x="157.516" y="141.964" fill="#FFFFFF" width="3.886" height="1.941"/>
				<rect x="152.419" y="141.964" fill="#FFFFFF" width="3.883" height="1.941"/>
				<path fill="none" stroke="#F3776B" stroke-width="0.9708" stroke-miterlimit="10" d="M165.887,141.029
					c-1.566-0.219-2.778,0.748-4.179,0.972c-1.049,0.168-2.275,0-3.344,0c-2.424,0-4.855,0-7.278,0h0.97c-2.426,0-4.854,0-7.282,0
					c-1.068,0-2.291,0.168-3.343,0c-1.397-0.223-2.614-1.191-4.18-0.972"/>
			</g>
			<polygon fill="#DD4231" points="193.828,276.317 168.099,276.317 143.2,276.925 118.342,276.925 92.574,276.317 94.808,262.28 
				98.196,246.829 112.879,231.419 122.527,218.665 139.531,232.216 157.63,246.646 175.728,261.073 			"/>
			<polygon fill="#015084" points="193.198,316.867 112.005,316.867 111.128,276.317 194.438,276.317 			"/>
			<polygon fill="#7CC253" points="192.583,376.168 172.789,376.168 152.993,376.168 139.324,376.168 112.609,362.364 
				112.575,361.644 112.228,346.519 112.332,331.782 111.392,316.867 133.197,316.88 152.993,316.88 172.789,316.88 192.583,316.88 
				192.583,331.7 192.583,346.526 192.583,361.347 			"/>
			<polygon fill="#DD4231" points="192.583,354.505 139.324,376.168 192.583,376.168 			"/>
			<rect x="157.026" y="376.168" fill="#F3776B" width="30.09" height="28.309"/>
			<rect x="157.026" y="404.285" fill="#FFFFFF" width="30.09" height="7.741"/>
			<rect x="157.026" y="412.395" fill="#015084" width="30.09" height="22.16"/>
			<rect x="157.026" y="434.609" fill="#F3776B" width="30.09" height="14.716"/>
			<rect x="157.026" y="449.13" fill="#FFFFFF" width="30.09" height="7.749"/>
			<rect x="157.026" y="456.552" fill="#F3776B" width="30.09" height="7.748"/>
			<rect x="157.026" y="463.695" fill="#7CC253" width="30.09" height="51.603"/>
			<rect x="157.026" y="515.298" fill="#015084" width="30.09" height="51.307"/>
			<polygon fill="#015084" points="105.641,316.88 82.41,316.758 92.574,276.317 111.392,276.317 			"/>
			<rect x="82.41" y="316.758" fill="#7CC253" width="23.233" height="59.41"/>
			<line fill="none" x1="111.102" y1="276.317" x2="106.247" y2="280.528"/>
			<rect x="102.363" y="276.317" fill="#DD4231" width="10.682" height="4.209"/>
			<rect x="129.549" y="276.317" fill="#DD4231" width="10.679" height="4.209"/>
			<rect x="158.349" y="276.317" fill="#DD4231" width="10.68" height="4.209"/>
			<rect x="145.406" y="273.247" fill="#015084" width="7.927" height="4.202"/>
			<rect x="174.528" y="273.083" fill="#015084" width="7.929" height="4.206"/>
			<rect x="116.762" y="273.083" fill="#015084" width="7.93" height="4.206"/>
			<polygon fill="#015084" points="99.529,278.422 92.574,278.422 92.574,274.216 99.529,275.356 			"/>
			<polygon fill="#DD4231" points="193.828,281.497 187.151,280.528 187.151,274.216 194.8,276.317 			"/>
			<g>
				<polygon fill="#FFFFFF" points="135.963,285.608 122.473,273.961 108.008,285.608 93.547,274.216 93.795,269.954 
					108.008,280.621 122.473,268.972 135.963,280.621 150.426,268.972 164.887,280.621 179.356,268.972 193.828,281.497 
					193.828,285.608 180.327,273.961 165.859,285.608 150.426,273.961 				"/>
			</g>
			<rect x="114.459" y="313.089" fill="#7CC253" width="10.234" height="5.344"/>
			<rect x="143.1" y="313.089" fill="#7CC253" width="10.233" height="5.344"/>
			<rect x="171.979" y="313.089" fill="#7CC253" width="10.236" height="5.344"/>
			<rect x="128.658" y="314.911" fill="#015084" width="10.234" height="5.339"/>
			<rect x="157.477" y="314.911" fill="#015084" width="10.237" height="5.339"/>
			<rect x="84.727" y="312.242" fill="#7CC253" width="10.236" height="5.341"/>
			<polygon fill="#015084" points="105.641,320.356 99.529,319.644 98.377,314.911 105.641,314.911 			"/>
			<polygon fill="#FFFFFF" points="90.2,307.835 86.116,311.12 82.028,314.414 81.733,317.144 81.44,319.872 85.817,316.348 
				90.2,312.82 97.436,318.644 104.67,324.472 104.67,322.414 105.641,320.356 97.436,314.094 			"/>
			<polygon fill="#015084" points="192.797,321.086 186.18,319.28 184.242,312.242 192.797,312.242 			"/>
			<polygon fill="#FFFFFF" points="178.325,308.562 163.854,320.211 149.396,308.562 135.901,320.211 120.471,308.562 
				111.177,316.043 111.616,320.872 121.44,313.551 134.926,325.198 150.365,313.551 163.854,325.198 178.325,313.551 
				192.797,325.198 192.797,321.086 			"/>
			<polygon fill="#7CC253" points="168.25,519.759 164.856,519.759 162.633,511.887 170.192,511.887 			"/>
			<polygon fill="#7CC253" points="187.425,519.759 182.831,517.817 181.284,511.887 187.425,511.887 			"/>
			<polygon fill="#015084" points="157.094,510.05 161.028,513.754 163.083,520.731 157.042,520.731 			"/>
			<polygon fill="#015084" points="182.758,519.04 172.862,519.759 172.862,512.238 178.442,512.238 			"/>
			<g>
				<polygon fill="#FFFFFF" points="167.048,524.101 156.843,512.238 157.026,506.499 167.054,518.147 177.083,506.499 
					187.425,519.759 187.116,524.101 177.083,512.446 				"/>
			</g>
			<rect x="116.166" y="554.993" fill="#015084" width="32.492" height="7.082"/>
			
				<rect x="116.166" y="543.547" fill="#FFFFFF" stroke="#E6E7E8" stroke-width="0.6771" stroke-miterlimit="10" width="32.239" height="7.277"/>
			<polygon fill="#91A8CF" points="131.719,128.112 124.838,131.995 124.838,128.827 132.457,124.695 			"/>
			<circle fill="#FFFFFF" cx="169.409" cy="112.615" r="8.74"/>
			<polyline fill="#F3776B" points="125.91,131.673 136.846,79.312 172.169,78.655 			"/>
			<polygon fill="#91A8CF" points="126.183,131.972 123.773,131.979 134.569,79.822 136.75,79.783 			"/>
			<polyline fill="#F3776B" points="129.624,142.27 133.524,124.373 162.31,102.258 			"/>
			<polygon fill="#91A8CF" points="129.704,142.734 127.398,143.528 130.766,126.28 133.715,124.132 			"/>
			<circle fill="#FFFFFF" cx="133.001" cy="112.615" r="8.739"/>
			<circle fill="#91A8CF" cx="133.002" cy="112.463" r="3.399"/>
			<circle fill="#7CC253" cx="169.484" cy="112.463" r="5.34"/>
			<circle fill="#090A11" cx="169.487" cy="112.462" r="3.397"/>
			<circle fill="#090A11" cx="133.001" cy="112.463" r="0.971"/>
			<g>
				<path fill="#DD4231" d="M175.161,168.148c-0.07,0.276-0.118,0.513-0.141,0.688C175.073,168.636,175.118,168.401,175.161,168.148
					z"/>
				<path fill="#DD4231" d="M202.009,74.232c-2.86-5.629-13.095-8.968-18.365-13.522c-11.932-10.311-18.943-10.375-31.984-9.412
					c-13.038-0.963-20.05-0.9-31.985,9.412c-5.266,4.555-15.499,7.894-18.364,13.522c-3.013,5.928,0.043,20.184,0.77,26.418
					c0.963,8.248,5.494,15.752,7.139,24.292c1.566,8.131,5.831,16.041,8.868,23.577c0.759,1.88,2.799,8.577,4.103,10.36
					c1.342,1.832,3.149,2.031,3.691,3.058c0.581,1.108,2.266,5.581,2.42,6.897l0.895,0.497c-0.689-2.653-1.347-10.507-2.32-13.944
					c-3.461-12.249-3.059-7.302-4.376-15.926c-2.637-17.26-5.379-29.766,0.766-46.459c3.353-9.121,2.986-11.464,15.464-10.87
					c6.11,0.289,9.139,0.269,12.932,0.136c3.798,0.134,6.825,0.153,12.937-0.136c12.477-0.593,12.11,1.749,15.466,10.87
					c6.141,16.693,3.401,29.199,0.763,46.459c-1.317,8.624-0.914,3.677-4.377,15.926c-0.9,3.176-0.766,9.695-1.284,12.758
					c0.448-1.767,1.777-5.25,2.282-6.208c0.538-1.026,2.348-1.226,3.691-3.058c1.301-1.783,3.344-8.48,4.102-10.36
					c3.034-7.536,7.301-15.446,8.866-23.577c1.647-8.541,6.179-16.046,7.14-24.292C201.969,94.416,205.026,80.16,202.009,74.232z"/>
			</g>
		</g>
	</g>
</g>
<path fill="#DD4231" d="M-110.964,808.542c-2.85-9.573-10.914-19.827-21.9-18.912c-2.373,0.198-4.811,0.923-6.84,2.221
	c-1.041,0.659-1.779,1.567-2.594,2.477c-0.732,0.812-1.729,2.761-2.768,3.119c-2.059,0.703-5.121-3.64-6.219-4.914
	c-2.094-2.41-4.109-4.908-6.035-7.472c-3.721-4.965-6.686-10.479-9.236-16.135c-1.188-2.615-1.844-5.376-2.482-8.174
	c-0.719-3.26-1.305-6.614-0.696-9.925c0.206-1.069,0.514-2.153-0.344-3.039c-0.77-0.82-1.825-0.558-2.762-0.975
	c-2.557-1.12-3.412-3.397-5.105-5.537c-3.435-4.352-7.866-7.815-13.176-9.544c-3.794-1.237-7.997-1.779-11.982-1.758
	c-4.453,0.008-8.985,0.06-13.344,1.041c-2.104,0.468-4.219,0.995-6.285,1.641c-1.706,0.527-4.271,0.841-5.522,2.21
	c-0.885,0.975-2.71,1.635-1.113,3.165c1.428,1.385,2.98,2.396,4.542,3.609c1.486,1.157,2.93,2.271,4.583,3.188
	c1.657,0.916,3.386,1.803,4.629,3.26c0.33,0.359,1.582,0.433,2.059,0.696c1.114,0.608,2.265,1.187,3.421,1.728
	c1.984,0.933,4.108,1.555,6.072,2.521c3.187,1.545,7.64,1.545,11.161,1.612c4.696,0.08,9.12-0.996,13.705-1.604
	c0.153,1.238-0.06,2.483-0.688,3.566c-0.622,1.085-1.649,1.767-2.154,2.916c-1.172,2.637-1.794,5.528-3.508,7.909
	c-0.652,0.961-0.937,2.638-1.319,3.75c-0.483,1.393-0.929,2.799-1.311,4.22c-0.38,1.473-0.683,2.942-0.776,4.453
	c-0.087,1.441-0.571,2.739-0.717,4.146c-0.045,0.682,0.211,0.834,0.108,1.617c-0.087,0.806-0.183,1.604-0.262,2.402
	c-0.17,1.618-0.315,3.235-0.455,4.849c-0.168,1.823,0.293,5.961-2.073,6.628c-1.104,0.308-1.926-0.256-2.974-0.344
	c-1.516-0.132-3.003-0.189-4.526,0.037c-2.943,0.444-5.537,1.099-7.911,3.003c-8.583,6.928-7.404,22.594-1.391,30.798
	c3.157,4.313,8.262,7.765,13.638,8.468c5.81,0.754,11.479,1.252,16.699-1.847c4.205-2.498,7.185-6.489,8.979-10.986
	c2.042-5.112,3.464-11.366,1.816-16.779c-1.539-5.03-5.119-9.214-10.165-10.877c-2.358-0.783-4.863-0.931-7.296-0.615
	c-2.892,0.383-3.025-0.563-2.936-3.331c0.357-12.399,3.272-25.284,9.945-35.854c0.769-1.224,1.589-2.402,2.46-3.537
	c0.938-1.225,1.297-1.566,2.352-0.206c1.686,2.204,1.752,5.517,2.659,8.072c2.022,5.646,4.695,11.029,7.875,16.113
	c3.023,4.817,6.744,9.315,10.592,13.499c0.848,0.93,1.719,1.844,2.6,2.737c1.141,1.15,1.33,1.518,0.424,2.856
	c-1.055,1.538-3.004,2.337-4.336,3.604c-7.771,7.391-3.604,17.688,2.688,24.493c3.199,3.463,7.391,6.158,11.93,7.506
	c5.332,1.599,10.834,0.31,15.711-2.044c4.373-2.101,7.992-5.439,10.635-9.491C-109.683,819.844-109.31,814.094-110.964,808.542
	C-112.386,803.767-109.353,813.963-110.964,808.542z"/>
<g id="layer1" transform="translate(-407.50579,-298.09886)">
	<path id="path2384" fill="#F3776B" d="M539.363,810.853c-0.017,1.964-1.498,1.825-1.498,1.825c-1.531,0-2.494-3.062-2.873-2.968
		c-0.483,0.096,0.096,2.584-0.483,2.968c-0.476,0.479-10.637-4.216-11.396-4.978c-0.676-0.676,0.287-1.633,0-2.307
		c-0.197-0.57-1.736-0.385-2.203-0.667c-0.394-0.386,0.467-2.109-0.096-2.498c-0.487-0.277-1.533,1.731-2.205,0.77
		c-0.299-0.381-0.384-1.047-0.384-1.914c0-5.845,6.224-8.236,10.448-9.681c1.716-0.569,1.137,1.635,1.716,1.731
		c0.674,0.19,0.766-1.06,1.535-1.06c0.579,0,2.783,1.06,3.255,0.675c0.389-0.287-1.146-1.729-0.671-2.302
		c0.579-0.479,4.838-1.646,4.872-0.389 M574.935,748.58c0-1.626-1.146-2.871-2.385-2.871H562.2c-2.872,0-2.688-2.111-2.688-2.587
		c0-12.744,18.496-14.852,18.496-31.522c0-7.28-4.595-12.17-9.961-16.48c-0.294-0.191,0,1.054,0,1.538
		c0,7.758-28.837,11.782-28.837,29.701c0,15.611,15.516,16.285,15.516,18.683c0,0.478-0.952,0.669-1.053,0.669h-11.881
		c-1.246,0-2.395,1.245-2.395,2.871v9.585c-1.155,0.386-2.584-1.345-3.357-1.345c-0.378,0-0.182,2.974-0.86,3.354
		c-0.575,0.287-11.394,4.122-12.36,4.218c-1.528,0.288-1.146-2.396-2.005-2.396c-0.772,0-0.772,2.685-2.691,2.685
		c-1.144,0-2.099-1.057-2.96-1.057c-0.576,0,1.24,2.207,1.24,2.876c0,1.819-3.543,2.482-3.543,3.737
		c0,0.664,3.354-0.292,3.834-0.292c1.721,0,1.531,2.016,2.194,2.016c0.675,0,1.153-2.303,1.73-2.681
		c1.147-0.677,2.494,0.474,3.064,0.474c0.962,0-0.768-2.298,0.103-2.685c0,0,11.685-4.979,12.445-4.602
		c0.671,0.39,0.582,1.537,1.347,1.921c0.766,0.385,1.915-2.683,1.915-0.768v23.477c-1.343,0.86-4.216,1.341-5.752,1.341
		c-0.763,0-0.381-2.488-0.858-2.488c-0.771,0-1.541,2.104-2.685,2.104c-1.053,0-2.587-2.582-3.639-2.582
		c-0.67,0,1.241,3.252,0.093,3.827c-4.406,2.207-11.397,4.309-11.397,11.311c0,1.437,0.771,3.157,0.477,3.635
		c-0.285,0.67-1.814,2.016-1.73,2.59c0,0.573,2.879,0.382,3.46,1.248c0.28,0.475,0.479,2.587,1.055,2.587
		c0.476,0,1.718-1.634,2.775-1.054c3.354,2.015,9.194,4.212,11.879,5.647c0.665,0.389,0.284,2.491,0.665,2.683
		c0.771,0.39,2.301-2.011,4.703-0.667c0.482,0.19,0.831,0.656,0.831,1.521v7.839c-0.006,1.645,0.794,2.04,1.563,2.231l28.55,5.845
		c0,0,2.108,0.384,2.967,0.384c1.06,0,2.489-0.436,2.489-2.544l-0.043-17.448c0-0.186,0.136-0.697,0.419-0.697
		c1.538-0.144,1.161,4.785,1.542,4.785c0.757,0,1.249-3.259,2.203-3.259c1.343,0,2.215,1.246,2.777,0.959
		c0.48-0.287-0.279-1.823-0.279-2.78c0-0.861,2.482-1.243,5.556-2.388c2.68-0.962,4.885-2.017,5.748-2.017
		c0.666,0,1.142,1.816,1.723,1.816c0.478,0,0.574-2.394,1.63-2.394c0.859,0,2.772,1.338,3.258,0.957
		c0.384-0.285-0.955-2.109,0.097-2.875c0.766-0.479,2.584-1.625,2.584-2.107c0-0.284-3.545-0.381-3.734-0.381
		c-0.672-0.193-1.438-2.302-1.925-2.302c-0.561,0-0.561,2.107-1.432,2.782c-0.769,0.566-2.68-2.015-3.538-2.015
		c-0.485,0,0.571,1.914,0.571,3.447c0,1.535-9.291,4.505-10.537,4.505c-1.916,0-2.019-2.393-2.403-2.393
		c-0.565,0-0.479,2.876-2.866,2.876c-1.062,0-1.352-0.579-1.352-1.158v-22.991c0-0.671,0.197-1.728,1.443-1.728
		c1.727,0,1.727,3.451,2.295,3.451c1.061,0,1.637-3.545,3.645-3.545c1.529,0,2.777,2.111,3.734,2.111
		c0.674,0-1.146-2.203-1.146-3.261c0-1.051,9.485-0.67,13.129-7.093c1.051-1.818,1.051-4.02,1.437-4.883
		c0.566-0.959,2.68-0.772,2.68-1.438c0-0.287-1.53-0.671-2.112-1.052c-1.144-0.67-0.758-4.123-1.332-4.123
		c-0.862,0-1.728,2.396-2.591,1.341c-1.532-1.915-7.855-5.558-10.729-6.611c-1.059-0.383,0.769-3.544,0.289-3.835
		c-0.479-0.287-1.731,1.92-3.555,1.537c-1.436-0.287-0.759-2.876-1.525-2.876c-0.389,0-1.828,3.644-2.879,3.356
		c-1.148-0.288-2.783-0.575-2.783-0.575v-9.677H574.935z M574.935,761.133c0,0,0.197,0,1.352,0.289
		c0.764,0.188,1.527,0.574,1.527,1.628c0,0.574-0.201,1.726,0.192,1.918c0.39,0.191,0.667-0.192,0.86-0.287
		c3.544-2.586,4.404,2.009,5.173,2.009c0.673,0,0.581-3.162,1.534-3.162c0.771-0.283,8.146,3.259,8.146,5.56
		c0,0.48-0.964,0.574-1.053,1.059c-0.096,0.669,1.725,0.956,1.432,2.201c-0.099,0.771-1.817,1.723-1.343,2.199
		c0.486,0.486,2.783-0.478,2.979-0.478c0.476,0,0.568,0.767,0.568,1.054c0,4.218-9.863,7.383-12.076,6.421
		c-0.672-0.285-0.756-2.395-1.143-2.395c-0.579,0-0.871,1.915-2.016,2.204c-1.149,0.189-2.87-1.248-3.355-0.866
		c-0.477,0.385,1.15,3.068-2.01,3.068c-0.771,0-0.771-0.864-0.771-1.536v-20.886H574.935z M548.692,729.993
		c0-13.222,19.547-20.786,20.88-27.495c1.443,1.343,1.634,3.541,1.634,5.458c0,8.047-13.987,21.557-13.987,31.331
		c0,1.051,0.092,1.344,0.092,2.018c0,0.95-0.379,1.146-0.57,1.146C554.435,742.448,548.692,737.946,548.692,729.993z
		 M546.102,754.237c0-1.536,1.156-2.107,2.2-2.107h16.967c2.102,0,2.97,0.666,2.97,2.871l0.088,29.319
		c0,0.955-9.966,1.249-10.343,0.572c-0.574-0.953-0.296-2.585-0.865-2.585c-0.285,0-1.818,2.301-2.685,2.301
		c-0.855,0-2.293-1.63-2.867-1.63c-0.388,0,0.381,2.297-0.388,3.256c-0.476,0.674-5.077,1.152-5.077,0.576V754.237L546.102,754.237z
		 M568.428,826.186c0,2.017-0.675,2.493-2.393,2.11l-18.296-3.645c-1.058-0.184-1.637-0.86-1.637-2.006v-33.15
		c0-0.859,2.973-0.955,3.448-0.572c0.866,0.765,0.579,3.543,1.153,3.543c0.764,0,2.777-3.352,3.639-3.352
		c1.821,0,3.067,1.05,3.445,0.857c0.384-0.189,0.384-1.723,0.867-2.111c0.673-0.473,2.681-0.473,3.732-0.571
		c1.725-0.097,4.887-0.382,4.887-0.382c1.25,0,1.152,0.865,1.152,2.683v36.596H568.428z"/>
</g>
<g>
	<path fill="#015084" d="M471.622,107.018c-23.741,0-42.98,19.242-42.98,42.982c0,23.736,19.239,42.982,42.98,42.982
		c23.737,0,42.983-19.246,42.983-42.982C514.605,126.26,495.359,107.018,471.622,107.018z M471.622,186.534
		c-20.177,0-36.534-16.357-36.534-36.534c0-20.175,16.357-36.533,36.534-36.533c20.173,0,36.534,16.358,36.534,36.533
		C508.156,170.177,491.795,186.534,471.622,186.534z"/>
	<path fill="#015084" d="M532.296,115.615h-4.554c-1.496,0-7.257,40.574-7.257,40.574c0,1.141,1.207,2.062,2.702,2.062h4.887v23.566
		c0,1.421,1.419,2.566,3.174,2.566h0.581c1.752,0,3.171-1.146,3.171-2.566v-25.629v-4.312v-34.201
		C535,116.539,533.794,115.615,532.296,115.615z"/>
	<path fill="#015084" d="M422.929,115.615c-1.101,0-1.993,0.891-1.993,1.993v15.082h-3.981v-15.082c0-1.103-0.894-1.993-1.991-1.993
		c-1.101,0-1.993,0.891-1.993,1.993v15.082h-3.981v-15.082c0-1.103-0.894-1.993-1.99-1.993c-1.102,0-1.996,0.891-1.996,1.993v17.217
		v1.373v0.049c0,1.176,0.955,2.133,2.133,2.133h3.844v43.835c0,1.202,0.934,2.171,2.079,2.171h3.807
		c1.153,0,2.082-0.969,2.082-2.171V138.38h3.84c1.181,0,2.139-0.957,2.139-2.133v-0.049v-1.373v-17.217
		C424.922,116.505,424.026,115.615,422.929,115.615z"/>
	<path fill="#015084" d="M471.622,119.912c-16.618,0-30.088,13.472-30.088,30.088c0,16.618,13.47,30.085,30.088,30.085
		S501.71,166.618,501.71,150C501.71,133.384,488.24,119.912,471.622,119.912z M471.622,179.014
		c-16.022,0-29.012-12.988-29.012-29.014c0-16.024,12.988-29.013,29.012-29.013c16.021,0,29.012,12.989,29.012,29.013
		C500.634,166.023,487.644,179.014,471.622,179.014z"/>
</g>
<path fill="#9BD8DB" d="M514.751,461.99c0.088-0.835,0.249-1.642,0.249-2.49c0-12.422-10.078-22.5-22.5-22.5
	c-3.721,0-7.17,0.988-10.254,2.578C477.515,429.229,467.129,422,455,422c-16.567,0-30,13.433-30,30c0,3.296,0.659,6.408,1.641,9.375
	C416.914,465.213,410,474.647,410,485.75c0,13.213,9.793,24.038,22.5,25.869V512h3.75h26.25h15h24.75h5.25v-0.381
	c12.707-1.831,22.5-12.656,22.5-25.869C530,475.188,523.73,466.15,514.751,461.99z"/>
<g>
	<path fill="#7CC253" d="M-168.956,450.965c4.973,0,9.004-4.03,9.004-9.003c0-0.079-0.021-0.149-0.021-0.229
		c0.742,0.123,1.494,0.229,2.273,0.229c2.435,0,4.686-0.696,6.661-1.822c3.302,3.839,8.138,6.323,13.598,6.323
		c9.945,0,18.009-8.062,18.009-18.009c0-9.945-8.063-18.008-18.009-18.008c-5.46,0-10.296,2.482-13.598,6.32
		c-1.976-1.124-4.227-1.819-6.661-1.819c-7.462,0-13.507,6.047-13.507,13.507c0,1.637,0.334,3.188,0.871,4.644
		c-4.313,0.668-7.624,4.361-7.624,8.864C-177.96,446.935-173.929,450.965-168.956,450.965z"/>
	<path fill="#7CC253" d="M-119.979,520.754c-9.289-7.284-17.154-16.283-23.086-26.549c-6.05-10.467-10.1-22.232-11.629-34.789
		h-14.263h-14.263c-1.53,12.557-5.579,24.322-11.629,34.789c-5.932,10.266-13.797,19.265-23.086,26.549H-240v2.8h140v-2.8H-119.979z
		 M-191.762,498.359c2.592-4.482,4.749-9.242,6.452-14.213v0.913h32.708v-0.913c1.703,4.971,3.859,9.729,6.451,14.213
		c4.2,7.271,9.529,13.782,15.694,19.408h-77C-201.292,512.143-195.963,505.632-191.762,498.359z"/>
</g>
<g>
	<path fill="#015084" d="M155,742v-16h-16v16h-32v104h80V742H155z M147,730c2.209,0,4,1.791,4,4s-1.791,4-4,4s-4-1.791-4-4
		S144.791,730,147,730z M183,842h-72v-96h28v12h16v-12h28V842z"/>
	<path fill="#015084" d="M147,766c-11.047,0-20,8.953-20,20s8.953,20,20,20s20-8.953,20-20S158.047,766,147,766z M147,802
		c-8.822,0-16-7.178-16-16s7.178-16,16-16c8.822,0,16,7.178,16,16S155.822,802,147,802z"/>
	<path fill="#015084" d="M131,814c-4.418,0-8,3.582-8,8v8h48v-8c0-4.418-3.582-8-8-8H131z"/>
</g>
<path fill="#015084" d="M177.818,776.301c-1.678,0.745-3.482,1.249-5.377,1.476c1.934-1.159,3.418-2.993,4.117-5.181
	c-1.811,1.072-3.813,1.854-5.947,2.272c-1.707-1.82-4.141-2.957-6.834-2.957c-5.17,0-9.362,4.192-9.362,9.362
	c0,0.733,0.082,1.448,0.242,2.134c-7.782-0.391-14.681-4.118-19.299-9.782c-0.807,1.383-1.269,2.991-1.269,4.707
	c0,3.248,1.653,6.114,4.166,7.793c-1.534-0.048-2.979-0.47-4.24-1.17c-0.001,0.039-0.002,0.078-0.002,0.117
	c0,4.537,3.228,8.32,7.512,9.182c-0.786,0.213-1.613,0.328-2.467,0.328c-0.604,0-1.19-0.059-1.762-0.169
	c1.191,3.721,4.649,6.428,8.746,6.503c-3.204,2.512-7.241,4.009-11.628,4.009c-0.756,0-1.502-0.045-2.234-0.131
	c4.144,2.656,9.065,4.206,14.353,4.206c17.224,0,26.641-14.267,26.641-26.64c0-0.406-0.009-0.812-0.025-1.214
	C174.977,779.828,176.562,778.18,177.818,776.301z"/>
</svg>
