<?xml version="1.0" encoding="utf-8"?>
<!-- Generator: Adobe Illustrator 16.0.0, SVG Export Plug-In . SVG Version: 6.00 Build 0)  -->
<!DOCTYPE svg PUBLIC "-//W3C//DTD SVG 1.1//EN" "http://www.w3.org/Graphics/SVG/1.1/DTD/svg11.dtd">
<svg version="1.1" id="Layer_1" xmlns="http://www.w3.org/2000/svg" xmlns:xlink="http://www.w3.org/1999/xlink" x="0px" y="0px"
	 width="300px" height="300px" viewBox="0 0 300 300" enable-background="new 0 0 300 300" xml:space="preserve">
<g>
	<path fill-rule="evenodd" clip-rule="evenodd" fill="#B18F6A" d="M-205.67,128.617c5.677,0,10.536,3.382,12.75,8.226
		c1.444-0.744,3.058-1.207,4.799-1.207c2.418,0,4.64,0.825,6.419,2.196c2.363-4.421,7.021-7.431,12.384-7.431
		c5.677,0,10.536,3.383,12.75,8.227c1.442-0.745,3.058-1.207,4.799-1.207c2.471,0,4.74,0.858,6.537,2.286
		c2.198-2.396,5.163-3.874,8.436-3.874c4.953,0,9.195,3.383,11.128,8.227c1.256-0.741,2.658-1.201,4.171-1.205v-22.588v-12.16
		h-9.729v12.16h-77.829v-12.16h-9.729v12.16v17.412C-216.774,132.386-211.668,128.617-205.67,128.617z"/>
	<polygon fill-rule="evenodd" clip-rule="evenodd" fill="#B18F6A" points="-114.729,143.25 -114.729,155.412 -225.271,155.412 
		-225.271,143.25 -235,143.25 -235,155.412 -235,179.733 -235,191.894 -225.271,191.894 -225.271,179.733 -114.729,179.733 
		-114.729,191.894 -105,191.894 -105,143.25 	"/>
</g>
<g>
	<defs>
		<rect id="SVGID_1_" x="400" y="716" width="140" height="140"/>
	</defs>
	<clipPath id="SVGID_2_">
		<use xlink:href="#SVGID_1_"  overflow="visible"/>
	</clipPath>
	<g clip-path="url(#SVGID_2_)">
		<path fill="#DD4231" d="M480.403,766.433c-3.759,0-6.807,3.047-6.807,6.807c0,3.759,3.048,6.806,6.807,6.806
			s6.806-3.047,6.806-6.806C487.209,769.479,484.162,766.433,480.403,766.433z M480.403,778.344c-2.818,0-5.104-2.285-5.104-5.104
			s2.286-5.104,5.104-5.104c2.819,0,5.105,2.285,5.105,5.104S483.223,778.344,480.403,778.344z"/>
		<circle fill="#DD4231" cx="480.456" cy="773.239" r="2.127"/>
		<path fill="#DD4231" d="M464.729,775.273l-2.034-2.034l2.034-2.034c0.936-0.936,0.936-2.454,0-3.39s-2.453-0.936-3.39,0
			l-2.033,2.034l-2.034-2.034c-0.938-0.936-2.454-0.936-3.392,0c-0.934,0.936-0.934,2.454,0,3.39l2.036,2.034l-2.036,2.034
			c-0.934,0.935-0.934,2.453,0,3.389c0.938,0.937,2.454,0.937,3.392,0l2.034-2.033l2.033,2.033c0.937,0.937,2.452,0.937,3.39,0
			C465.664,777.727,465.664,776.208,464.729,775.273z"/>
		<path fill="#DD4231" d="M455,786.17c-0.377,0-1,0.304-1,0.681v4.765c0,0.376,0.623,0.681,1,0.681s1-0.305,1-0.681v-4.765
			C456,786.474,455.377,786.17,455,786.17z"/>
		<path fill="#DD4231" d="M458,786.17c-0.375,0-1,0.304-1,0.681v4.765c0,0.376,0.625,0.681,1,0.681c0.377,0,1-0.305,1-0.681v-4.765
			C459,786.474,458.377,786.17,458,786.17z"/>
		<path fill="#DD4231" d="M460.5,786.17c-0.378,0-0.5,0.304-0.5,0.681v4.765c0,0.376,0.122,0.681,0.5,0.681
			c0.377,0,0.5-0.305,0.5-0.681v-4.765C461,786.474,460.877,786.17,460.5,786.17z"/>
		<path fill="#DD4231" d="M463.5,786.17c-0.376,0-0.5,0.304-0.5,0.681v4.765c0,0.376,0.124,0.681,0.5,0.681
			c0.377,0,0.5-0.305,0.5-0.681v-4.765C464,786.474,463.877,786.17,463.5,786.17z"/>
		<path fill="#DD4231" d="M466,786.17c-0.377,0-1,0.304-1,0.681v4.765c0,0.376,0.623,0.681,1,0.681c0.376,0,1-0.305,1-0.681v-4.765
			C467,786.474,466.376,786.17,466,786.17z"/>
		<path fill="#DD4231" d="M468.5,786.17c-0.377,0-0.5,0.304-0.5,0.681v4.765c0,0.376,0.123,0.681,0.5,0.681s0.5-0.305,0.5-0.681
			v-4.765C469,786.474,468.877,786.17,468.5,786.17z"/>
		<path fill="#DD4231" d="M471,786.17c-0.375,0-1,0.304-1,0.681v4.765c0,0.376,0.625,0.681,1,0.681c0.377,0,1-0.305,1-0.681v-4.765
			C472,786.474,471.377,786.17,471,786.17z"/>
		<path fill="#DD4231" d="M473.5,786.17c-0.377,0-0.5,0.304-0.5,0.681v4.765c0,0.376,0.123,0.681,0.5,0.681
			c0.375,0,0.5-0.305,0.5-0.681v-4.765C474,786.474,473.875,786.17,473.5,786.17z"/>
		<path fill="#DD4231" d="M476.5,786.17c-0.375,0-0.5,0.304-0.5,0.681v4.765c0,0.376,0.125,0.681,0.5,0.681
			c0.378,0,0.5-0.305,0.5-0.681v-4.765C477,786.474,476.878,786.17,476.5,786.17z"/>
		<path fill="#DD4231" d="M479,786.17c-0.377,0-1,0.304-1,0.681v4.765c0,0.376,0.623,0.681,1,0.681s1-0.305,1-0.681v-4.765
			C480,786.474,479.377,786.17,479,786.17z"/>
		<path fill="#DD4231" d="M482,786.17c-0.377,0-1,0.304-1,0.681v4.765c0,0.376,0.623,0.681,1,0.681s1-0.305,1-0.681v-4.765
			C483,786.474,482.377,786.17,482,786.17z"/>
		<path fill="#DD4231" d="M485,786.17c-0.375,0-1,0.304-1,0.681v4.765c0,0.376,0.625,0.681,1,0.681c0.377,0,1-0.305,1-0.681v-4.765
			C486,786.474,485.377,786.17,485,786.17z"/>
		<path fill="#DD4231" d="M510,772.558l-6-3.402V752.82c0-3.759-2.824-6.82-6.582-6.82H476.66l-0.681-3h5.785
			c1.128,0,2.042-1.373,2.042-2.5s-0.914-2.5-2.042-2.5h-6.466l-0.794-4h0.453c1.128,0,2.042-0.873,2.042-2s-0.914-2-2.042-2h-1.134
			l-0.228-1.861c0-3.76,0.355-10.459-3.402-10.459c-3.759,0-3.402,6.825-3.402,10.584L466.565,730h-1.135
			c-1.129,0-2.043,0.873-2.043,2s0.914,2,2.043,2h0.453l-0.794,4h-6.466c-1.128,0-2.041,1.373-2.041,2.5s0.913,2.5,2.041,2.5h5.786
			l-0.682,3h-20.758c-3.76,0-6.971,3.062-6.971,6.82v16.335l-7,3.402v13.612l7,3.403v17.695c0,3.759,3.211,6.731,6.971,6.731h54.447
			c3.758,0,6.582-2.973,6.582-6.731v-17.695l6-3.403V772.558z M497,765.753v27.224v7.486c0,3.759-2.629,7.537-6.389,7.537h-40.836
			c-3.758,0-7.775-3.778-7.775-7.537v-7.486v-27.224v-6.126c0-3.759,4.018-5.627,7.775-5.627h40.836c3.76,0,6.389,1.868,6.389,5.627
			V765.753z"/>
		<circle fill="#DD4231" cx="419.319" cy="834.833" r="10.209"/>
		<path fill="#DD4231" d="M421.675,852h-4.71c-4.339,0-7.965,3.135-7.965,7.749v17.321c0,4.614,3.626,8.93,7.965,8.93h4.71
			c4.338,0,7.325-4.315,7.325-8.93v-17.321C429,855.135,426.013,852,421.675,852z"/>
		<path fill="#DD4231" d="M453.179,952.388c-7.518,0-13.612,5.612-13.612,13.612h27.226
			C466.792,958,460.697,952.388,453.179,952.388z"/>
		<path fill="#DD4231" d="M462,904.806c0-3.759-3.048-6.806-6.807-6.806h-6.387c-3.759,0-6.807,3.047-6.807,6.806v34.389
			c0,3.759,3.048,6.806,6.807,6.806h6.387c3.759,0,6.807-3.047,6.807-6.806V904.806z"/>
		<circle fill="#DD4231" cx="521.07" cy="834.833" r="10.209"/>
		<path fill="#DD4231" d="M523.426,852h-4.712c-4.337,0-8.714,3.135-8.714,7.749v17.321c0,4.614,4.377,8.93,8.714,8.93h4.712
			c4.337,0,7.574-4.315,7.574-8.93v-17.321C531,855.135,527.763,852,523.426,852z"/>
		<path fill="#DD4231" d="M487.209,952.388c-7.516,0-13.612,5.612-13.612,13.612h27.225
			C500.821,958,494.728,952.388,487.209,952.388z"/>
		<path fill="#DD4231" d="M497,904.731c0-3.759-2.984-6.731-6.742-6.731h-6.602c-3.76,0-6.656,2.973-6.656,6.731v34.302
			c0,3.759,2.896,6.967,6.656,6.967h6.602c3.758,0,6.742-3.208,6.742-6.967V904.731z"/>
		<path fill="#DD4231" d="M524.643,893h-6.806c-3.76,0-7.837,2.146-7.837,5.905v6.807c0,3.759,3,6.806,7,6.806v-9.528
			c0-1.127,1.751-1.989,2.878-1.989h2.723c1.128,0,1.399,0.862,1.399,1.989v9.528c4,0,7-3.047,7-6.806v-6.807
			C531,895.146,528.401,893,524.643,893z"/>
		<path fill="#DD4231" d="M422.552,893h-6.807c-3.758,0-6.745,2.146-6.745,5.905v6.807c0,3.759,3,6.806,6,6.806v-9.528
			c0-1.127,1.661-1.989,2.788-1.989h2.723c1.127,0,1.489,0.862,1.489,1.989v9.528c5,0,7-3.047,7-6.806v-6.807
			C429,895.146,426.312,893,422.552,893z"/>
		<path fill="#DD4231" d="M497.92,823h-27.487h-27.485c-1.808,0-3.645-0.102-4.828,1.082c-1.187,1.186-2.119,1.986-2.119,3.793
			v27.485v27.486c0,1.808,0.933,3.749,2.119,4.932c1.184,1.186,3.021,2.222,4.828,2.222h27.485h27.487
			c1.808,0,3.212-1.036,4.396-2.222c1.183-1.183,1.684-3.124,1.684-4.932V855.36v-27.485c0-1.807-0.501-2.607-1.684-3.793
			C501.132,822.898,499.728,823,497.92,823z"/>
	</g>
</g>
<g>
	<defs>
		<rect id="SVGID_3_" x="75" y="75" width="150" height="150"/>
	</defs>
	<clipPath id="SVGID_4_">
		<use xlink:href="#SVGID_3_"  overflow="visible"/>
	</clipPath>
	<g clip-path="url(#SVGID_4_)">
		<g>
			<g>
				<path fill="#F7CAC9" d="M126.31,95.961l0.886-0.886C126.829,95.35,126.522,95.645,126.31,95.961z"/>
				<path fill="#F7CAC9" d="M127.402,94.869l-0.207,0.206c0.365-0.273,0.793-0.527,1.283-0.759c0.01-0.175,0.021-0.349,0.016-0.54
					L127.402,94.869z"/>
				<path fill="#F7CAC9" d="M173.359,95.075l0.888,0.886C174.032,95.645,173.727,95.35,173.359,95.075z"/>
				<path fill="#F7CAC9" d="M173.155,94.869l-1.094-1.092c-0.005,0.19,0.005,0.365,0.017,0.54c0.489,0.231,0.916,0.486,1.281,0.759
					L173.155,94.869z"/>
				<polyline fill="#F3776B" points="131.129,136.496 139.333,97.224 165.824,96.732 				"/>
				<polygon fill="#91A8CF" points="131.336,136.72 129.53,136.723 137.625,97.605 139.26,97.579 				"/>
				<polyline fill="#F3776B" points="133.917,144.443 136.843,131.021 158.432,114.435 				"/>
				<polygon fill="#91A8CF" points="133.978,144.791 132.247,145.387 134.775,132.449 136.987,130.838 				"/>
				<path fill="#DD4231" d="M156.373,171.169c0,13.348,10.358,12.319,14.153,12.319c3.791,0,1.465-10.264,1.465-23.611
					c0-13.347,1.526-23.315-1.465-24.724C166.966,133.481,156.373,157.821,156.373,171.169z"/>
				<path fill="#DD4231" d="M146.487,171.534c0,12.951-10.355,11.957-14.148,11.957s-3.312-10.162-1.466-22.912
					c2.138-14.817-2.327-23.991,1.466-23.991S146.487,158.584,146.487,171.534z"/>
				<path fill="#F7CAC9" stroke="#DDB5B4" stroke-width="0.7281" stroke-miterlimit="10" d="M204.246,481.847
					c-0.87-4.036-6.697-3.133-10.077-3.829c-4.072-0.841-7.88-2.89-11.258-4.934c-3.82-2.312-6.775-3.526-7.065-8.711
					c-0.022-0.461-0.152-0.954-0.254-1.435l0.026-1.737l2.27-151.521c1.269-0.159,2.556-0.297,3.878-0.406
					c0.572-11.282,0.108-22.783,0.108-34.113c0-11.585,3.194-30.695,0.158-42.392v-0.629c4.211,5.981,3.268,18.486,4.729,25.728
					c2.243,11.098,5.275,21.123,5.393,33.21c0.065,6.931,2.161,12.391,0.727,18.805c-1.268,5.667-4.975,11.545-6.807,16.386
					c-1.652,4.369-5.94,5.828-5.258,10.357c1.046,6.929,6.089,3.549,7.567-1.487c1.154-0.331,2.968-0.312,4.134-0.016
					c0.288,5.647,0.052,10.727-2.075,15.178c-1.861,3.897-6.417,9.176,1.983,8.575c11.061-0.788,11.86-21.25,11.849-29.69
					c-0.027-29.421-3.106-59.739-7.99-87.395c-1.075-6.08-1.483-13.714-4.913-19.152c-3.02-4.784-8.392-8.274-12.085-12.638
					c-1.027-1.591-2.496-2.836-3.425-4.455c-8.703-15.171-8.546-17.215-8.518-29.3l-0.088,0.036
					c0.368-6.369,1.139-12.822,2.482-16.609c2.445-6.908,5.565-13.465,7.91-19.986c1.09-3.025,1.738-7.182,1.972-11.422
					c0.229-4.24,0.043-8.565-0.532-11.931c-0.65-3.791,0.322-10.858-1.004-14.547c-1.264-3.515-4.608-3.97-4.824-7.47
					c-2.341-1.111-5.988-1.747-9.675-1.809c-5.159-0.09-10.371,0.941-12.124,3.339c-1.751-2.398-6.966-3.429-12.124-3.339
					c-3.687,0.062-7.334,0.697-9.674,1.809c-0.218,3.5-3.559,3.955-4.823,7.47c-1.328,3.688-0.354,10.756-1.004,14.547
					c-0.576,3.366-0.764,7.691-0.534,11.931c0.233,4.24,0.883,8.397,1.97,11.422c2.347,6.521,5.465,13.078,7.914,19.986
					c2.385,6.729,2.968,21.883,2.679,29.995c-1.037,3.937-3.173,8.246-7.549,15.878c-0.931,1.619-2.399,2.864-3.427,4.455
					c-3.692,4.363-9.065,7.854-12.085,12.638c-3.429,5.438-3.838,13.072-4.913,19.152c-4.884,27.655-7.961,57.974-7.991,87.395
					c-0.01,8.44,0.785,28.902,11.85,29.69c8.399,0.601,3.845-4.678,1.984-8.575c-2.124-4.451-2.363-9.53-2.073-15.178
					c1.164-0.296,2.979-0.315,4.13,0.016c1.478,5.036,6.522,8.416,7.569,1.487c0.682-4.529-3.604-5.988-5.256-10.357
					c-1.834-4.841-1.649-11.784-2.919-17.452c-1.435-6.414,0.629-13.366,0.695-20.297c0.117-12.089-0.71-19.554,1.534-30.651
					c1.461-7.241,0.518-19.746,4.729-25.728v0.629c-3.037,11.696,0.157,30.807,0.157,42.392c0,11.33-0.461,22.831,0.111,34.113
					c1.317,0.109,2.606,0.247,3.875,0.406l2.271,151.521l0.025,1.737c-0.103,0.48-0.229,0.974-0.255,1.435
					c-0.29,5.185-3.245,6.399-7.064,8.711c-3.377,2.044-7.186,4.093-11.256,4.934c-3.383,0.696-9.208-0.207-10.078,3.829
					c-1.201,5.584,4.313,4.604,7.902,5.151c2.027,0.311,3.552,1.074,5.691,1.16c2.369,0.093,4.914-0.148,7.214-0.48
					c4.79-0.688,9.677-0.725,14.635-1.225c4.321-0.436,11.199,1.116,12.13-3.859c1.094-5.835-2.304-11.257-1.7-16.766l0.051-3.054
					h0.019l-0.011-0.684l0.011-0.659c-0.005,0-0.014,0-0.019-0.002l-2.234-149.063c2.203,0.274,4.477,0.479,6.86,0.583v0.074
					c0.029,0,0.058,0,0.086,0c0.517,0,1.017-0.018,1.521-0.028c0.507,0.011,1.008,0.028,1.523,0.028c0.029,0,0.061,0,0.088,0v-0.074
					c2.386-0.104,4.657-0.309,6.859-0.583l-2.233,149.063c-0.007,0.002-0.014,0.002-0.021,0.002l0.01,0.659l-0.01,0.684h0.021
					l0.05,3.054c0.604,5.509-2.792,10.931-1.702,16.766c0.933,4.976,7.81,3.424,12.132,3.859c4.957,0.5,9.846,0.537,14.635,1.225
					c2.301,0.332,4.844,0.573,7.215,0.48c2.139-0.086,3.663-0.85,5.691-1.16C199.932,486.45,205.448,487.431,204.246,481.847z"/>
			</g>
			<circle fill="#B18F6A" cx="148.538" cy="133.584" r="1.184"/>
			<circle fill="#B18F6A" cx="153.544" cy="133.584" r="1.183"/>
			<rect x="143.805" y="144.029" fill="#FFFFFF" width="2.914" height="1.457"/>
			<rect x="147.629" y="144.029" fill="#FFFFFF" width="2.911" height="1.457"/>
			<rect x="155.636" y="143.973" fill="#FFFFFF" width="2.915" height="1.456"/>
			<rect x="151.814" y="143.973" fill="#FFFFFF" width="2.913" height="1.456"/>
			<path fill="none" stroke="#F3776B" stroke-width="0.7281" stroke-miterlimit="10" d="M161.915,143.272
				c-1.175-0.164-2.084,0.561-3.134,0.729c-0.787,0.126-1.707,0-2.508,0c-1.818,0-3.641,0-5.459,0h0.728c-1.82,0-3.641,0-5.462,0
				c-0.801,0-1.718,0.126-2.507,0c-1.048-0.167-1.961-0.893-3.135-0.729"/>
		</g>
		<polygon fill="#DD4231" points="182.871,244.738 163.574,244.738 144.9,245.194 126.257,245.194 106.93,244.738 108.606,234.21 
			111.147,222.622 122.159,211.064 129.395,201.499 142.148,211.662 155.723,222.485 169.296,233.305 		"/>
		<polygon fill="#015084" points="182.399,275.151 121.504,275.151 120.846,244.738 183.329,244.738 		"/>
		<polygon fill="#7CC253" points="181.938,319.626 167.092,319.626 152.245,319.626 141.993,319.626 121.957,309.273 
			121.931,308.733 121.671,297.389 121.749,286.337 121.044,275.151 137.398,275.16 152.245,275.16 167.092,275.16 181.938,275.16 
			181.938,286.275 181.938,297.394 181.938,308.51 		"/>
		<polygon fill="#DD4231" points="181.938,303.379 141.993,319.626 181.938,319.626 		"/>
		<rect x="155.27" y="319.626" fill="#F3776B" width="22.567" height="21.231"/>
		<rect x="155.27" y="340.714" fill="#FFFFFF" width="22.567" height="5.806"/>
		<rect x="155.27" y="346.796" fill="#015084" width="22.567" height="16.62"/>
		<rect x="155.27" y="363.457" fill="#F3776B" width="22.567" height="11.037"/>
		<rect x="155.27" y="374.347" fill="#FFFFFF" width="22.567" height="5.812"/>
		<rect x="155.27" y="379.914" fill="#F3776B" width="22.567" height="5.81"/>
		<rect x="155.27" y="385.271" fill="#7CC253" width="22.567" height="38.703"/>
		<rect x="155.27" y="423.974" fill="#015084" width="22.567" height="38.479"/>
		<polygon fill="#015084" points="116.731,275.16 99.307,275.068 106.93,244.738 121.044,244.738 		"/>
		<rect x="99.307" y="275.068" fill="#7CC253" width="17.425" height="44.558"/>
		<line fill="#91A8CF" x1="120.826" y1="244.738" x2="117.185" y2="247.896"/>
		<rect x="114.272" y="244.738" fill="#DD4231" width="8.011" height="3.157"/>
		<rect x="134.662" y="244.738" fill="#DD4231" width="8.009" height="3.157"/>
		<rect x="156.262" y="244.738" fill="#DD4231" width="8.01" height="3.157"/>
		<rect x="146.554" y="242.435" fill="#015084" width="5.946" height="3.152"/>
		<rect x="168.397" y="242.312" fill="#015084" width="5.946" height="3.155"/>
		<rect x="125.072" y="242.312" fill="#015084" width="5.947" height="3.155"/>
		<polygon fill="#015084" points="112.147,246.317 106.93,246.317 106.93,243.162 112.147,244.018 		"/>
		<polygon fill="#DD4231" points="182.871,248.623 177.864,247.896 177.864,243.162 183.6,244.738 		"/>
		<g>
			<polygon fill="#FFFFFF" points="139.472,251.706 129.355,242.97 118.506,251.706 107.66,243.162 107.846,239.966 
				118.506,247.966 129.355,239.228 139.472,247.966 150.32,239.228 161.165,247.966 172.018,239.228 182.871,248.623 
				182.871,251.706 172.745,242.97 161.894,251.706 150.32,242.97 			"/>
		</g>
		<rect x="123.344" y="272.317" fill="#7CC253" width="7.676" height="4.007"/>
		<rect x="144.825" y="272.317" fill="#7CC253" width="7.675" height="4.007"/>
		<rect x="166.485" y="272.317" fill="#7CC253" width="7.677" height="4.007"/>
		<rect x="133.993" y="273.683" fill="#015084" width="7.676" height="4.004"/>
		<rect x="155.607" y="273.683" fill="#015084" width="7.678" height="4.004"/>
		<rect x="101.045" y="271.681" fill="#7CC253" width="7.677" height="4.006"/>
		<polygon fill="#015084" points="116.731,277.767 112.147,277.232 111.283,273.683 116.731,273.683 		"/>
		<polygon fill="#FFFFFF" points="105.15,268.376 102.087,270.84 99.021,273.31 98.8,275.357 98.58,277.404 101.863,274.761 
			105.15,272.115 110.577,276.483 116.003,280.854 116.003,279.311 116.731,277.767 110.577,273.071 		"/>
		<polygon fill="#015084" points="182.098,278.315 177.135,276.96 175.681,271.681 182.098,271.681 		"/>
		<polygon fill="#FFFFFF" points="171.244,268.921 160.391,277.658 149.547,268.921 139.426,277.658 127.853,268.921 
			120.883,274.532 121.212,278.155 128.58,272.663 138.695,281.399 150.274,272.663 160.391,281.399 171.244,272.663 
			182.098,281.399 182.098,278.315 		"/>
		<polygon fill="#7CC253" points="163.688,427.319 161.143,427.319 159.474,421.415 165.145,421.415 		"/>
		<polygon fill="#7CC253" points="178.069,427.319 174.623,425.863 173.463,421.415 178.069,421.415 		"/>
		<polygon fill="#015084" points="155.321,420.037 158.272,422.815 159.812,428.049 155.281,428.049 		"/>
		<polygon fill="#015084" points="174.569,426.78 167.147,427.319 167.147,421.679 171.332,421.679 		"/>
		<g>
			<polygon fill="#FFFFFF" points="162.786,430.575 155.132,421.679 155.27,417.374 162.79,426.11 170.313,417.374 178.069,427.319 
				177.837,430.575 170.313,421.835 			"/>
		</g>
		<rect x="124.624" y="453.745" fill="#015084" width="24.369" height="5.312"/>
		
			<rect x="124.624" y="445.16" fill="#FFFFFF" stroke="#E6E7E8" stroke-width="0.5078" stroke-miterlimit="10" width="24.179" height="5.458"/>
		<polygon fill="#91A8CF" points="136.289,133.584 131.129,136.496 131.129,134.12 136.843,131.021 		"/>
		<circle fill="#FFFFFF" cx="164.557" cy="121.961" r="6.555"/>
		<polyline fill="#F3776B" points="131.932,136.255 140.135,96.984 166.627,96.491 		"/>
		<polygon fill="#91A8CF" points="132.137,136.479 130.33,136.484 138.427,97.366 140.062,97.337 		"/>
		<polyline fill="#F3776B" points="134.718,144.202 137.643,130.78 159.232,114.194 		"/>
		<polygon fill="#91A8CF" points="134.778,144.551 133.049,145.146 135.574,132.21 137.786,130.599 		"/>
		<circle fill="#FFFFFF" cx="137.251" cy="121.961" r="6.554"/>
		<circle fill="#91A8CF" cx="137.252" cy="121.847" r="2.549"/>
		<circle fill="#7CC253" cx="164.614" cy="121.847" r="4.005"/>
		<circle fill="#090A11" cx="164.615" cy="121.847" r="2.548"/>
		<circle fill="#090A11" cx="137.251" cy="121.847" r="0.728"/>
		<g>
			<path fill="#DD4231" d="M168.871,163.611c-0.052,0.207-0.089,0.385-0.106,0.516C168.805,163.977,168.839,163.801,168.871,163.611
				z"/>
			<path fill="#DD4231" d="M189.007,93.174c-2.146-4.222-9.822-6.726-13.774-10.142c-8.949-7.733-14.208-7.781-23.989-7.059
				c-9.778-0.722-15.037-0.675-23.988,7.059c-3.95,3.416-11.624,5.92-13.773,10.142c-2.26,4.446,0.032,15.138,0.577,19.814
				c0.722,6.186,4.12,11.814,5.354,18.219c1.175,6.098,4.373,12.031,6.651,17.683c0.569,1.41,2.099,6.432,3.077,7.77
				c1.007,1.374,2.362,1.524,2.768,2.293c0.436,0.831,1.7,4.185,1.815,5.173l0.671,0.373c-0.517-1.99-1.01-7.88-1.74-10.458
				c-2.596-9.187-2.294-5.477-3.282-11.945c-1.978-12.945-4.034-22.324,0.574-34.844c2.515-6.841,2.24-8.598,11.598-8.153
				c4.583,0.217,6.854,0.202,9.699,0.102c2.849,0.101,5.119,0.115,9.702-0.102c9.357-0.444,9.083,1.312,11.6,8.153
				c4.605,12.52,2.55,21.899,0.572,34.844c-0.988,6.468-0.686,2.758-3.283,11.945c-0.675,2.382-0.575,7.271-0.963,9.569
				c0.336-1.326,1.333-3.938,1.712-4.657c0.403-0.769,1.76-0.919,2.768-2.293c0.976-1.338,2.508-6.36,3.077-7.77
				c2.275-5.652,5.475-11.585,6.649-17.683c1.235-6.405,4.634-12.034,5.355-18.219C188.976,108.312,191.27,97.62,189.007,93.174z"/>
		</g>
	</g>
</g>
<path fill-rule="evenodd" clip-rule="evenodd" fill="#DD4231" d="M-110.964,808.542c-2.85-9.573-10.914-19.827-21.9-18.912
	c-2.373,0.198-4.811,0.923-6.84,2.221c-1.041,0.659-1.779,1.567-2.594,2.476c-0.732,0.812-1.729,2.761-2.768,3.119
	c-2.059,0.703-5.121-3.639-6.219-4.914c-2.094-2.41-4.109-4.908-6.035-7.472c-3.721-4.964-6.686-10.479-9.236-16.134
	c-1.188-2.616-1.844-5.376-2.482-8.174c-0.719-3.26-1.305-6.614-0.696-9.925c0.206-1.069,0.514-2.153-0.344-3.039
	c-0.77-0.82-1.825-0.558-2.762-0.975c-2.557-1.12-3.412-3.397-5.105-5.537c-3.435-4.351-7.866-7.815-13.176-9.544
	c-3.794-1.237-7.997-1.779-11.982-1.758c-4.453,0.008-8.985,0.06-13.344,1.041c-2.104,0.468-4.219,0.996-6.285,1.641
	c-1.706,0.527-4.271,0.841-5.522,2.21c-0.885,0.975-2.71,1.635-1.113,3.165c1.428,1.385,2.98,2.396,4.542,3.61
	c1.486,1.157,2.93,2.271,4.583,3.187c1.657,0.916,3.386,1.803,4.629,3.26c0.33,0.359,1.582,0.432,2.059,0.696
	c1.114,0.608,2.265,1.187,3.421,1.728c1.984,0.932,4.108,1.554,6.072,2.52c3.187,1.545,7.64,1.545,11.161,1.612
	c4.696,0.08,9.12-0.996,13.705-1.604c0.153,1.238-0.06,2.483-0.688,3.566c-0.622,1.085-1.649,1.767-2.154,2.916
	c-1.172,2.637-1.794,5.529-3.508,7.91c-0.652,0.96-0.937,2.637-1.319,3.75c-0.483,1.392-0.929,2.798-1.311,4.219
	c-0.38,1.473-0.683,2.943-0.776,4.453c-0.087,1.442-0.571,2.74-0.717,4.146c-0.045,0.681,0.211,0.834,0.108,1.617
	c-0.087,0.806-0.183,1.605-0.262,2.402c-0.17,1.619-0.315,3.236-0.455,4.849c-0.168,1.823,0.293,5.961-2.073,6.628
	c-1.104,0.308-1.926-0.256-2.974-0.344c-1.516-0.132-3.003-0.189-4.526,0.037c-2.943,0.445-5.537,1.099-7.911,3.003
	c-8.583,6.928-7.404,22.594-1.391,30.798c3.157,4.314,8.262,7.765,13.638,8.468c5.81,0.754,11.479,1.252,16.699-1.847
	c4.205-2.498,7.185-6.489,8.979-10.986c2.042-5.112,3.464-11.366,1.816-16.779c-1.539-5.031-5.119-9.214-10.165-10.877
	c-2.358-0.783-4.863-0.931-7.296-0.616c-2.892,0.383-3.025-0.563-2.936-3.331c0.357-12.399,3.272-25.284,9.945-35.853
	c0.769-1.224,1.589-2.402,2.46-3.537c0.938-1.225,1.297-1.567,2.352-0.206c1.686,2.204,1.752,5.516,2.659,8.072
	c2.022,5.646,4.695,11.029,7.875,16.113c3.023,4.818,6.744,9.316,10.592,13.499c0.848,0.93,1.719,1.844,2.6,2.738
	c1.141,1.15,1.33,1.517,0.424,2.856c-1.055,1.538-3.004,2.337-4.336,3.604c-7.771,7.39-3.604,17.688,2.688,24.493
	c3.199,3.463,7.391,6.158,11.93,7.506c5.332,1.598,10.834,0.309,15.711-2.044c4.373-2.101,7.992-5.44,10.635-9.491
	C-109.683,819.844-109.31,814.094-110.964,808.542C-112.386,803.767-109.353,813.963-110.964,808.542z"/>
<g id="layer1" transform="translate(-407.50579,-298.09886)">
	<path id="path2384" fill="#F3776B" d="M539.363,810.853c-0.017,1.964-1.498,1.825-1.498,1.825c-1.531,0-2.494-3.062-2.873-2.968
		c-0.483,0.096,0.096,2.584-0.483,2.968c-0.476,0.478-10.637-4.216-11.396-4.978c-0.676-0.675,0.287-1.632,0-2.306
		c-0.197-0.571-1.736-0.385-2.203-0.667c-0.394-0.386,0.467-2.11-0.096-2.498c-0.487-0.278-1.533,1.731-2.205,0.769
		c-0.299-0.381-0.384-1.047-0.384-1.914c0-5.845,6.224-8.236,10.448-9.68c1.716-0.57,1.137,1.634,1.716,1.731
		c0.674,0.19,0.766-1.06,1.535-1.06c0.579,0,2.783,1.06,3.255,0.675c0.389-0.287-1.146-1.728-0.671-2.302
		c0.579-0.479,4.838-1.646,4.872-0.388 M574.935,748.58c0-1.626-1.146-2.871-2.384-2.871H562.2c-2.872,0-2.688-2.111-2.688-2.587
		c0-12.744,18.496-14.851,18.496-31.522c0-7.28-4.595-12.17-9.961-16.481c-0.294-0.191,0,1.054,0,1.538
		c0,7.758-28.837,11.783-28.837,29.702c0,15.611,15.516,16.285,15.516,18.682c0,0.478-0.952,0.669-1.053,0.669h-11.881
		c-1.246,0-2.395,1.245-2.395,2.871v9.585c-1.155,0.386-2.584-1.345-3.357-1.345c-0.378,0-0.182,2.974-0.86,3.354
		c-0.575,0.287-11.394,4.122-12.36,4.218c-1.528,0.288-1.146-2.396-2.005-2.396c-0.772,0-0.772,2.685-2.691,2.685
		c-1.144,0-2.099-1.057-2.96-1.057c-0.576,0,1.24,2.207,1.24,2.876c0,1.819-3.543,2.483-3.543,3.737
		c0,0.664,3.355-0.292,3.834-0.292c1.721,0,1.531,2.016,2.194,2.016c0.675,0,1.153-2.303,1.73-2.681
		c1.147-0.676,2.494,0.474,3.064,0.474c0.962,0-0.768-2.298,0.103-2.685c0,0,11.685-4.978,12.445-4.601
		c0.671,0.39,0.582,1.537,1.347,1.921c0.766,0.385,1.915-2.683,1.915-0.768v23.477c-1.343,0.86-4.216,1.341-5.752,1.341
		c-0.763,0-0.381-2.489-0.858-2.489c-0.772,0-1.541,2.104-2.685,2.104c-1.053,0-2.587-2.582-3.639-2.582
		c-0.67,0,1.241,3.252,0.093,3.827c-4.406,2.207-11.397,4.308-11.397,11.31c0,1.437,0.77,3.158,0.477,3.635
		c-0.285,0.67-1.814,2.016-1.73,2.59c0,0.573,2.879,0.382,3.46,1.248c0.28,0.475,0.479,2.587,1.055,2.587
		c0.476,0,1.718-1.634,2.775-1.054c3.354,2.015,9.194,4.212,11.879,5.648c0.665,0.388,0.284,2.491,0.665,2.682
		c0.77,0.39,2.301-2.01,4.703-0.667c0.482,0.191,0.831,0.657,0.831,1.521v7.839c-0.006,1.644,0.794,2.04,1.563,2.231l28.55,5.845
		c0,0,2.108,0.384,2.967,0.384c1.06,0,2.489-0.436,2.489-2.544l-0.042-17.448c0-0.186,0.135-0.698,0.418-0.698
		c1.538-0.143,1.161,4.785,1.542,4.785c0.757,0,1.249-3.258,2.203-3.258c1.343,0,2.215,1.246,2.778,0.959
		c0.48-0.287-0.28-1.824-0.28-2.781c0-0.861,2.483-1.243,5.556-2.387c2.68-0.962,4.885-2.017,5.748-2.017
		c0.666,0,1.142,1.817,1.723,1.817c0.477,0,0.574-2.394,1.63-2.394c0.859,0,2.772,1.338,3.258,0.957
		c0.383-0.285-0.956-2.109,0.096-2.875c0.766-0.478,2.584-1.625,2.584-2.107c0-0.285-3.545-0.381-3.734-0.381
		c-0.672-0.194-1.438-2.302-1.925-2.302c-0.561,0-0.561,2.107-1.432,2.782c-0.768,0.567-2.68-2.014-3.538-2.014
		c-0.485,0,0.571,1.914,0.571,3.447c0,1.535-9.29,4.505-10.536,4.505c-1.917,0-2.019-2.393-2.404-2.393
		c-0.565,0-0.479,2.876-2.866,2.876c-1.062,0-1.352-0.579-1.352-1.158v-22.991c0-0.671,0.198-1.728,1.444-1.728
		c1.726,0,1.726,3.451,2.295,3.451c1.06,0,1.637-3.544,3.644-3.544c1.529,0,2.777,2.111,3.735,2.111
		c0.674,0-1.146-2.203-1.146-3.261c0-1.051,9.486-0.67,13.129-7.093c1.051-1.818,1.051-4.019,1.436-4.883
		c0.567-0.959,2.68-0.772,2.68-1.437c0-0.287-1.53-0.671-2.112-1.052c-1.144-0.67-0.758-4.123-1.332-4.123
		c-0.862,0-1.728,2.396-2.591,1.341c-1.532-1.915-7.855-5.558-10.729-6.611c-1.058-0.383,0.769-3.544,0.289-3.835
		c-0.479-0.287-1.731,1.92-3.554,1.537c-1.436-0.287-0.759-2.876-1.525-2.876c-0.389,0-1.829,3.643-2.88,3.356
		c-1.148-0.288-2.782-0.575-2.782-0.575V748.58L574.935,748.58z M574.935,761.133c0,0,0.198,0,1.352,0.289
		c0.764,0.188,1.528,0.574,1.528,1.628c0,0.574-0.202,1.726,0.192,1.918c0.39,0.191,0.667-0.192,0.86-0.287
		c3.544-2.586,4.405,2.009,5.173,2.009c0.673,0,0.581-3.162,1.534-3.162c0.771-0.284,8.147,3.258,8.147,5.559
		c0,0.481-0.964,0.574-1.053,1.059c-0.096,0.669,1.724,0.956,1.432,2.201c-0.099,0.771-1.818,1.723-1.343,2.199
		c0.486,0.486,2.783-0.477,2.98-0.477c0.475,0,0.567,0.766,0.567,1.053c0,4.218-9.863,7.383-12.076,6.421
		c-0.672-0.285-0.755-2.394-1.142-2.394c-0.579,0-0.871,1.915-2.015,2.204c-1.15,0.189-2.871-1.248-3.356-0.866
		c-0.477,0.384,1.15,3.068-2.01,3.068c-0.772,0-0.772-0.864-0.772-1.536V761.133L574.935,761.133z M548.692,729.993
		c0-13.221,19.547-20.786,20.88-27.495c1.444,1.343,1.634,3.541,1.634,5.458c0,8.047-13.987,21.557-13.987,31.331
		c0,1.051,0.092,1.344,0.092,2.018c0,0.95-0.379,1.145-0.57,1.145C554.435,742.449,548.692,737.946,548.692,729.993z
		 M546.102,754.237c0-1.537,1.156-2.108,2.2-2.108h16.967c2.102,0,2.97,0.666,2.97,2.871l0.088,29.32
		c0,0.955-9.965,1.249-10.343,0.572c-0.574-0.953-0.296-2.585-0.865-2.585c-0.285,0-1.818,2.301-2.685,2.301
		c-0.855,0-2.293-1.63-2.867-1.63c-0.388,0,0.381,2.297-0.388,3.256c-0.476,0.673-5.077,1.152-5.077,0.576V754.237z
		 M568.428,826.186c0,2.016-0.675,2.493-2.393,2.11l-18.296-3.644c-1.058-0.184-1.637-0.861-1.637-2.006v-33.151
		c0-0.859,2.973-0.955,3.448-0.572c0.866,0.765,0.579,3.543,1.153,3.543c0.764,0,2.777-3.352,3.639-3.352
		c1.821,0,3.067,1.05,3.445,0.858c0.384-0.189,0.384-1.723,0.868-2.111c0.672-0.473,2.68-0.473,3.732-0.572
		c1.724-0.096,4.887-0.381,4.887-0.381c1.25,0,1.152,0.865,1.152,2.682V826.186z"/>
</g>
<g>
	<path fill-rule="evenodd" clip-rule="evenodd" fill="#015084" d="M471.622,107.018c-23.741,0-42.98,19.242-42.98,42.982
		c0,23.737,19.239,42.982,42.98,42.982c23.737,0,42.983-19.245,42.983-42.982C514.605,126.26,495.359,107.018,471.622,107.018z
		 M471.622,186.534c-20.177,0-36.534-16.357-36.534-36.534c0-20.175,16.357-36.533,36.534-36.533
		c20.173,0,36.534,16.358,36.534,36.533C508.156,170.177,491.795,186.534,471.622,186.534z"/>
	<path fill-rule="evenodd" clip-rule="evenodd" fill="#015084" d="M532.296,115.615h-4.554c-1.496,0-7.257,40.575-7.257,40.575
		c0,1.14,1.207,2.062,2.702,2.062h4.887v23.566c0,1.421,1.419,2.567,3.174,2.567h0.581c1.752,0,3.171-1.146,3.171-2.567v-25.629
		v-4.311v-34.201C535,116.539,533.794,115.615,532.296,115.615z"/>
	<path fill-rule="evenodd" clip-rule="evenodd" fill="#015084" d="M422.929,115.615c-1.101,0-1.993,0.891-1.993,1.993v15.082h-3.982
		v-15.082c0-1.103-0.893-1.993-1.991-1.993c-1.101,0-1.993,0.891-1.993,1.993v15.082h-3.982v-15.082c0-1.103-0.893-1.993-1.99-1.993
		c-1.101,0-1.996,0.891-1.996,1.993v17.217v1.373v0.049c0,1.176,0.955,2.133,2.133,2.133h3.844v43.835
		c0,1.202,0.933,2.171,2.079,2.171h3.806c1.154,0,2.082-0.969,2.082-2.171v-43.835h3.84c1.181,0,2.139-0.957,2.139-2.133v-0.049
		v-1.373v-17.217C424.922,116.505,424.026,115.615,422.929,115.615z"/>
	<path fill-rule="evenodd" clip-rule="evenodd" fill="#015084" d="M471.622,119.912c-16.618,0-30.088,13.472-30.088,30.088
		c0,16.618,13.47,30.085,30.088,30.085S501.71,166.618,501.71,150C501.71,133.384,488.24,119.912,471.622,119.912z M471.622,179.013
		c-16.022,0-29.012-12.988-29.012-29.013c0-16.024,12.989-29.013,29.012-29.013c16.021,0,29.012,12.989,29.012,29.013
		C500.634,166.024,487.644,179.013,471.622,179.013z"/>
</g>
<path fill-rule="evenodd" clip-rule="evenodd" fill="#9BD8DB" d="M514.751,461.99c0.088-0.835,0.249-1.641,0.249-2.49
	c0-12.422-10.078-22.5-22.5-22.5c-3.721,0-7.17,0.988-10.254,2.578C477.515,429.229,467.129,422,455,422c-16.567,0-30,13.433-30,30
	c0,3.296,0.659,6.408,1.641,9.375C416.914,465.213,410,474.646,410,485.75c0,13.213,9.793,24.038,22.5,25.869V512h3.75h26.25h15
	h24.75h5.25v-0.381c12.707-1.831,22.5-12.656,22.5-25.869C530,475.188,523.73,466.15,514.751,461.99z"/>
<g>
	<path fill="#7CC253" d="M-168.956,450.965c4.973,0,9.004-4.03,9.004-9.003c0-0.079-0.021-0.15-0.021-0.229
		c0.742,0.123,1.494,0.229,2.273,0.229c2.435,0,4.686-0.696,6.661-1.822c3.302,3.839,8.138,6.323,13.598,6.323
		c9.945,0,18.009-8.062,18.009-18.009c0-9.945-8.063-18.008-18.009-18.008c-5.46,0-10.296,2.483-13.598,6.321
		c-1.976-1.124-4.227-1.82-6.661-1.82c-7.462,0-13.507,6.047-13.507,13.507c0,1.637,0.334,3.188,0.871,4.644
		c-4.313,0.668-7.624,4.361-7.624,8.864C-177.96,446.935-173.929,450.965-168.956,450.965z"/>
	<path fill="#7CC253" d="M-119.979,520.754c-9.289-7.284-17.154-16.283-23.086-26.549c-6.05-10.467-10.1-22.232-11.629-34.789
		h-14.263h-14.263c-1.53,12.557-5.579,24.322-11.629,34.789c-5.932,10.266-13.797,19.265-23.086,26.549H-240v2.8h140v-2.8H-119.979z
		 M-191.762,498.359c2.592-4.482,4.749-9.242,6.452-14.213v0.914h32.708v-0.914c1.703,4.971,3.859,9.73,6.451,14.213
		c4.2,7.272,9.529,13.783,15.694,19.409h-77C-201.292,512.143-195.963,505.632-191.762,498.359z"/>
</g>
<g>
	<path fill="#015084" d="M155,742v-16h-16v16h-32v104h80V742H155z M147,730c2.209,0,4,1.791,4,4s-1.791,4-4,4s-4-1.791-4-4
		S144.791,730,147,730z M183,842h-72v-96h28v12h16v-12h28V842z"/>
	<path fill="#015084" d="M147,766c-11.047,0-20,8.953-20,20s8.953,20,20,20s20-8.953,20-20S158.047,766,147,766z M147,802
		c-8.822,0-16-7.178-16-16s7.178-16,16-16s16,7.178,16,16S155.822,802,147,802z"/>
	<path fill="#015084" d="M131,814c-4.418,0-8,3.582-8,8v8h48v-8c0-4.418-3.582-8-8-8H131z"/>
</g>
<path fill="#015084" d="M177.819,776.301c-1.679,0.745-3.483,1.249-5.378,1.475c1.934-1.159,3.418-2.993,4.117-5.18
	c-1.81,1.072-3.813,1.853-5.946,2.272c-1.707-1.82-4.142-2.957-6.835-2.957c-5.17,0-9.362,4.192-9.362,9.362
	c0,0.734,0.082,1.449,0.242,2.134c-7.782-0.39-14.681-4.118-19.299-9.782c-0.807,1.383-1.269,2.991-1.269,4.707
	c0,3.248,1.653,6.114,4.166,7.793c-1.534-0.048-2.979-0.47-4.24-1.17c-0.001,0.039-0.002,0.078-0.002,0.117
	c0,4.537,3.228,8.321,7.512,9.182c-0.786,0.213-1.613,0.328-2.467,0.328c-0.604,0-1.19-0.059-1.762-0.169
	c1.191,3.721,4.649,6.428,8.746,6.503c-3.204,2.512-7.241,4.009-11.628,4.009c-0.756,0-1.502-0.045-2.234-0.131
	c4.144,2.656,9.065,4.206,14.353,4.206c17.224,0,26.641-14.267,26.641-26.64c0-0.406-0.009-0.811-0.026-1.213
	C174.977,779.828,176.563,778.18,177.819,776.301z"/>
</svg>
