<?xml version="1.0" encoding="utf-8"?>
<!-- Generator: Adobe Illustrator 16.0.0, SVG Export Plug-In . SVG Version: 6.00 Build 0)  -->
<!DOCTYPE svg PUBLIC "-//W3C//DTD SVG 1.1//EN" "http://www.w3.org/Graphics/SVG/1.1/DTD/svg11.dtd">
<svg version="1.1" id="Layer_1" xmlns="http://www.w3.org/2000/svg" xmlns:xlink="http://www.w3.org/1999/xlink" x="0px" y="0px"
	 width="300px" height="300px" viewBox="0 0 300 300" enable-background="new 0 0 300 300" xml:space="preserve">
<g>
	<path fill="#B18F6A" d="M100.611,120.393c7.86,0,14.588,4.682,17.654,11.389c2-1.03,4.234-1.671,6.645-1.671
		c3.348,0,6.425,1.143,8.888,3.041c3.272-6.121,9.722-10.289,17.147-10.289c7.86,0,14.588,4.685,17.653,11.391
		c1.997-1.031,4.234-1.671,6.645-1.671c3.423,0,6.563,1.188,9.051,3.165c3.045-3.317,7.151-5.364,11.682-5.364
		c6.858,0,12.731,4.684,15.408,11.392c1.738-1.027,3.681-1.664,5.775-1.669v-31.275V91.994h-13.472v16.837H95.923V91.994H82.453
		v16.837v24.109C85.236,125.611,92.306,120.393,100.611,120.393z"/>
	<polygon fill="#B18F6A" points="226.53,140.654 226.53,157.494 73.471,157.494 73.471,140.654 60,140.654 60,157.494 60,191.168 
		60,208.008 73.471,208.008 73.471,191.168 226.53,191.168 226.53,208.008 240,208.008 240,140.654 	"/>
</g>
<g>
	<g>
		<defs>
			<rect id="SVGID_1_" x="720" y="716" width="140" height="140"/>
		</defs>
		<clipPath id="SVGID_2_">
			<use xlink:href="#SVGID_1_"  overflow="visible"/>
		</clipPath>
		<g clip-path="url(#SVGID_2_)">
			<path fill="#DD4231" d="M800.403,766.433c-3.759,0-6.808,3.048-6.808,6.808c0,3.759,3.048,6.806,6.808,6.806
				c3.759,0,6.806-3.047,6.806-6.806C807.209,769.479,804.162,766.433,800.403,766.433z M800.403,778.344
				c-2.818,0-5.104-2.285-5.104-5.104c0-2.819,2.286-5.104,5.104-5.104s5.104,2.285,5.104,5.104
				C805.508,776.059,803.223,778.344,800.403,778.344z"/>
			<circle fill="#DD4231" cx="800.456" cy="773.239" r="2.127"/>
			<path fill="#DD4231" d="M784.729,775.273l-2.033-2.034l2.033-2.034c0.937-0.936,0.937-2.454,0-3.39
				c-0.936-0.937-2.452-0.937-3.39,0l-2.033,2.033l-2.034-2.033c-0.938-0.937-2.453-0.937-3.392,0c-0.934,0.936-0.934,2.453,0,3.39
				l2.036,2.034l-2.036,2.034c-0.934,0.935-0.934,2.452,0,3.389c0.938,0.937,2.454,0.937,3.392,0l2.034-2.033l2.033,2.033
				c0.938,0.937,2.452,0.937,3.39,0C785.664,777.727,785.664,776.208,784.729,775.273z"/>
			<path fill="#DD4231" d="M775,786.17c-0.377,0-1,0.304-1,0.681v4.766c0,0.376,0.623,0.681,1,0.681s1-0.305,1-0.681v-4.766
				C776,786.474,775.377,786.17,775,786.17z"/>
			<path fill="#DD4231" d="M778,786.17c-0.375,0-1,0.304-1,0.681v4.766c0,0.376,0.625,0.681,1,0.681c0.377,0,1-0.305,1-0.681v-4.766
				C779,786.474,778.377,786.17,778,786.17z"/>
			<path fill="#DD4231" d="M780.5,786.17c-0.378,0-0.5,0.304-0.5,0.681v4.766c0,0.376,0.122,0.681,0.5,0.681
				c0.377,0,0.5-0.305,0.5-0.681v-4.766C781,786.474,780.877,786.17,780.5,786.17z"/>
			<path fill="#DD4231" d="M783.5,786.17c-0.376,0-0.5,0.304-0.5,0.681v4.766c0,0.376,0.124,0.681,0.5,0.681
				c0.377,0,0.5-0.305,0.5-0.681v-4.766C784,786.474,783.877,786.17,783.5,786.17z"/>
			<path fill="#DD4231" d="M786,786.17c-0.377,0-1,0.304-1,0.681v4.766c0,0.376,0.623,0.681,1,0.681c0.376,0,1-0.305,1-0.681v-4.766
				C787,786.474,786.376,786.17,786,786.17z"/>
			<path fill="#DD4231" d="M788.5,786.17c-0.377,0-0.5,0.304-0.5,0.681v4.766c0,0.376,0.123,0.681,0.5,0.681s0.5-0.305,0.5-0.681
				v-4.766C789,786.474,788.877,786.17,788.5,786.17z"/>
			<path fill="#DD4231" d="M791,786.17c-0.375,0-1,0.304-1,0.681v4.766c0,0.376,0.625,0.681,1,0.681c0.377,0,1-0.305,1-0.681v-4.766
				C792,786.474,791.377,786.17,791,786.17z"/>
			<path fill="#DD4231" d="M793.5,786.17c-0.377,0-0.5,0.304-0.5,0.681v4.766c0,0.376,0.123,0.681,0.5,0.681
				c0.375,0,0.5-0.305,0.5-0.681v-4.766C794,786.474,793.875,786.17,793.5,786.17z"/>
			<path fill="#DD4231" d="M796.5,786.17c-0.375,0-0.5,0.304-0.5,0.681v4.766c0,0.376,0.125,0.681,0.5,0.681
				c0.378,0,0.5-0.305,0.5-0.681v-4.766C797,786.474,796.878,786.17,796.5,786.17z"/>
			<path fill="#DD4231" d="M799,786.17c-0.377,0-1,0.304-1,0.681v4.766c0,0.376,0.623,0.681,1,0.681s1-0.305,1-0.681v-4.766
				C800,786.474,799.377,786.17,799,786.17z"/>
			<path fill="#DD4231" d="M802,786.17c-0.377,0-1,0.304-1,0.681v4.766c0,0.376,0.623,0.681,1,0.681s1-0.305,1-0.681v-4.766
				C803,786.474,802.377,786.17,802,786.17z"/>
			<path fill="#DD4231" d="M805,786.17c-0.375,0-1,0.304-1,0.681v4.766c0,0.376,0.625,0.681,1,0.681c0.377,0,1-0.305,1-0.681v-4.766
				C806,786.474,805.377,786.17,805,786.17z"/>
			<path fill="#DD4231" d="M830,772.558l-6-3.401V752.82c0-3.76-2.824-6.82-6.582-6.82H796.66l-0.682-3h5.785
				c1.128,0,2.042-1.373,2.042-2.5s-0.914-2.5-2.042-2.5h-6.466l-0.794-4h0.453c1.128,0,2.042-0.873,2.042-2s-0.914-2-2.042-2
				h-1.134l-0.229-1.861c0-3.76,0.355-10.459-3.401-10.459c-3.76,0-3.402,6.825-3.402,10.584L786.565,730h-1.136
				c-1.129,0-2.043,0.873-2.043,2s0.914,2,2.043,2h0.453l-0.794,4h-6.466c-1.128,0-2.041,1.373-2.041,2.5s0.913,2.5,2.041,2.5h5.786
				l-0.683,3h-20.758c-3.76,0-6.971,3.062-6.971,6.82v16.335l-7,3.401v13.612l7,3.403v17.694c0,3.76,3.211,6.731,6.971,6.731h54.447
				c3.758,0,6.582-2.973,6.582-6.731v-17.694l6-3.403v-13.611H830z M817,765.753v27.224v7.486c0,3.759-2.629,7.537-6.389,7.537
				h-40.836c-3.759,0-7.775-3.778-7.775-7.537v-7.486v-27.224v-6.126c0-3.759,4.018-5.627,7.775-5.627h40.836
				c3.76,0,6.389,1.868,6.389,5.627V765.753z"/>
			<circle fill="#DD4231" cx="739.319" cy="834.833" r="10.209"/>
			<path fill="#DD4231" d="M741.675,852h-4.71c-4.339,0-7.965,3.135-7.965,7.749v17.321c0,4.613,3.626,8.93,7.965,8.93h4.71
				c4.338,0,7.325-4.315,7.325-8.93v-17.321C749,855.135,746.013,852,741.675,852z"/>
			<path fill="#DD4231" d="M773.179,952.388c-7.518,0-13.611,5.612-13.611,13.612h27.226
				C786.792,958,780.697,952.388,773.179,952.388z"/>
			<path fill="#DD4231" d="M782,904.806c0-3.759-3.048-6.806-6.807-6.806h-6.388c-3.759,0-6.807,3.047-6.807,6.806v34.39
				c0,3.759,3.048,6.806,6.807,6.806h6.388c3.759,0,6.807-3.047,6.807-6.806V904.806z"/>
			<circle fill="#DD4231" cx="841.07" cy="834.833" r="10.209"/>
			<path fill="#DD4231" d="M843.426,852h-4.712c-4.337,0-8.714,3.135-8.714,7.749v17.321c0,4.613,4.377,8.93,8.714,8.93h4.712
				c4.337,0,7.574-4.315,7.574-8.93v-17.321C851,855.135,847.763,852,843.426,852z"/>
			<path fill="#DD4231" d="M807.209,952.388c-7.516,0-13.612,5.612-13.612,13.612h27.226
				C820.821,958,814.729,952.388,807.209,952.388z"/>
			<path fill="#DD4231" d="M817,904.731c0-3.76-2.984-6.731-6.742-6.731h-6.602c-3.76,0-6.656,2.973-6.656,6.731v34.302
				c0,3.759,2.896,6.967,6.656,6.967h6.602c3.758,0,6.742-3.208,6.742-6.967V904.731z"/>
			<path fill="#DD4231" d="M844.643,893h-6.806c-3.76,0-7.837,2.146-7.837,5.905v6.807c0,3.759,3,6.806,7,6.806v-9.527
				c0-1.127,1.751-1.989,2.878-1.989h2.723c1.128,0,1.399,0.862,1.399,1.989v9.527c4,0,7-3.047,7-6.806v-6.807
				C851,895.146,848.401,893,844.643,893z"/>
			<path fill="#DD4231" d="M742.552,893h-6.807c-3.758,0-6.745,2.146-6.745,5.905v6.807c0,3.759,3,6.806,6,6.806v-9.527
				c0-1.127,1.661-1.989,2.788-1.989h2.723c1.127,0,1.489,0.862,1.489,1.989v9.527c5,0,7-3.047,7-6.806v-6.807
				C749,895.146,746.312,893,742.552,893z"/>
			<path fill="#DD4231" d="M817.92,823h-27.487h-27.484c-1.809,0-3.646-0.102-4.828,1.082c-1.188,1.186-2.119,1.986-2.119,3.793
				v27.485v27.485c0,1.809,0.933,3.749,2.119,4.933c1.184,1.186,3.021,2.222,4.828,2.222h27.484h27.487
				c1.808,0,3.212-1.036,4.396-2.222c1.183-1.184,1.684-3.124,1.684-4.933V855.36v-27.485c0-1.807-0.501-2.607-1.684-3.793
				C821.132,822.898,819.729,823,817.92,823z"/>
		</g>
	</g>
</g>
<g>
	<g>
		<defs>
			<rect id="SVGID_3_" x="395" y="75" width="150" height="150"/>
		</defs>
		<clipPath id="SVGID_4_">
			<use xlink:href="#SVGID_3_"  overflow="visible"/>
		</clipPath>
		<g clip-path="url(#SVGID_4_)">
			<g>
				<g>
					<path fill="#F7CAC9" d="M446.31,95.961l0.887-0.886C446.829,95.35,446.522,95.645,446.31,95.961z"/>
					<path fill="#F7CAC9" d="M447.402,94.869l-0.207,0.206c0.364-0.273,0.793-0.527,1.282-0.759c0.011-0.175,0.021-0.349,0.017-0.54
						L447.402,94.869z"/>
					<path fill="#F7CAC9" d="M493.359,95.075l0.888,0.886C494.032,95.645,493.727,95.35,493.359,95.075z"/>
					<path fill="#F7CAC9" d="M493.155,94.869l-1.095-1.092c-0.005,0.19,0.006,0.365,0.018,0.54c0.489,0.231,0.916,0.486,1.281,0.759
						L493.155,94.869z"/>
					<polyline fill="#F3776B" points="451.129,136.496 459.333,97.224 485.824,96.732 					"/>
					<polygon fill="#91A8CF" points="451.336,136.72 449.53,136.723 457.625,97.605 459.26,97.579 					"/>
					<polyline fill="#F3776B" points="453.917,144.443 456.843,131.021 478.432,114.435 					"/>
					<polygon fill="#91A8CF" points="453.978,144.791 452.247,145.387 454.775,132.449 456.987,130.838 					"/>
					<path fill="#DD4231" d="M476.373,171.169c0,13.349,10.358,12.319,14.153,12.319c3.791,0,1.465-10.264,1.465-23.611
						c0-13.347,1.525-23.315-1.465-24.724C486.966,133.481,476.373,157.82,476.373,171.169z"/>
					<path fill="#DD4231" d="M466.487,171.534c0,12.95-10.355,11.957-14.148,11.957s-3.312-10.162-1.466-22.912
						c2.138-14.817-2.327-23.991,1.466-23.991S466.487,158.584,466.487,171.534z"/>
					<path fill="#F7CAC9" stroke="#DDB5B4" stroke-width="0.7281" stroke-miterlimit="10" d="M524.246,481.847
						c-0.87-4.036-6.697-3.133-10.077-3.829c-4.072-0.841-7.88-2.89-11.258-4.934c-3.82-2.312-6.775-3.526-7.065-8.711
						c-0.021-0.461-0.151-0.954-0.254-1.436l0.026-1.736l2.27-151.521c1.27-0.158,2.557-0.297,3.878-0.406
						c0.572-11.281,0.108-22.782,0.108-34.112c0-11.585,3.194-30.695,0.158-42.392v-0.629c4.211,5.98,3.268,18.485,4.729,25.728
						c2.243,11.098,5.275,21.123,5.394,33.21c0.064,6.931,2.16,12.391,0.727,18.805c-1.268,5.667-4.975,11.545-6.807,16.387
						c-1.652,4.368-5.94,5.828-5.258,10.356c1.046,6.929,6.089,3.549,7.566-1.487c1.154-0.33,2.968-0.312,4.134-0.016
						c0.288,5.646,0.053,10.727-2.075,15.178c-1.86,3.896-6.416,9.176,1.983,8.575c11.062-0.788,11.86-21.25,11.849-29.69
						c-0.026-29.42-3.105-59.738-7.989-87.395c-1.075-6.08-1.483-13.714-4.913-19.152c-3.021-4.783-8.393-8.273-12.085-12.638
						c-1.027-1.591-2.496-2.836-3.425-4.455c-8.703-15.171-8.547-17.215-8.519-29.3l-0.088,0.036
						c0.368-6.369,1.139-12.822,2.482-16.609c2.444-6.907,5.564-13.465,7.909-19.986c1.091-3.025,1.738-7.182,1.973-11.422
						c0.229-4.24,0.043-8.565-0.532-11.931c-0.65-3.791,0.322-10.858-1.004-14.547c-1.265-3.515-4.608-3.97-4.824-7.47
						c-2.341-1.111-5.988-1.747-9.675-1.809c-5.159-0.09-10.371,0.941-12.124,3.339c-1.751-2.398-6.966-3.429-12.124-3.339
						c-3.688,0.062-7.334,0.697-9.674,1.809c-0.218,3.5-3.56,3.955-4.823,7.47c-1.328,3.688-0.354,10.756-1.004,14.547
						c-0.576,3.366-0.764,7.691-0.534,11.931c0.233,4.24,0.883,8.397,1.97,11.422c2.348,6.521,5.466,13.079,7.914,19.986
						c2.386,6.729,2.969,21.884,2.68,29.995c-1.037,3.938-3.174,8.246-7.55,15.878c-0.931,1.619-2.398,2.864-3.427,4.455
						c-3.691,4.362-9.064,7.854-12.085,12.638c-3.429,5.438-3.838,13.072-4.913,19.152c-4.884,27.654-7.961,57.975-7.991,87.395
						c-0.01,8.44,0.785,28.902,11.851,29.69c8.398,0.601,3.845-4.679,1.983-8.575c-2.123-4.451-2.362-9.529-2.072-15.178
						c1.164-0.296,2.979-0.314,4.13,0.016c1.478,5.036,6.521,8.416,7.569,1.487c0.682-4.528-3.604-5.988-5.257-10.356
						c-1.834-4.842-1.648-11.785-2.919-17.453c-1.435-6.414,0.629-13.365,0.695-20.297c0.117-12.088-0.71-19.554,1.534-30.65
						c1.461-7.241,0.518-19.746,4.729-25.729v0.629c-3.037,11.696,0.157,30.808,0.157,42.393c0,11.33-0.461,22.831,0.111,34.113
						c1.316,0.108,2.605,0.246,3.875,0.406l2.271,151.521l0.025,1.737c-0.104,0.479-0.229,0.974-0.255,1.435
						c-0.29,5.185-3.245,6.399-7.064,8.711c-3.377,2.044-7.186,4.093-11.256,4.934c-3.383,0.696-9.208-0.207-10.078,3.829
						c-1.201,5.584,4.313,4.604,7.902,5.151c2.026,0.311,3.552,1.074,5.69,1.16c2.369,0.093,4.914-0.148,7.214-0.48
						c4.79-0.688,9.678-0.725,14.636-1.225c4.32-0.437,11.199,1.116,12.13-3.859c1.094-5.835-2.304-11.257-1.7-16.766l0.051-3.054
						h0.02l-0.011-0.685l0.011-0.659c-0.005,0-0.015,0-0.02-0.002l-2.233-149.062c2.203,0.273,4.477,0.479,6.859,0.583v0.073
						c0.029,0,0.059,0,0.086,0c0.518,0,1.018-0.018,1.521-0.027c0.507,0.011,1.008,0.027,1.522,0.027c0.029,0,0.062,0,0.089,0
						v-0.073c2.386-0.104,4.656-0.31,6.858-0.583l-2.232,149.062c-0.008,0.002-0.015,0.002-0.021,0.002l0.01,0.659l-0.01,0.685
						h0.021l0.05,3.054c0.604,5.509-2.792,10.931-1.702,16.766c0.933,4.977,7.81,3.424,12.132,3.859
						c4.957,0.5,9.846,0.537,14.635,1.225c2.302,0.332,4.845,0.573,7.215,0.48c2.14-0.086,3.663-0.851,5.691-1.16
						C519.932,486.45,525.448,487.431,524.246,481.847z"/>
				</g>
				<circle fill="#B18F6A" cx="468.538" cy="133.584" r="1.184"/>
				<circle fill="#B18F6A" cx="473.544" cy="133.584" r="1.183"/>
				<rect x="463.805" y="144.029" fill="#FFFFFF" width="2.914" height="1.457"/>
				<rect x="467.629" y="144.029" fill="#FFFFFF" width="2.911" height="1.457"/>
				<rect x="475.636" y="143.973" fill="#FFFFFF" width="2.915" height="1.456"/>
				<rect x="471.814" y="143.973" fill="#FFFFFF" width="2.912" height="1.456"/>
				<path fill="none" stroke="#F3776B" stroke-width="0.7281" stroke-miterlimit="10" d="M481.915,143.272
					c-1.175-0.164-2.084,0.561-3.134,0.729c-0.787,0.126-1.707,0-2.508,0c-1.818,0-3.642,0-5.459,0h0.728c-1.82,0-3.641,0-5.462,0
					c-0.801,0-1.718,0.126-2.507,0c-1.048-0.167-1.961-0.893-3.136-0.729"/>
			</g>
			<polygon fill="#DD4231" points="502.871,244.738 483.574,244.738 464.9,245.193 446.257,245.193 426.93,244.738 428.606,234.21 
				431.147,222.622 442.159,211.064 449.395,201.499 462.148,211.662 475.723,222.484 489.296,233.305 			"/>
			<polygon fill="#015084" points="502.399,275.15 441.504,275.15 440.846,244.738 503.329,244.738 			"/>
			<polygon fill="#7CC253" points="501.938,319.626 487.092,319.626 472.245,319.626 461.993,319.626 441.957,309.273 
				441.931,308.732 441.671,297.389 441.749,286.337 441.044,275.15 457.398,275.16 472.245,275.16 487.092,275.16 501.938,275.16 
				501.938,286.275 501.938,297.395 501.938,308.51 			"/>
			<polygon fill="#DD4231" points="501.938,303.379 461.993,319.626 501.938,319.626 			"/>
			<rect x="475.27" y="319.626" fill="#F3776B" width="22.567" height="21.231"/>
			<rect x="475.27" y="340.714" fill="#FFFFFF" width="22.567" height="5.806"/>
			<rect x="475.27" y="346.796" fill="#015084" width="22.567" height="16.62"/>
			<rect x="475.27" y="363.457" fill="#F3776B" width="22.567" height="11.037"/>
			<rect x="475.27" y="374.348" fill="#FFFFFF" width="22.567" height="5.812"/>
			<rect x="475.27" y="379.914" fill="#F3776B" width="22.567" height="5.811"/>
			<rect x="475.27" y="385.271" fill="#7CC253" width="22.567" height="38.702"/>
			<rect x="475.27" y="423.974" fill="#015084" width="22.567" height="38.479"/>
			<polygon fill="#015084" points="436.731,275.16 419.307,275.068 426.93,244.738 441.044,244.738 			"/>
			<rect x="419.307" y="275.068" fill="#7CC253" width="17.426" height="44.558"/>
			<line fill="none" x1="440.826" y1="244.738" x2="437.185" y2="247.896"/>
			<rect x="434.272" y="244.738" fill="#DD4231" width="8.011" height="3.156"/>
			<rect x="454.662" y="244.738" fill="#DD4231" width="8.009" height="3.156"/>
			<rect x="476.262" y="244.738" fill="#DD4231" width="8.011" height="3.156"/>
			<rect x="466.554" y="242.436" fill="#015084" width="5.946" height="3.151"/>
			<rect x="488.397" y="242.312" fill="#015084" width="5.945" height="3.154"/>
			<rect x="445.072" y="242.312" fill="#015084" width="5.946" height="3.154"/>
			<polygon fill="#015084" points="432.147,246.316 426.93,246.316 426.93,243.162 432.147,244.018 			"/>
			<polygon fill="#DD4231" points="502.871,248.623 497.864,247.896 497.864,243.162 503.6,244.738 			"/>
			<g>
				<polygon fill="#FFFFFF" points="459.472,251.706 449.355,242.971 438.506,251.706 427.66,243.162 427.846,239.966 
					438.506,247.966 449.355,239.229 459.472,247.966 470.32,239.229 481.165,247.966 492.018,239.229 502.871,248.623 
					502.871,251.706 492.745,242.971 481.894,251.706 470.32,242.971 				"/>
			</g>
			<rect x="443.344" y="272.316" fill="#7CC253" width="7.676" height="4.008"/>
			<rect x="464.825" y="272.316" fill="#7CC253" width="7.675" height="4.008"/>
			<rect x="486.485" y="272.316" fill="#7CC253" width="7.677" height="4.008"/>
			<rect x="453.993" y="273.684" fill="#015084" width="7.676" height="4.004"/>
			<rect x="475.607" y="273.684" fill="#015084" width="7.678" height="4.004"/>
			<rect x="421.045" y="271.682" fill="#7CC253" width="7.677" height="4.006"/>
			<polygon fill="#015084" points="436.731,277.768 432.147,277.232 431.283,273.684 436.731,273.684 			"/>
			<polygon fill="#FFFFFF" points="425.15,268.376 422.087,270.84 419.021,273.311 418.8,275.357 418.58,277.404 421.863,274.761 
				425.15,272.115 430.577,276.482 436.003,280.854 436.003,279.311 436.731,277.768 430.577,273.07 			"/>
			<polygon fill="#015084" points="502.098,278.314 497.135,276.96 495.681,271.682 502.098,271.682 			"/>
			<polygon fill="#FFFFFF" points="491.244,268.921 480.391,277.658 469.547,268.921 459.426,277.658 447.853,268.921 
				440.883,274.532 441.212,278.154 448.58,272.663 458.695,281.398 470.274,272.663 480.391,281.398 491.244,272.663 
				502.098,281.398 502.098,278.314 			"/>
			<polygon fill="#7CC253" points="483.688,427.319 481.143,427.319 479.474,421.415 485.145,421.415 			"/>
			<polygon fill="#7CC253" points="498.069,427.319 494.623,425.863 493.463,421.415 498.069,421.415 			"/>
			<polygon fill="#015084" points="475.321,420.037 478.272,422.815 479.812,428.049 475.281,428.049 			"/>
			<polygon fill="#015084" points="494.569,426.78 487.147,427.319 487.147,421.679 491.332,421.679 			"/>
			<g>
				<polygon fill="#FFFFFF" points="482.786,430.575 475.132,421.679 475.27,417.374 482.79,426.11 490.312,417.374 
					498.069,427.319 497.837,430.575 490.312,421.835 				"/>
			</g>
			<rect x="444.624" y="453.745" fill="#015084" width="24.369" height="5.312"/>
			
				<rect x="444.624" y="445.16" fill="#FFFFFF" stroke="#E6E7E8" stroke-width="0.5078" stroke-miterlimit="10" width="24.179" height="5.458"/>
			<polygon fill="#91A8CF" points="456.289,133.584 451.129,136.496 451.129,134.12 456.843,131.021 			"/>
			<circle fill="#FFFFFF" cx="484.557" cy="121.961" r="6.555"/>
			<polyline fill="#F3776B" points="451.932,136.255 460.135,96.984 486.627,96.491 			"/>
			<polygon fill="#91A8CF" points="452.137,136.479 450.33,136.484 458.427,97.366 460.062,97.337 			"/>
			<polyline fill="#F3776B" points="454.718,144.202 457.643,130.78 479.232,114.194 			"/>
			<polygon fill="#91A8CF" points="454.778,144.551 453.049,145.146 455.574,132.21 457.786,130.599 			"/>
			<circle fill="#FFFFFF" cx="457.251" cy="121.961" r="6.554"/>
			<circle fill="#91A8CF" cx="457.252" cy="121.847" r="2.549"/>
			<circle fill="#7CC253" cx="484.614" cy="121.847" r="4.005"/>
			<circle fill="#090A11" cx="484.615" cy="121.847" r="2.548"/>
			<circle fill="#090A11" cx="457.251" cy="121.847" r="0.728"/>
			<g>
				<path fill="#DD4231" d="M488.871,163.611c-0.052,0.207-0.089,0.385-0.106,0.516
					C488.805,163.977,488.839,163.801,488.871,163.611z"/>
				<path fill="#DD4231" d="M509.007,93.174c-2.146-4.222-9.822-6.726-13.773-10.142c-8.949-7.733-14.208-7.781-23.989-7.059
					c-9.778-0.722-15.037-0.675-23.988,7.059c-3.95,3.416-11.624,5.92-13.772,10.142c-2.261,4.446,0.031,15.138,0.576,19.814
					c0.723,6.186,4.12,11.814,5.354,18.219c1.175,6.098,4.373,12.031,6.651,17.683c0.568,1.41,2.099,6.432,3.076,7.77
					c1.008,1.374,2.362,1.523,2.769,2.293c0.436,0.831,1.7,4.186,1.814,5.173l0.671,0.373c-0.517-1.99-1.01-7.88-1.739-10.458
					c-2.597-9.187-2.294-5.477-3.282-11.945c-1.979-12.945-4.034-22.324,0.574-34.844c2.515-6.841,2.239-8.598,11.598-8.153
					c4.583,0.217,6.854,0.202,9.699,0.102c2.849,0.101,5.119,0.115,9.702-0.102c9.356-0.444,9.083,1.312,11.6,8.153
					c4.605,12.52,2.55,21.899,0.572,34.844c-0.988,6.468-0.687,2.758-3.283,11.945c-0.675,2.382-0.575,7.271-0.963,9.568
					c0.336-1.325,1.333-3.938,1.712-4.656c0.403-0.77,1.76-0.919,2.768-2.293c0.977-1.338,2.509-6.36,3.077-7.77
					c2.275-5.652,5.476-11.585,6.649-17.683c1.234-6.405,4.634-12.034,5.354-18.219C508.976,108.312,511.27,97.62,509.007,93.174z"
					/>
			</g>
		</g>
	</g>
</g>
<path fill="#DD4231" d="M209.036,808.542c-2.851-9.573-10.914-19.827-21.899-18.912c-2.373,0.198-4.812,0.923-6.841,2.221
	c-1.041,0.659-1.778,1.567-2.594,2.477c-0.731,0.812-1.729,2.761-2.769,3.119c-2.059,0.703-5.121-3.64-6.219-4.914
	c-2.094-2.41-4.109-4.908-6.035-7.472c-3.721-4.965-6.686-10.479-9.236-16.135c-1.188-2.615-1.844-5.376-2.481-8.174
	c-0.719-3.26-1.305-6.614-0.696-9.925c0.206-1.069,0.513-2.153-0.344-3.039c-0.77-0.82-1.825-0.558-2.762-0.975
	c-2.557-1.12-3.412-3.397-5.105-5.537c-3.435-4.352-7.866-7.815-13.176-9.544c-3.794-1.237-7.997-1.779-11.982-1.758
	c-4.453,0.008-8.985,0.06-13.344,1.041c-2.104,0.468-4.219,0.995-6.285,1.641c-1.706,0.527-4.271,0.841-5.522,2.21
	c-0.885,0.975-2.71,1.635-1.113,3.165c1.428,1.385,2.98,2.396,4.542,3.609c1.486,1.157,2.93,2.271,4.583,3.188
	c1.657,0.916,3.386,1.803,4.629,3.26c0.33,0.359,1.582,0.433,2.059,0.696c1.114,0.608,2.265,1.187,3.421,1.728
	c1.984,0.933,4.108,1.555,6.072,2.521c3.187,1.545,7.64,1.545,11.161,1.612c4.696,0.08,9.12-0.996,13.705-1.604
	c0.153,1.238-0.06,2.483-0.688,3.566c-0.622,1.085-1.649,1.767-2.154,2.916c-1.172,2.637-1.794,5.528-3.508,7.909
	c-0.652,0.961-0.937,2.638-1.319,3.75c-0.483,1.393-0.929,2.799-1.311,4.22c-0.38,1.473-0.683,2.942-0.776,4.453
	c-0.087,1.441-0.571,2.739-0.717,4.146c-0.045,0.682,0.211,0.834,0.108,1.617c-0.087,0.806-0.183,1.604-0.262,2.402
	c-0.17,1.618-0.315,3.235-0.455,4.849c-0.168,1.823,0.293,5.961-2.073,6.628c-1.104,0.308-1.926-0.256-2.974-0.344
	c-1.516-0.132-3.003-0.189-4.526,0.037c-2.943,0.444-5.537,1.099-7.911,3.003c-8.583,6.928-7.404,22.594-1.391,30.798
	c3.157,4.313,8.262,7.765,13.638,8.468c5.81,0.754,11.479,1.252,16.699-1.847c4.205-2.498,7.185-6.489,8.979-10.986
	c2.042-5.112,3.464-11.366,1.816-16.779c-1.54-5.03-5.12-9.214-10.166-10.877c-2.358-0.783-4.863-0.931-7.296-0.615
	c-2.892,0.383-3.025-0.563-2.936-3.331c0.357-12.399,3.272-25.284,9.945-35.854c0.769-1.224,1.589-2.402,2.46-3.537
	c0.938-1.225,1.297-1.566,2.352-0.206c1.686,2.204,1.752,5.517,2.659,8.072c2.022,5.646,4.694,11.029,7.875,16.113
	c3.022,4.817,6.744,9.315,10.592,13.499c0.849,0.93,1.72,1.844,2.601,2.737c1.141,1.15,1.33,1.518,0.424,2.856
	c-1.055,1.538-3.004,2.337-4.336,3.604c-7.771,7.391-3.604,17.688,2.688,24.493c3.199,3.463,7.391,6.158,11.93,7.506
	c5.332,1.599,10.834,0.31,15.711-2.044c4.373-2.101,7.992-5.439,10.636-9.491C210.316,819.844,210.689,814.094,209.036,808.542
	C207.613,803.767,210.646,813.963,209.036,808.542z"/>
<g id="layer1" transform="translate(-407.50579,-298.09886)">
	<path id="path2384" fill="#F3776B" d="M859.363,810.853c-0.018,1.964-1.498,1.825-1.498,1.825c-1.531,0-2.494-3.062-2.873-2.968
		c-0.483,0.096,0.096,2.584-0.483,2.968c-0.476,0.479-10.637-4.216-11.396-4.978c-0.676-0.676,0.287-1.633,0-2.307
		c-0.197-0.57-1.736-0.385-2.203-0.667c-0.395-0.386,0.467-2.109-0.096-2.498c-0.487-0.277-1.533,1.731-2.205,0.77
		c-0.299-0.381-0.385-1.047-0.385-1.914c0-5.845,6.225-8.236,10.448-9.681c1.716-0.569,1.138,1.635,1.716,1.731
		c0.675,0.19,0.767-1.06,1.535-1.06c0.579,0,2.783,1.06,3.255,0.675c0.39-0.287-1.146-1.729-0.671-2.302
		c0.579-0.479,4.838-1.646,4.872-0.389 M894.935,748.58c0-1.626-1.146-2.871-2.385-2.871H882.2c-2.872,0-2.688-2.111-2.688-2.587
		c0-12.744,18.496-14.852,18.496-31.522c0-7.28-4.595-12.17-9.961-16.48c-0.294-0.191,0,1.054,0,1.538
		c0,7.758-28.837,11.782-28.837,29.701c0,15.611,15.517,16.285,15.517,18.683c0,0.478-0.952,0.669-1.054,0.669h-11.881
		c-1.246,0-2.395,1.245-2.395,2.871v9.585c-1.155,0.386-2.584-1.345-3.357-1.345c-0.378,0-0.182,2.974-0.86,3.354
		c-0.574,0.287-11.394,4.122-12.359,4.218c-1.528,0.288-1.146-2.396-2.005-2.396c-0.772,0-0.772,2.685-2.691,2.685
		c-1.144,0-2.099-1.057-2.96-1.057c-0.576,0,1.24,2.207,1.24,2.876c0,1.819-3.543,2.482-3.543,3.737
		c0,0.664,3.354-0.292,3.834-0.292c1.721,0,1.531,2.016,2.193,2.016c0.676,0,1.153-2.303,1.73-2.681
		c1.146-0.677,2.494,0.474,3.063,0.474c0.962,0-0.768-2.298,0.104-2.685c0,0,11.685-4.979,12.445-4.602
		c0.671,0.39,0.582,1.537,1.347,1.921c0.766,0.385,1.915-2.683,1.915-0.768v23.477c-1.343,0.86-4.216,1.341-5.752,1.341
		c-0.763,0-0.381-2.488-0.858-2.488c-0.771,0-1.541,2.104-2.685,2.104c-1.053,0-2.587-2.582-3.64-2.582
		c-0.67,0,1.241,3.252,0.094,3.827c-4.406,2.207-11.397,4.309-11.397,11.311c0,1.437,0.771,3.157,0.478,3.635
		c-0.285,0.67-1.814,2.016-1.73,2.59c0,0.573,2.879,0.382,3.46,1.248c0.28,0.475,0.479,2.587,1.056,2.587
		c0.476,0,1.718-1.634,2.774-1.054c3.354,2.015,9.194,4.212,11.879,5.647c0.665,0.389,0.284,2.491,0.665,2.683
		c0.771,0.39,2.301-2.011,4.703-0.667c0.482,0.19,0.831,0.656,0.831,1.521v7.839c-0.006,1.645,0.794,2.04,1.563,2.231l28.55,5.845
		c0,0,2.107,0.384,2.967,0.384c1.06,0,2.489-0.436,2.489-2.544l-0.042-17.448c0-0.186,0.135-0.697,0.418-0.697
		c1.538-0.144,1.161,4.785,1.542,4.785c0.757,0,1.249-3.259,2.203-3.259c1.343,0,2.215,1.246,2.777,0.959
		c0.48-0.287-0.279-1.823-0.279-2.78c0-0.861,2.482-1.243,5.556-2.388c2.68-0.962,4.885-2.017,5.748-2.017
		c0.666,0,1.142,1.816,1.723,1.816c0.478,0,0.574-2.394,1.63-2.394c0.859,0,2.772,1.338,3.259,0.957
		c0.383-0.285-0.956-2.109,0.096-2.875c0.766-0.479,2.584-1.625,2.584-2.107c0-0.284-3.545-0.381-3.734-0.381
		c-0.672-0.193-1.438-2.302-1.925-2.302c-0.561,0-0.561,2.107-1.432,2.782c-0.769,0.566-2.681-2.015-3.538-2.015
		c-0.485,0,0.57,1.914,0.57,3.447c0,1.535-9.29,4.505-10.535,4.505c-1.917,0-2.02-2.393-2.404-2.393
		c-0.565,0-0.479,2.876-2.866,2.876c-1.062,0-1.352-0.579-1.352-1.158v-22.991c0-0.671,0.197-1.728,1.443-1.728
		c1.727,0,1.727,3.451,2.295,3.451c1.061,0,1.638-3.545,3.645-3.545c1.528,0,2.776,2.111,3.734,2.111
		c0.675,0-1.146-2.203-1.146-3.261c0-1.051,9.486-0.67,13.129-7.093c1.051-1.818,1.051-4.02,1.436-4.883
		c0.567-0.959,2.681-0.772,2.681-1.438c0-0.287-1.53-0.671-2.112-1.052c-1.144-0.67-0.758-4.123-1.332-4.123
		c-0.862,0-1.728,2.396-2.591,1.341c-1.532-1.915-7.855-5.558-10.729-6.611c-1.058-0.383,0.77-3.544,0.289-3.835
		c-0.479-0.287-1.73,1.92-3.554,1.537c-1.436-0.287-0.759-2.876-1.525-2.876c-0.389,0-1.828,3.644-2.88,3.356
		c-1.147-0.288-2.781-0.575-2.781-0.575v-9.677H894.935z M894.935,761.133c0,0,0.197,0,1.352,0.289
		c0.764,0.188,1.528,0.574,1.528,1.628c0,0.574-0.202,1.726,0.191,1.918c0.391,0.191,0.667-0.192,0.86-0.287
		c3.544-2.586,4.405,2.009,5.173,2.009c0.673,0,0.581-3.162,1.534-3.162c0.771-0.283,8.146,3.259,8.146,5.56
		c0,0.48-0.964,0.574-1.053,1.059c-0.096,0.669,1.724,0.956,1.432,2.201c-0.099,0.771-1.817,1.723-1.343,2.199
		c0.486,0.486,2.783-0.478,2.98-0.478c0.475,0,0.566,0.767,0.566,1.054c0,4.218-9.862,7.383-12.075,6.421
		c-0.673-0.285-0.756-2.395-1.143-2.395c-0.579,0-0.871,1.915-2.015,2.204c-1.15,0.189-2.871-1.248-3.356-0.866
		c-0.477,0.385,1.15,3.068-2.01,3.068c-0.772,0-0.772-0.864-0.772-1.536v-20.886H894.935z M868.692,729.993
		c0-13.222,19.547-20.786,20.88-27.495c1.443,1.343,1.634,3.541,1.634,5.458c0,8.047-13.987,21.557-13.987,31.331
		c0,1.051,0.092,1.344,0.092,2.018c0,0.95-0.379,1.146-0.569,1.146C874.435,742.448,868.692,737.946,868.692,729.993z
		 M866.102,754.237c0-1.536,1.156-2.107,2.2-2.107h16.968c2.102,0,2.97,0.666,2.97,2.871l0.088,29.319
		c0,0.955-9.965,1.249-10.343,0.572c-0.574-0.953-0.297-2.585-0.865-2.585c-0.285,0-1.818,2.301-2.686,2.301
		c-0.854,0-2.293-1.63-2.866-1.63c-0.389,0,0.381,2.297-0.389,3.256c-0.476,0.674-5.077,1.152-5.077,0.576V754.237L866.102,754.237z
		 M888.428,826.186c0,2.017-0.675,2.493-2.393,2.11l-18.296-3.645c-1.059-0.184-1.638-0.86-1.638-2.006v-33.15
		c0-0.859,2.974-0.955,3.448-0.572c0.866,0.765,0.579,3.543,1.153,3.543c0.764,0,2.777-3.352,3.639-3.352
		c1.821,0,3.067,1.05,3.445,0.857c0.384-0.189,0.384-1.723,0.868-2.111c0.672-0.473,2.68-0.473,3.731-0.571
		c1.725-0.097,4.888-0.382,4.888-0.382c1.25,0,1.151,0.865,1.151,2.683v36.596H888.428z"/>
</g>
<g>
	<path fill="#015084" d="M791.622,107.018c-23.741,0-42.98,19.242-42.98,42.982c0,23.736,19.239,42.982,42.98,42.982
		c23.737,0,42.983-19.246,42.983-42.982C834.605,126.26,815.359,107.018,791.622,107.018z M791.622,186.534
		c-20.177,0-36.534-16.357-36.534-36.534c0-20.175,16.357-36.533,36.534-36.533c20.173,0,36.534,16.358,36.534,36.533
		C828.156,170.177,811.795,186.534,791.622,186.534z"/>
	<path fill="#015084" d="M852.296,115.615h-4.554c-1.496,0-7.257,40.574-7.257,40.574c0,1.141,1.207,2.062,2.702,2.062h4.887v23.566
		c0,1.421,1.419,2.566,3.174,2.566h0.581c1.752,0,3.171-1.146,3.171-2.566v-25.629v-4.312v-34.201
		C855,116.539,853.794,115.615,852.296,115.615z"/>
	<path fill="#015084" d="M742.929,115.615c-1.101,0-1.993,0.891-1.993,1.993v15.082h-3.981v-15.082c0-1.103-0.894-1.993-1.991-1.993
		c-1.101,0-1.993,0.891-1.993,1.993v15.082h-3.981v-15.082c0-1.103-0.894-1.993-1.99-1.993c-1.101,0-1.996,0.891-1.996,1.993v17.217
		v1.373v0.049c0,1.176,0.955,2.133,2.133,2.133h3.845v43.835c0,1.202,0.933,2.171,2.078,2.171h3.807
		c1.153,0,2.082-0.969,2.082-2.171V138.38h3.84c1.181,0,2.139-0.957,2.139-2.133v-0.049v-1.373v-17.217
		C744.922,116.505,744.026,115.615,742.929,115.615z"/>
	<path fill="#015084" d="M791.622,119.912c-16.618,0-30.088,13.472-30.088,30.088c0,16.618,13.47,30.085,30.088,30.085
		S821.71,166.618,821.71,150C821.71,133.384,808.24,119.912,791.622,119.912z M791.622,179.014
		c-16.022,0-29.012-12.988-29.012-29.014c0-16.024,12.988-29.013,29.012-29.013c16.021,0,29.012,12.989,29.012,29.013
		C820.634,166.023,807.644,179.014,791.622,179.014z"/>
</g>
<path fill="#9BD8DB" d="M834.751,461.99c0.088-0.835,0.249-1.642,0.249-2.49c0-12.422-10.078-22.5-22.5-22.5
	c-3.721,0-7.17,0.988-10.254,2.578C797.515,429.229,787.129,422,775,422c-16.567,0-30,13.433-30,30c0,3.296,0.659,6.408,1.641,9.375
	C736.914,465.213,730,474.647,730,485.75c0,13.213,9.793,24.038,22.5,25.869V512h3.75h26.25h15h24.75h5.25v-0.381
	c12.707-1.831,22.5-12.656,22.5-25.869C850,475.188,843.73,466.15,834.751,461.99z"/>
<g>
	<path fill="#7CC253" d="M151.044,450.965c4.974,0,9.004-4.03,9.004-9.003c0-0.079-0.021-0.149-0.021-0.229
		c0.742,0.123,1.494,0.229,2.272,0.229c2.435,0,4.687-0.696,6.661-1.822c3.303,3.839,8.139,6.323,13.598,6.323
		c9.945,0,18.01-8.062,18.01-18.009c0-9.945-8.063-18.008-18.01-18.008c-5.459,0-10.295,2.482-13.598,6.32
		c-1.977-1.124-4.227-1.819-6.661-1.819c-7.462,0-13.507,6.047-13.507,13.507c0,1.637,0.334,3.188,0.871,4.644
		c-4.313,0.668-7.624,4.361-7.624,8.864C142.04,446.935,146.071,450.965,151.044,450.965z"/>
	<path fill="#7CC253" d="M200.021,520.754c-9.289-7.284-17.154-16.283-23.086-26.549c-6.051-10.467-10.101-22.232-11.629-34.789
		h-14.264H136.78c-1.53,12.557-5.579,24.322-11.629,34.789c-5.932,10.266-13.797,19.265-23.086,26.549H80v2.8h140v-2.8H200.021z
		 M128.238,498.359c2.592-4.482,4.749-9.242,6.452-14.213v0.913h32.708v-0.913c1.703,4.971,3.858,9.729,6.451,14.213
		c4.199,7.271,9.528,13.782,15.693,19.408h-77C118.708,512.143,124.037,505.632,128.238,498.359z"/>
</g>
<g>
	<path fill="#015084" d="M475,742v-16h-16v16h-32v104h80V742H475z M467,730c2.209,0,4,1.791,4,4s-1.791,4-4,4s-4-1.791-4-4
		S464.791,730,467,730z M503,842h-72v-96h28v12h16v-12h28V842z"/>
	<path fill="#015084" d="M467,766c-11.047,0-20,8.953-20,20s8.953,20,20,20s20-8.953,20-20S478.047,766,467,766z M467,802
		c-8.822,0-16-7.178-16-16s7.178-16,16-16s16,7.178,16,16S475.822,802,467,802z"/>
	<path fill="#015084" d="M451,814c-4.418,0-8,3.582-8,8v8h48v-8c0-4.418-3.582-8-8-8H451z"/>
</g>
<path fill="#015084" d="M497.819,776.301c-1.68,0.745-3.483,1.249-5.378,1.476c1.934-1.159,3.418-2.993,4.116-5.181
	c-1.81,1.072-3.812,1.854-5.945,2.272c-1.707-1.82-4.143-2.957-6.835-2.957c-5.17,0-9.362,4.192-9.362,9.362
	c0,0.733,0.082,1.448,0.242,2.134c-7.782-0.391-14.682-4.118-19.299-9.782c-0.808,1.383-1.27,2.991-1.27,4.707
	c0,3.248,1.653,6.114,4.166,7.793c-1.534-0.048-2.979-0.47-4.24-1.17c-0.001,0.039-0.002,0.078-0.002,0.117
	c0,4.537,3.229,8.32,7.513,9.182c-0.786,0.213-1.613,0.328-2.468,0.328c-0.604,0-1.189-0.059-1.762-0.169
	c1.191,3.721,4.649,6.428,8.746,6.503c-3.204,2.512-7.241,4.009-11.628,4.009c-0.756,0-1.502-0.045-2.234-0.131
	c4.145,2.656,9.065,4.206,14.354,4.206c17.224,0,26.641-14.267,26.641-26.64c0-0.406-0.009-0.812-0.025-1.214
	C494.977,779.828,496.562,778.18,497.819,776.301z"/>
</svg>
