<?xml version="1.0" encoding="utf-8"?>
<!-- Generator: Adobe Illustrator 16.0.0, SVG Export Plug-In . SVG Version: 6.00 Build 0)  -->
<!DOCTYPE svg PUBLIC "-//W3C//DTD SVG 1.1//EN" "http://www.w3.org/Graphics/SVG/1.1/DTD/svg11.dtd">
<svg version="1.1" id="Layer_1" xmlns="http://www.w3.org/2000/svg" xmlns:xlink="http://www.w3.org/1999/xlink" x="0px" y="0px"
	 width="300px" height="300px" viewBox="0 0 300 300" enable-background="new 0 0 300 300" xml:space="preserve">
<pattern  width="9.27" height="55.117" patternUnits="userSpaceOnUse" id="SVGID_1_" viewBox="0 -55.117 9.27 55.117" overflow="visible">
	<g>
		<polygon fill="none" points="0,0 9.27,0 9.27,-55.117 0,-55.117 		"/>
		<g>
			<polygon fill="none" points="0,-55.117 9.27,-55.117 9.27,0 0,0 			"/>
			<polygon fill="#90A7CD" points="4.635,-55.117 0,-55.117 0,0 4.635,0 			"/>
			<polygon fill="#FFFFFF" points="9.27,-55.117 4.635,-55.117 4.635,0 9.27,0 			"/>
		</g>
	</g>
</pattern>
<g>
	<polygon fill="#F4CACA" points="145.155,200.024 134.188,200.024 132.424,179.525 147.05,179.525 	"/>
	<polygon fill="#90A7CD" points="145.155,224.961 135.558,224.961 134.188,200.024 145.155,199.498 	"/>
	<path fill="#020202" d="M145.155,224.189h-9.598c-0.996,0-14.613,3.805-14.613,4.627v3.101c0,0.823,0.807,1.49,1.803,1.49h2.759
		V235h2.531v-1.593h3.121V235h2.532v-1.593h3.008V235h2.531v-1.593h3.849V235h2.532v-1.623c0.822-0.137,1.441-0.738,1.441-1.46
		v-3.101C147.05,227.994,146.959,225.68,145.155,224.189z"/>
	<polygon fill="#F4CACA" points="154.844,200.024 165.812,200.024 167.575,179.525 152.949,179.525 	"/>
	<polygon fill="#90A7CD" points="154.844,224.961 164.442,224.961 165.812,200.024 154.844,199.498 	"/>
	<path fill="#020202" d="M154.844,224.189h9.599c0.996,0,14.613,3.805,14.613,4.627v3.101c0,0.823-0.807,1.49-1.803,1.49h-2.759V235
		h-2.532v-1.593h-3.121V235h-2.531v-1.593h-3.008V235h-2.53v-1.593h-3.85V235h-2.531v-1.623c-0.823-0.137-1.441-0.738-1.441-1.46
		v-3.101C152.949,227.994,153.041,225.68,154.844,224.189z"/>
	<g>
		<polygon fill="#F4CACA" points="134.725,154.582 133.282,154.187 131.838,153.793 130.395,153.398 128.951,153.004 
			128.129,143.684 127.307,134.364 125.578,118.746 125.662,115.724 128.345,115.724 131.025,115.724 133.707,115.724 
			136.389,115.724 135.973,125.438 135.557,135.153 135.142,144.867 		"/>
		<path fill="#F4CACA" d="M136.389,164.498c0,0.996-0.807,1.803-1.803,1.803h-5.635c-0.996,0-1.802-0.807-1.802-1.803v-9.691
			c0-0.996,0.806-1.803,1.802-1.803h5.636c0.995,0,1.802,0.807,1.802,1.803V164.498L136.389,164.498z"/>
		<polygon fill="#F4CACA" points="166.007,155.482 167.449,155.088 168.894,154.694 170.338,154.3 171.78,153.905 172.604,144.585 
			173.426,135.266 175.154,119.647 175.069,116.625 172.389,116.625 169.707,116.625 167.025,116.625 164.343,116.625 
			164.76,126.34 165.175,136.055 165.59,145.769 		"/>
		<path fill="#F4CACA" d="M165.244,165.399c0,0.995,0.808,1.803,1.804,1.803h5.634c0.996,0,1.804-0.808,1.804-1.803v-9.69
			c0-0.996-0.808-1.804-1.804-1.804h-5.634c-0.996,0-1.804,0.808-1.804,1.804V165.399z"/>
	</g>
	<pattern  id="SVGID_2_" xlink:href="#SVGID_1_" patternTransform="matrix(0.9015 0 0 -0.9015 2441.0254 -17751.9375)">
	</pattern>
	<path fill="url(#SVGID_2_)" stroke="#90A7CD" stroke-width="0.9015" stroke-miterlimit="10" d="M175.643,110.249
		c0-4.444-3.774-8.047-8.426-8.047h-33.701c-4.653,0-8.425,3.604-8.425,8.047v8.046h8.683l-1.432,33.597h36.049l-1.431-33.597h8.683
		V110.249L175.643,110.249z"/>
	<g>
		<path fill="#F4CACA" d="M150.366,99.497c7.471,0,13.523-7.264,13.523-16.228s-6.053-16.227-13.523-16.227
			c-7.47,0-13.521,7.264-13.521,16.227C136.844,92.232,142.896,99.497,150.366,99.497z"/>
		<polygon fill="#020202" points="161.498,68.786 154.976,65 150.366,65 145.756,65 139.236,68.786 136.951,72.397 136.951,76.097 
			137.006,81.228 142.773,74.195 150.366,78.478 157.958,74.195 163.726,81.228 163.781,76.097 163.781,72.397 		"/>
	</g>
	<g>
		<g>
			<polygon fill="#020202" points="148.635,179.525 130.076,179.525 132.528,151.891 152.383,151.891 			"/>
		</g>
		<g>
			<polygon fill="#020202" points="152.097,179.525 170.655,179.525 168.205,151.891 148.351,151.891 			"/>
		</g>
	</g>
</g>
</svg>
