<?xml version="1.0" encoding="utf-8"?>
<!-- Generator: Adobe Illustrator 16.0.0, SVG Export Plug-In . SVG Version: 6.00 Build 0)  -->
<!DOCTYPE svg PUBLIC "-//W3C//DTD SVG 1.1//EN" "http://www.w3.org/Graphics/SVG/1.1/DTD/svg11.dtd">
<svg version="1.1" id="Layer_1" xmlns="http://www.w3.org/2000/svg" xmlns:xlink="http://www.w3.org/1999/xlink" x="0px" y="0px"
	 width="300px" height="300px" viewBox="0 0 300 300" enable-background="new 0 0 300 300" xml:space="preserve">
<g>
	<path fill-rule="evenodd" clip-rule="evenodd" fill="#B18F6A" d="M114.33-507.383c5.677,0,10.536,3.382,12.75,8.226
		c1.444-0.744,3.058-1.207,4.799-1.207c2.418,0,4.64,0.825,6.419,2.196c2.363-4.421,7.021-7.431,12.384-7.431
		c5.677,0,10.536,3.383,12.75,8.227c1.442-0.745,3.058-1.207,4.799-1.207c2.471,0,4.74,0.858,6.537,2.286
		c2.198-2.396,5.163-3.874,8.436-3.874c4.953,0,9.195,3.383,11.128,8.227c1.256-0.741,2.658-1.201,4.171-1.205v-22.588v-12.16
		h-9.729v12.16h-77.829v-12.16h-9.729v12.16v17.412C103.226-503.614,108.332-507.383,114.33-507.383z"/>
	<polygon fill-rule="evenodd" clip-rule="evenodd" fill="#B18F6A" points="205.271,-492.75 205.271,-480.588 94.729,-480.588 
		94.729,-492.75 85,-492.75 85,-480.588 85,-456.267 85,-444.106 94.729,-444.106 94.729,-456.267 205.271,-456.267 
		205.271,-444.106 215,-444.106 215,-492.75 	"/>
</g>
<g>
	<defs>
		<rect id="SVGID_1_" x="720" y="80" width="140" height="140"/>
	</defs>
	<clipPath id="SVGID_2_">
		<use xlink:href="#SVGID_1_"  overflow="visible"/>
	</clipPath>
	<g clip-path="url(#SVGID_2_)">
		<path fill="#DD4231" d="M800.403,130.433c-3.759,0-6.807,3.047-6.807,6.807c0,3.759,3.048,6.806,6.807,6.806
			s6.806-3.047,6.806-6.806C807.209,133.479,804.162,130.433,800.403,130.433z M800.403,142.344c-2.818,0-5.104-2.285-5.104-5.104
			s2.286-5.104,5.104-5.104c2.819,0,5.105,2.285,5.105,5.104S803.223,142.344,800.403,142.344z"/>
		<circle fill="#DD4231" cx="800.456" cy="137.239" r="2.127"/>
		<path fill="#DD4231" d="M784.729,139.273l-2.034-2.034l2.034-2.034c0.936-0.936,0.936-2.454,0-3.39s-2.453-0.936-3.39,0
			l-2.033,2.034l-2.034-2.034c-0.938-0.936-2.454-0.936-3.392,0c-0.934,0.936-0.934,2.454,0,3.39l2.036,2.034l-2.036,2.034
			c-0.934,0.935-0.934,2.453,0,3.389c0.938,0.937,2.454,0.937,3.392,0l2.034-2.033l2.033,2.033c0.937,0.937,2.452,0.937,3.39,0
			C785.664,141.727,785.664,140.208,784.729,139.273z"/>
		<path fill="#DD4231" d="M775,150.17c-0.377,0-1,0.304-1,0.681v4.765c0,0.376,0.623,0.681,1,0.681s1-0.305,1-0.681v-4.765
			C776,150.474,775.377,150.17,775,150.17z"/>
		<path fill="#DD4231" d="M778,150.17c-0.375,0-1,0.304-1,0.681v4.765c0,0.376,0.625,0.681,1,0.681c0.377,0,1-0.305,1-0.681v-4.765
			C779,150.474,778.377,150.17,778,150.17z"/>
		<path fill="#DD4231" d="M780.5,150.17c-0.378,0-0.5,0.304-0.5,0.681v4.765c0,0.376,0.122,0.681,0.5,0.681
			c0.377,0,0.5-0.305,0.5-0.681v-4.765C781,150.474,780.877,150.17,780.5,150.17z"/>
		<path fill="#DD4231" d="M783.5,150.17c-0.376,0-0.5,0.304-0.5,0.681v4.765c0,0.376,0.124,0.681,0.5,0.681
			c0.377,0,0.5-0.305,0.5-0.681v-4.765C784,150.474,783.877,150.17,783.5,150.17z"/>
		<path fill="#DD4231" d="M786,150.17c-0.377,0-1,0.304-1,0.681v4.765c0,0.376,0.623,0.681,1,0.681c0.376,0,1-0.305,1-0.681v-4.765
			C787,150.474,786.376,150.17,786,150.17z"/>
		<path fill="#DD4231" d="M788.5,150.17c-0.377,0-0.5,0.304-0.5,0.681v4.765c0,0.376,0.123,0.681,0.5,0.681s0.5-0.305,0.5-0.681
			v-4.765C789,150.474,788.877,150.17,788.5,150.17z"/>
		<path fill="#DD4231" d="M791,150.17c-0.375,0-1,0.304-1,0.681v4.765c0,0.376,0.625,0.681,1,0.681c0.377,0,1-0.305,1-0.681v-4.765
			C792,150.474,791.377,150.17,791,150.17z"/>
		<path fill="#DD4231" d="M793.5,150.17c-0.377,0-0.5,0.304-0.5,0.681v4.765c0,0.376,0.123,0.681,0.5,0.681
			c0.375,0,0.5-0.305,0.5-0.681v-4.765C794,150.474,793.875,150.17,793.5,150.17z"/>
		<path fill="#DD4231" d="M796.5,150.17c-0.375,0-0.5,0.304-0.5,0.681v4.765c0,0.376,0.125,0.681,0.5,0.681
			c0.378,0,0.5-0.305,0.5-0.681v-4.765C797,150.474,796.878,150.17,796.5,150.17z"/>
		<path fill="#DD4231" d="M799,150.17c-0.377,0-1,0.304-1,0.681v4.765c0,0.376,0.623,0.681,1,0.681s1-0.305,1-0.681v-4.765
			C800,150.474,799.377,150.17,799,150.17z"/>
		<path fill="#DD4231" d="M802,150.17c-0.377,0-1,0.304-1,0.681v4.765c0,0.376,0.623,0.681,1,0.681s1-0.305,1-0.681v-4.765
			C803,150.474,802.377,150.17,802,150.17z"/>
		<path fill="#DD4231" d="M805,150.17c-0.375,0-1,0.304-1,0.681v4.765c0,0.376,0.625,0.681,1,0.681c0.377,0,1-0.305,1-0.681v-4.765
			C806,150.474,805.377,150.17,805,150.17z"/>
		<path fill="#DD4231" d="M830,136.558l-6-3.402V116.82c0-3.759-2.824-6.82-6.582-6.82H796.66l-0.681-3h5.785
			c1.128,0,2.042-1.373,2.042-2.5s-0.914-2.5-2.042-2.5h-6.466l-0.794-4h0.453c1.128,0,2.042-0.873,2.042-2s-0.914-2-2.042-2h-1.134
			l-0.228-1.861c0-3.76,0.355-10.459-3.402-10.459c-3.759,0-3.402,6.825-3.402,10.584L786.565,94h-1.135
			c-1.129,0-2.043,0.873-2.043,2s0.914,2,2.043,2h0.453l-0.794,4h-6.466c-1.128,0-2.041,1.373-2.041,2.5s0.913,2.5,2.041,2.5h5.786
			l-0.682,3h-20.758c-3.76,0-6.971,3.062-6.971,6.82v16.335l-7,3.402v13.612l7,3.403v17.695c0,3.759,3.211,6.731,6.971,6.731h54.447
			c3.758,0,6.582-2.973,6.582-6.731v-17.695l6-3.403V136.558z M817,129.753v27.224v7.486c0,3.759-2.629,7.537-6.389,7.537h-40.836
			c-3.758,0-7.775-3.778-7.775-7.537v-7.486v-27.224v-6.126c0-3.759,4.018-5.627,7.775-5.627h40.836c3.76,0,6.389,1.868,6.389,5.627
			V129.753z"/>
		<circle fill="#DD4231" cx="739.319" cy="198.833" r="10.209"/>
		<path fill="#DD4231" d="M741.675,216h-4.71c-4.339,0-7.965,3.135-7.965,7.749v17.321c0,4.614,3.626,8.93,7.965,8.93h4.71
			c4.338,0,7.325-4.315,7.325-8.93v-17.321C749,219.135,746.013,216,741.675,216z"/>
		<path fill="#DD4231" d="M773.179,316.388c-7.518,0-13.612,5.612-13.612,13.612h27.226
			C786.792,322,780.697,316.388,773.179,316.388z"/>
		<path fill="#DD4231" d="M782,268.806c0-3.759-3.048-6.806-6.807-6.806h-6.387c-3.759,0-6.807,3.047-6.807,6.806v34.389
			c0,3.759,3.048,6.806,6.807,6.806h6.387c3.759,0,6.807-3.047,6.807-6.806V268.806z"/>
		<circle fill="#DD4231" cx="841.07" cy="198.833" r="10.209"/>
		<path fill="#DD4231" d="M843.426,216h-4.712c-4.337,0-8.714,3.135-8.714,7.749v17.321c0,4.614,4.377,8.93,8.714,8.93h4.712
			c4.337,0,7.574-4.315,7.574-8.93v-17.321C851,219.135,847.763,216,843.426,216z"/>
		<path fill="#DD4231" d="M807.209,316.388c-7.516,0-13.612,5.612-13.612,13.612h27.225
			C820.821,322,814.728,316.388,807.209,316.388z"/>
		<path fill="#DD4231" d="M817,268.731c0-3.759-2.984-6.731-6.742-6.731h-6.602c-3.76,0-6.656,2.973-6.656,6.731v34.302
			c0,3.759,2.896,6.967,6.656,6.967h6.602c3.758,0,6.742-3.208,6.742-6.967V268.731z"/>
		<path fill="#DD4231" d="M844.643,257h-6.806c-3.76,0-7.837,2.146-7.837,5.905v6.807c0,3.759,3,6.806,7,6.806v-9.528
			c0-1.127,1.751-1.989,2.878-1.989h2.723c1.128,0,1.399,0.862,1.399,1.989v9.528c4,0,7-3.047,7-6.806v-6.807
			C851,259.146,848.401,257,844.643,257z"/>
		<path fill="#DD4231" d="M742.552,257h-6.807c-3.758,0-6.745,2.146-6.745,5.905v6.807c0,3.759,3,6.806,6,6.806v-9.528
			c0-1.127,1.661-1.989,2.788-1.989h2.723c1.127,0,1.489,0.862,1.489,1.989v9.528c5,0,7-3.047,7-6.806v-6.807
			C749,259.146,746.312,257,742.552,257z"/>
		<path fill="#DD4231" d="M817.92,187h-27.487h-27.485c-1.808,0-3.645-0.102-4.828,1.082c-1.187,1.186-2.119,1.986-2.119,3.793
			v27.485v27.486c0,1.808,0.933,3.749,2.119,4.932c1.184,1.186,3.021,2.222,4.828,2.222h27.485h27.487
			c1.808,0,3.212-1.036,4.396-2.222c1.183-1.183,1.684-3.124,1.684-4.932V219.36v-27.485c0-1.807-0.501-2.607-1.684-3.793
			C821.132,186.898,819.728,187,817.92,187z"/>
	</g>
</g>
<g>
	<defs>
		<rect id="SVGID_3_" x="395" y="-561" width="150" height="150"/>
	</defs>
	<clipPath id="SVGID_4_">
		<use xlink:href="#SVGID_3_"  overflow="visible"/>
	</clipPath>
	<g clip-path="url(#SVGID_4_)">
		<g>
			<g>
				<path fill="#F7CAC9" d="M446.31-540.039l0.886-0.886C446.829-540.65,446.522-540.355,446.31-540.039z"/>
				<path fill="#F7CAC9" d="M447.402-541.131l-0.207,0.206c0.365-0.273,0.793-0.527,1.283-0.759c0.01-0.175,0.021-0.349,0.016-0.54
					L447.402-541.131z"/>
				<path fill="#F7CAC9" d="M493.359-540.925l0.888,0.886C494.032-540.355,493.727-540.65,493.359-540.925z"/>
				<path fill="#F7CAC9" d="M493.155-541.131l-1.094-1.092c-0.005,0.19,0.005,0.365,0.017,0.54c0.489,0.231,0.916,0.486,1.281,0.759
					L493.155-541.131z"/>
				<polyline fill="#F3776B" points="451.129,-499.504 459.333,-538.776 485.824,-539.268 				"/>
				<polygon fill="#91A8CF" points="451.336,-499.28 449.53,-499.277 457.625,-538.395 459.26,-538.421 				"/>
				<polyline fill="#F3776B" points="453.917,-491.557 456.843,-504.979 478.432,-521.565 				"/>
				<polygon fill="#91A8CF" points="453.978,-491.209 452.247,-490.613 454.775,-503.551 456.987,-505.162 				"/>
				<path fill="#DD4231" d="M476.373-464.831c0,13.348,10.358,12.319,14.153,12.319c3.791,0,1.465-10.264,1.465-23.611
					c0-13.347,1.526-23.315-1.465-24.724C486.966-502.519,476.373-478.179,476.373-464.831z"/>
				<path fill="#DD4231" d="M466.487-464.466c0,12.951-10.355,11.957-14.148,11.957s-3.312-10.162-1.466-22.912
					c2.138-14.817-2.327-23.991,1.466-23.991S466.487-477.416,466.487-464.466z"/>
				<path fill="#F7CAC9" stroke="#DDB5B4" stroke-width="0.7281" stroke-miterlimit="10" d="M524.246-154.153
					c-0.87-4.036-6.697-3.133-10.077-3.829c-4.072-0.841-7.88-2.89-11.258-4.934c-3.82-2.312-6.775-3.526-7.065-8.711
					c-0.022-0.461-0.152-0.954-0.254-1.435l0.026-1.737l2.27-151.521c1.269-0.159,2.556-0.297,3.878-0.406
					c0.572-11.282,0.108-22.783,0.108-34.113c0-11.585,3.194-30.695,0.158-42.392v-0.629c4.211,5.981,3.268,18.486,4.729,25.728
					c2.243,11.098,5.275,21.123,5.393,33.21c0.065,6.931,2.161,12.391,0.727,18.805c-1.268,5.667-4.975,11.545-6.807,16.386
					c-1.652,4.369-5.94,5.828-5.258,10.357c1.046,6.929,6.089,3.549,7.567-1.487c1.154-0.331,2.968-0.312,4.134-0.016
					c0.288,5.647,0.052,10.727-2.075,15.178c-1.861,3.897-6.417,9.176,1.983,8.575c11.061-0.788,11.86-21.25,11.849-29.69
					c-0.027-29.421-3.106-59.739-7.99-87.395c-1.075-6.08-1.483-13.714-4.913-19.152c-3.02-4.784-8.392-8.274-12.085-12.638
					c-1.027-1.591-2.496-2.836-3.425-4.455c-8.703-15.171-8.546-17.215-8.518-29.3l-0.088,0.036
					c0.368-6.369,1.139-12.822,2.482-16.609c2.445-6.908,5.565-13.465,7.91-19.986c1.09-3.025,1.738-7.182,1.972-11.422
					c0.229-4.24,0.043-8.565-0.532-11.931c-0.65-3.791,0.322-10.858-1.004-14.547c-1.264-3.515-4.608-3.97-4.824-7.47
					c-2.341-1.111-5.988-1.747-9.675-1.809c-5.159-0.09-10.371,0.941-12.124,3.339c-1.751-2.398-6.966-3.429-12.124-3.339
					c-3.687,0.062-7.334,0.697-9.674,1.809c-0.218,3.5-3.559,3.955-4.823,7.47c-1.328,3.688-0.354,10.756-1.004,14.547
					c-0.576,3.366-0.764,7.691-0.534,11.931c0.233,4.24,0.883,8.397,1.97,11.422c2.347,6.521,5.465,13.078,7.914,19.986
					c2.385,6.729,2.968,21.883,2.679,29.995c-1.037,3.937-3.173,8.246-7.549,15.878c-0.931,1.619-2.399,2.864-3.427,4.455
					c-3.692,4.363-9.065,7.854-12.085,12.638c-3.429,5.438-3.838,13.072-4.913,19.152c-4.884,27.655-7.961,57.974-7.991,87.395
					c-0.01,8.44,0.785,28.902,11.85,29.69c8.399,0.601,3.845-4.678,1.984-8.575c-2.124-4.451-2.363-9.53-2.073-15.178
					c1.164-0.296,2.979-0.315,4.13,0.016c1.478,5.036,6.522,8.416,7.569,1.487c0.682-4.529-3.604-5.988-5.256-10.357
					c-1.834-4.841-1.649-11.784-2.919-17.452c-1.435-6.414,0.629-13.366,0.695-20.297c0.117-12.089-0.71-19.554,1.534-30.651
					c1.461-7.241,0.518-19.746,4.729-25.728v0.629c-3.037,11.696,0.157,30.807,0.157,42.392c0,11.33-0.461,22.831,0.111,34.113
					c1.317,0.109,2.606,0.247,3.875,0.406l2.271,151.521l0.025,1.737c-0.103,0.48-0.229,0.974-0.255,1.435
					c-0.29,5.185-3.245,6.399-7.064,8.711c-3.377,2.044-7.186,4.093-11.256,4.934c-3.383,0.696-9.208-0.207-10.078,3.829
					c-1.201,5.584,4.313,4.604,7.902,5.151c2.027,0.311,3.552,1.074,5.691,1.16c2.369,0.093,4.914-0.148,7.214-0.48
					c4.79-0.688,9.677-0.725,14.635-1.225c4.321-0.436,11.199,1.116,12.13-3.859c1.094-5.835-2.304-11.257-1.7-16.766l0.051-3.054
					h0.019l-0.011-0.684l0.011-0.659c-0.005,0-0.014,0-0.019-0.002l-2.234-149.063c2.203,0.274,4.477,0.479,6.86,0.583v0.074
					c0.029,0,0.058,0,0.086,0c0.517,0,1.017-0.018,1.521-0.028c0.507,0.011,1.008,0.028,1.523,0.028c0.029,0,0.061,0,0.088,0v-0.074
					c2.386-0.104,4.657-0.309,6.859-0.583l-2.233,149.063c-0.007,0.002-0.014,0.002-0.021,0.002l0.01,0.659l-0.01,0.684h0.021
					l0.05,3.054c0.604,5.509-2.792,10.931-1.702,16.766c0.933,4.976,7.81,3.424,12.132,3.859c4.957,0.5,9.846,0.537,14.635,1.225
					c2.301,0.332,4.844,0.573,7.215,0.48c2.139-0.086,3.663-0.85,5.691-1.16C519.932-149.55,525.448-148.569,524.246-154.153z"/>
			</g>
			<circle fill="#B18F6A" cx="468.538" cy="-502.416" r="1.184"/>
			<circle fill="#B18F6A" cx="473.544" cy="-502.416" r="1.183"/>
			<rect x="463.805" y="-491.971" fill="#FFFFFF" width="2.914" height="1.457"/>
			<rect x="467.629" y="-491.971" fill="#FFFFFF" width="2.911" height="1.457"/>
			<rect x="475.636" y="-492.027" fill="#FFFFFF" width="2.915" height="1.456"/>
			<rect x="471.814" y="-492.027" fill="#FFFFFF" width="2.913" height="1.456"/>
			<path fill="none" stroke="#F3776B" stroke-width="0.7281" stroke-miterlimit="10" d="M481.915-492.728
				c-1.175-0.164-2.084,0.561-3.134,0.729c-0.787,0.126-1.707,0-2.508,0c-1.818,0-3.641,0-5.459,0h0.728c-1.82,0-3.641,0-5.462,0
				c-0.801,0-1.718,0.126-2.507,0c-1.048-0.167-1.961-0.893-3.135-0.729"/>
		</g>
		<polygon fill="#DD4231" points="502.871,-391.262 483.574,-391.262 464.9,-390.806 446.257,-390.806 426.93,-391.262 
			428.606,-401.79 431.147,-413.378 442.159,-424.936 449.395,-434.501 462.148,-424.338 475.723,-413.515 489.296,-402.695 		"/>
		<polygon fill="#015084" points="502.399,-360.849 441.504,-360.849 440.846,-391.262 503.329,-391.262 		"/>
		<polygon fill="#7CC253" points="501.938,-316.374 487.092,-316.374 472.245,-316.374 461.993,-316.374 441.957,-326.727 
			441.931,-327.267 441.671,-338.611 441.749,-349.663 441.044,-360.849 457.398,-360.84 472.245,-360.84 487.092,-360.84 
			501.938,-360.84 501.938,-349.725 501.938,-338.606 501.938,-327.49 		"/>
		<polygon fill="#DD4231" points="501.938,-332.621 461.993,-316.374 501.938,-316.374 		"/>
		<rect x="475.27" y="-316.374" fill="#F3776B" width="22.567" height="21.231"/>
		<rect x="475.27" y="-295.286" fill="#FFFFFF" width="22.567" height="5.806"/>
		<rect x="475.27" y="-289.204" fill="#015084" width="22.567" height="16.62"/>
		<rect x="475.27" y="-272.543" fill="#F3776B" width="22.567" height="11.037"/>
		<rect x="475.27" y="-261.653" fill="#FFFFFF" width="22.567" height="5.812"/>
		<rect x="475.27" y="-256.086" fill="#F3776B" width="22.567" height="5.81"/>
		<rect x="475.27" y="-250.729" fill="#7CC253" width="22.567" height="38.703"/>
		<rect x="475.27" y="-212.026" fill="#015084" width="22.567" height="38.479"/>
		<polygon fill="#015084" points="436.731,-360.84 419.307,-360.932 426.93,-391.262 441.044,-391.262 		"/>
		<rect x="419.307" y="-360.932" fill="#7CC253" width="17.425" height="44.558"/>
		<line fill="#91A8CF" x1="440.826" y1="-391.262" x2="437.185" y2="-388.104"/>
		<rect x="434.272" y="-391.262" fill="#DD4231" width="8.011" height="3.157"/>
		<rect x="454.662" y="-391.262" fill="#DD4231" width="8.009" height="3.157"/>
		<rect x="476.262" y="-391.262" fill="#DD4231" width="8.01" height="3.157"/>
		<rect x="466.554" y="-393.565" fill="#015084" width="5.946" height="3.152"/>
		<rect x="488.397" y="-393.688" fill="#015084" width="5.946" height="3.155"/>
		<rect x="445.072" y="-393.688" fill="#015084" width="5.947" height="3.155"/>
		<polygon fill="#015084" points="432.147,-389.683 426.93,-389.683 426.93,-392.838 432.147,-391.982 		"/>
		<polygon fill="#DD4231" points="502.871,-387.377 497.864,-388.104 497.864,-392.838 503.6,-391.262 		"/>
		<g>
			<polygon fill="#FFFFFF" points="459.472,-384.294 449.355,-393.03 438.506,-384.294 427.66,-392.838 427.846,-396.034 
				438.506,-388.034 449.355,-396.772 459.472,-388.034 470.32,-396.772 481.165,-388.034 492.018,-396.772 502.871,-387.377 
				502.871,-384.294 492.745,-393.03 481.894,-384.294 470.32,-393.03 			"/>
		</g>
		<rect x="443.344" y="-363.683" fill="#7CC253" width="7.676" height="4.007"/>
		<rect x="464.825" y="-363.683" fill="#7CC253" width="7.675" height="4.007"/>
		<rect x="486.485" y="-363.683" fill="#7CC253" width="7.677" height="4.007"/>
		<rect x="453.993" y="-362.317" fill="#015084" width="7.676" height="4.004"/>
		<rect x="475.607" y="-362.317" fill="#015084" width="7.678" height="4.004"/>
		<rect x="421.045" y="-364.319" fill="#7CC253" width="7.677" height="4.006"/>
		<polygon fill="#015084" points="436.731,-358.233 432.147,-358.768 431.283,-362.317 436.731,-362.317 		"/>
		<polygon fill="#FFFFFF" points="425.15,-367.624 422.087,-365.16 419.021,-362.69 418.8,-360.643 418.58,-358.596 
			421.863,-361.239 425.15,-363.885 430.577,-359.517 436.003,-355.146 436.003,-356.689 436.731,-358.233 430.577,-362.929 		"/>
		<polygon fill="#015084" points="502.098,-357.685 497.135,-359.04 495.681,-364.319 502.098,-364.319 		"/>
		<polygon fill="#FFFFFF" points="491.244,-367.079 480.391,-358.342 469.547,-367.079 459.426,-358.342 447.853,-367.079 
			440.883,-361.468 441.212,-357.845 448.58,-363.337 458.695,-354.601 470.274,-363.337 480.391,-354.601 491.244,-363.337 
			502.098,-354.601 502.098,-357.685 		"/>
		<polygon fill="#7CC253" points="483.688,-208.681 481.143,-208.681 479.474,-214.585 485.145,-214.585 		"/>
		<polygon fill="#7CC253" points="498.069,-208.681 494.623,-210.137 493.463,-214.585 498.069,-214.585 		"/>
		<polygon fill="#015084" points="475.321,-215.963 478.272,-213.185 479.812,-207.951 475.281,-207.951 		"/>
		<polygon fill="#015084" points="494.569,-209.22 487.147,-208.681 487.147,-214.321 491.332,-214.321 		"/>
		<g>
			<polygon fill="#FFFFFF" points="482.786,-205.425 475.132,-214.321 475.27,-218.626 482.79,-209.89 490.313,-218.626 
				498.069,-208.681 497.837,-205.425 490.313,-214.165 			"/>
		</g>
		<rect x="444.624" y="-182.255" fill="#015084" width="24.369" height="5.312"/>
		
			<rect x="444.624" y="-190.84" fill="#FFFFFF" stroke="#E6E7E8" stroke-width="0.5078" stroke-miterlimit="10" width="24.179" height="5.458"/>
		<polygon fill="#91A8CF" points="456.289,-502.416 451.129,-499.504 451.129,-501.88 456.843,-504.979 		"/>
		<circle fill="#FFFFFF" cx="484.557" cy="-514.039" r="6.555"/>
		<polyline fill="#F3776B" points="451.932,-499.745 460.135,-539.016 486.627,-539.509 		"/>
		<polygon fill="#91A8CF" points="452.137,-499.521 450.33,-499.516 458.427,-538.634 460.062,-538.663 		"/>
		<polyline fill="#F3776B" points="454.718,-491.798 457.643,-505.22 479.232,-521.806 		"/>
		<polygon fill="#91A8CF" points="454.778,-491.449 453.049,-490.854 455.574,-503.79 457.786,-505.401 		"/>
		<circle fill="#FFFFFF" cx="457.251" cy="-514.039" r="6.554"/>
		<circle fill="#91A8CF" cx="457.252" cy="-514.153" r="2.549"/>
		<circle fill="#7CC253" cx="484.614" cy="-514.153" r="4.005"/>
		<circle fill="#090A11" cx="484.615" cy="-514.153" r="2.548"/>
		<circle fill="#090A11" cx="457.251" cy="-514.153" r="0.728"/>
		<g>
			<path fill="#DD4231" d="M488.871-472.389c-0.052,0.207-0.089,0.385-0.106,0.516C488.805-472.023,488.839-472.199,488.871-472.389
				z"/>
			<path fill="#DD4231" d="M509.007-542.826c-2.146-4.222-9.822-6.726-13.774-10.142c-8.949-7.733-14.208-7.781-23.989-7.059
				c-9.778-0.722-15.037-0.675-23.988,7.059c-3.95,3.416-11.624,5.92-13.773,10.142c-2.26,4.446,0.032,15.138,0.577,19.814
				c0.722,6.186,4.12,11.814,5.354,18.219c1.175,6.098,4.373,12.031,6.651,17.683c0.569,1.41,2.099,6.432,3.077,7.77
				c1.007,1.374,2.362,1.524,2.768,2.293c0.436,0.831,1.7,4.185,1.815,5.173l0.671,0.373c-0.517-1.99-1.01-7.88-1.74-10.458
				c-2.596-9.187-2.294-5.477-3.282-11.945c-1.978-12.945-4.034-22.324,0.574-34.844c2.515-6.841,2.24-8.598,11.598-8.153
				c4.583,0.217,6.854,0.202,9.699,0.102c2.849,0.101,5.119,0.115,9.702-0.102c9.357-0.444,9.083,1.312,11.6,8.153
				c4.605,12.52,2.55,21.899,0.572,34.844c-0.988,6.468-0.686,2.758-3.283,11.945c-0.675,2.382-0.575,7.271-0.963,9.569
				c0.336-1.326,1.333-3.938,1.712-4.657c0.403-0.769,1.76-0.919,2.768-2.293c0.976-1.338,2.508-6.36,3.077-7.77
				c2.275-5.652,5.475-11.585,6.649-17.683c1.235-6.405,4.634-12.034,5.355-18.219C508.976-527.688,511.27-538.38,509.007-542.826z"
				/>
		</g>
	</g>
</g>
<path fill-rule="evenodd" clip-rule="evenodd" fill="#DD4231" d="M209.036,172.542c-2.85-9.573-10.914-19.827-21.9-18.912
	c-2.373,0.198-4.811,0.923-6.84,2.221c-1.041,0.659-1.779,1.567-2.594,2.476c-0.732,0.812-1.729,2.761-2.768,3.119
	c-2.059,0.703-5.121-3.639-6.219-4.914c-2.094-2.41-4.109-4.908-6.035-7.472c-3.721-4.964-6.686-10.479-9.236-16.134
	c-1.188-2.616-1.844-5.376-2.482-8.174c-0.719-3.26-1.305-6.614-0.696-9.925c0.206-1.069,0.514-2.153-0.344-3.039
	c-0.77-0.82-1.825-0.558-2.762-0.975c-2.557-1.12-3.412-3.397-5.105-5.537c-3.435-4.351-7.866-7.815-13.176-9.544
	c-3.794-1.237-7.997-1.779-11.982-1.758c-4.453,0.008-8.985,0.06-13.344,1.041c-2.104,0.468-4.219,0.996-6.285,1.641
	c-1.706,0.527-4.271,0.841-5.522,2.21c-0.885,0.975-2.71,1.635-1.113,3.165c1.428,1.385,2.98,2.396,4.542,3.61
	c1.486,1.157,2.93,2.271,4.583,3.187c1.657,0.916,3.386,1.803,4.629,3.26c0.33,0.359,1.582,0.432,2.059,0.696
	c1.114,0.608,2.265,1.187,3.421,1.728c1.984,0.932,4.108,1.554,6.072,2.52c3.187,1.545,7.64,1.545,11.161,1.612
	c4.696,0.08,9.12-0.996,13.705-1.604c0.153,1.238-0.06,2.483-0.688,3.566c-0.622,1.085-1.649,1.767-2.154,2.916
	c-1.172,2.637-1.794,5.529-3.508,7.91c-0.652,0.96-0.937,2.637-1.319,3.75c-0.483,1.392-0.929,2.798-1.311,4.219
	c-0.38,1.473-0.683,2.943-0.776,4.453c-0.087,1.442-0.571,2.74-0.717,4.146c-0.045,0.681,0.211,0.834,0.108,1.617
	c-0.087,0.806-0.183,1.605-0.262,2.402c-0.17,1.619-0.315,3.236-0.455,4.849c-0.168,1.823,0.293,5.961-2.073,6.628
	c-1.104,0.308-1.926-0.256-2.974-0.344c-1.516-0.132-3.003-0.189-4.526,0.037c-2.943,0.445-5.537,1.099-7.911,3.003
	c-8.583,6.928-7.404,22.594-1.391,30.798c3.157,4.314,8.262,7.765,13.638,8.468c5.81,0.754,11.479,1.252,16.699-1.847
	c4.205-2.498,7.185-6.489,8.979-10.986c2.042-5.112,3.464-11.366,1.816-16.779c-1.539-5.031-5.119-9.214-10.165-10.877
	c-2.358-0.783-4.863-0.931-7.296-0.616c-2.892,0.383-3.025-0.563-2.936-3.331c0.357-12.399,3.272-25.284,9.945-35.853
	c0.769-1.224,1.589-2.402,2.46-3.537c0.938-1.225,1.297-1.567,2.352-0.206c1.686,2.204,1.752,5.516,2.659,8.072
	c2.022,5.646,4.695,11.029,7.875,16.113c3.023,4.818,6.744,9.316,10.592,13.499c0.848,0.93,1.719,1.844,2.6,2.738
	c1.141,1.15,1.33,1.517,0.424,2.856c-1.055,1.538-3.004,2.337-4.336,3.604c-7.771,7.39-3.604,17.688,2.688,24.493
	c3.199,3.463,7.391,6.158,11.93,7.506c5.332,1.598,10.834,0.309,15.711-2.044c4.373-2.101,7.992-5.44,10.635-9.491
	C210.317,183.844,210.69,178.094,209.036,172.542C207.614,167.767,210.647,177.963,209.036,172.542z"/>
<g id="layer1" transform="translate(-407.50579,-298.09886)">
	<path id="path2384" fill="#F3776B" d="M859.363,174.853c-0.017,1.964-1.498,1.825-1.498,1.825c-1.531,0-2.494-3.062-2.873-2.968
		c-0.483,0.096,0.096,2.584-0.483,2.968c-0.476,0.478-10.637-4.216-11.396-4.978c-0.676-0.675,0.287-1.632,0-2.306
		c-0.197-0.571-1.736-0.385-2.203-0.667c-0.394-0.386,0.467-2.11-0.096-2.498c-0.487-0.278-1.533,1.731-2.205,0.769
		c-0.299-0.381-0.384-1.047-0.384-1.914c0-5.845,6.224-8.236,10.448-9.68c1.716-0.57,1.137,1.634,1.716,1.731
		c0.674,0.19,0.766-1.06,1.535-1.06c0.579,0,2.783,1.06,3.255,0.675c0.389-0.287-1.146-1.728-0.671-2.302
		c0.579-0.479,4.838-1.646,4.872-0.388 M894.935,112.58c0-1.626-1.146-2.871-2.384-2.871H882.2c-2.872,0-2.688-2.111-2.688-2.587
		c0-12.744,18.496-14.851,18.496-31.522c0-7.28-4.595-12.17-9.961-16.481c-0.294-0.191,0,1.054,0,1.538
		c0,7.758-28.837,11.783-28.837,29.702c0,15.611,15.516,16.285,15.516,18.682c0,0.478-0.952,0.669-1.053,0.669h-11.881
		c-1.246,0-2.395,1.245-2.395,2.871v9.585c-1.155,0.386-2.584-1.345-3.357-1.345c-0.378,0-0.182,2.974-0.86,3.354
		c-0.575,0.287-11.394,4.122-12.36,4.218c-1.528,0.288-1.146-2.396-2.005-2.396c-0.772,0-0.772,2.685-2.691,2.685
		c-1.144,0-2.099-1.057-2.96-1.057c-0.576,0,1.24,2.207,1.24,2.876c0,1.819-3.543,2.483-3.543,3.737
		c0,0.664,3.355-0.292,3.834-0.292c1.721,0,1.531,2.016,2.194,2.016c0.675,0,1.153-2.303,1.73-2.681
		c1.147-0.676,2.494,0.474,3.064,0.474c0.962,0-0.768-2.298,0.103-2.685c0,0,11.685-4.978,12.445-4.601
		c0.671,0.39,0.582,1.537,1.347,1.921c0.766,0.385,1.915-2.683,1.915-0.768v23.477c-1.343,0.86-4.216,1.341-5.752,1.341
		c-0.763,0-0.381-2.489-0.858-2.489c-0.772,0-1.541,2.104-2.685,2.104c-1.053,0-2.587-2.582-3.639-2.582
		c-0.67,0,1.241,3.252,0.093,3.827c-4.406,2.207-11.397,4.308-11.397,11.31c0,1.437,0.77,3.158,0.477,3.635
		c-0.285,0.67-1.814,2.016-1.73,2.59c0,0.573,2.879,0.382,3.46,1.248c0.28,0.475,0.479,2.587,1.055,2.587
		c0.476,0,1.718-1.634,2.775-1.054c3.354,2.015,9.194,4.212,11.879,5.648c0.665,0.388,0.284,2.491,0.665,2.682
		c0.77,0.39,2.301-2.01,4.703-0.667c0.482,0.191,0.831,0.657,0.831,1.521v7.839c-0.006,1.644,0.794,2.04,1.563,2.231l28.55,5.845
		c0,0,2.108,0.384,2.967,0.384c1.06,0,2.489-0.436,2.489-2.544l-0.042-17.448c0-0.186,0.135-0.698,0.418-0.698
		c1.538-0.143,1.161,4.785,1.542,4.785c0.757,0,1.249-3.258,2.203-3.258c1.343,0,2.215,1.246,2.778,0.959
		c0.48-0.287-0.28-1.824-0.28-2.781c0-0.861,2.483-1.243,5.556-2.387c2.68-0.962,4.885-2.017,5.748-2.017
		c0.666,0,1.142,1.817,1.723,1.817c0.477,0,0.574-2.394,1.63-2.394c0.859,0,2.772,1.338,3.258,0.957
		c0.383-0.285-0.956-2.109,0.096-2.875c0.766-0.478,2.584-1.625,2.584-2.107c0-0.285-3.545-0.381-3.734-0.381
		c-0.672-0.194-1.438-2.302-1.925-2.302c-0.561,0-0.561,2.107-1.432,2.782c-0.768,0.567-2.68-2.014-3.538-2.014
		c-0.485,0,0.571,1.914,0.571,3.447c0,1.535-9.29,4.505-10.536,4.505c-1.917,0-2.019-2.393-2.404-2.393
		c-0.565,0-0.479,2.876-2.866,2.876c-1.062,0-1.352-0.579-1.352-1.158v-22.991c0-0.671,0.198-1.728,1.444-1.728
		c1.726,0,1.726,3.451,2.295,3.451c1.06,0,1.637-3.544,3.644-3.544c1.529,0,2.777,2.111,3.735,2.111
		c0.674,0-1.146-2.203-1.146-3.261c0-1.051,9.486-0.67,13.129-7.093c1.051-1.818,1.051-4.019,1.436-4.883
		c0.567-0.959,2.68-0.772,2.68-1.437c0-0.287-1.53-0.671-2.112-1.052c-1.144-0.67-0.758-4.123-1.332-4.123
		c-0.862,0-1.728,2.396-2.591,1.341c-1.532-1.915-7.855-5.558-10.729-6.611c-1.058-0.383,0.769-3.544,0.289-3.835
		c-0.479-0.287-1.731,1.92-3.554,1.537c-1.436-0.287-0.759-2.876-1.525-2.876c-0.389,0-1.829,3.643-2.88,3.356
		c-1.148-0.288-2.782-0.575-2.782-0.575V112.58L894.935,112.58z M894.935,125.133c0,0,0.198,0,1.352,0.289
		c0.764,0.188,1.528,0.574,1.528,1.628c0,0.574-0.202,1.726,0.192,1.918c0.39,0.191,0.667-0.192,0.86-0.287
		c3.544-2.586,4.405,2.009,5.173,2.009c0.673,0,0.581-3.162,1.534-3.162c0.771-0.284,8.147,3.258,8.147,5.559
		c0,0.481-0.964,0.574-1.053,1.059c-0.096,0.669,1.724,0.956,1.432,2.201c-0.099,0.771-1.818,1.723-1.343,2.199
		c0.486,0.486,2.783-0.477,2.98-0.477c0.475,0,0.567,0.766,0.567,1.053c0,4.218-9.863,7.383-12.076,6.421
		c-0.672-0.285-0.755-2.394-1.142-2.394c-0.579,0-0.871,1.915-2.015,2.204c-1.15,0.189-2.871-1.248-3.356-0.866
		c-0.477,0.384,1.15,3.068-2.01,3.068c-0.772,0-0.772-0.864-0.772-1.536V125.133L894.935,125.133z M868.692,93.993
		c0-13.221,19.547-20.786,20.88-27.495c1.444,1.343,1.634,3.541,1.634,5.458c0,8.047-13.987,21.557-13.987,31.331
		c0,1.051,0.092,1.344,0.092,2.018c0,0.95-0.379,1.145-0.57,1.145C874.435,106.449,868.692,101.946,868.692,93.993z
		 M866.102,118.237c0-1.537,1.156-2.108,2.2-2.108h16.967c2.102,0,2.97,0.666,2.97,2.871l0.088,29.32
		c0,0.955-9.965,1.249-10.343,0.572c-0.574-0.953-0.296-2.585-0.865-2.585c-0.285,0-1.818,2.301-2.685,2.301
		c-0.855,0-2.293-1.63-2.867-1.63c-0.388,0,0.381,2.297-0.388,3.256c-0.476,0.673-5.077,1.152-5.077,0.576V118.237z
		 M888.428,190.186c0,2.016-0.675,2.493-2.393,2.11l-18.296-3.644c-1.058-0.184-1.637-0.861-1.637-2.006v-33.151
		c0-0.859,2.973-0.955,3.448-0.572c0.866,0.765,0.579,3.543,1.153,3.543c0.764,0,2.777-3.352,3.639-3.352
		c1.821,0,3.067,1.05,3.445,0.858c0.384-0.189,0.384-1.723,0.868-2.111c0.672-0.473,2.68-0.473,3.732-0.572
		c1.724-0.096,4.887-0.381,4.887-0.381c1.25,0,1.152,0.865,1.152,2.682V190.186z"/>
</g>
<g>
	<path fill-rule="evenodd" clip-rule="evenodd" fill="#015084" d="M791.622-528.982c-23.741,0-42.98,19.242-42.98,42.982
		c0,23.737,19.239,42.982,42.98,42.982c23.737,0,42.983-19.245,42.983-42.982C834.605-509.74,815.359-528.982,791.622-528.982z
		 M791.622-449.466c-20.177,0-36.534-16.357-36.534-36.534c0-20.175,16.357-36.533,36.534-36.533
		c20.173,0,36.534,16.358,36.534,36.533C828.156-465.823,811.795-449.466,791.622-449.466z"/>
	<path fill-rule="evenodd" clip-rule="evenodd" fill="#015084" d="M852.296-520.385h-4.554c-1.496,0-7.257,40.575-7.257,40.575
		c0,1.14,1.207,2.062,2.702,2.062h4.887v23.566c0,1.421,1.419,2.567,3.174,2.567h0.581c1.752,0,3.171-1.146,3.171-2.567v-25.629
		v-4.311v-34.201C855-519.461,853.794-520.385,852.296-520.385z"/>
	<path fill-rule="evenodd" clip-rule="evenodd" fill="#015084" d="M742.929-520.385c-1.101,0-1.993,0.891-1.993,1.993v15.082h-3.982
		v-15.082c0-1.103-0.893-1.993-1.991-1.993c-1.101,0-1.993,0.891-1.993,1.993v15.082h-3.982v-15.082c0-1.103-0.893-1.993-1.99-1.993
		c-1.101,0-1.996,0.891-1.996,1.993v17.217v1.373v0.049c0,1.176,0.955,2.133,2.133,2.133h3.844v43.835
		c0,1.202,0.933,2.171,2.079,2.171h3.806c1.154,0,2.082-0.969,2.082-2.171v-43.835h3.84c1.181,0,2.139-0.957,2.139-2.133v-0.049
		v-1.373v-17.217C744.922-519.495,744.026-520.385,742.929-520.385z"/>
	<path fill-rule="evenodd" clip-rule="evenodd" fill="#015084" d="M791.622-516.088c-16.618,0-30.088,13.472-30.088,30.088
		c0,16.618,13.47,30.085,30.088,30.085S821.71-469.382,821.71-486C821.71-502.616,808.24-516.088,791.622-516.088z M791.622-456.987
		c-16.022,0-29.012-12.988-29.012-29.013c0-16.024,12.989-29.013,29.012-29.013c16.021,0,29.012,12.989,29.012,29.013
		C820.634-469.976,807.644-456.987,791.622-456.987z"/>
</g>
<path fill-rule="evenodd" clip-rule="evenodd" fill="#9BD8DB" d="M834.751-174.01c0.088-0.835,0.249-1.641,0.249-2.49
	c0-12.422-10.078-22.5-22.5-22.5c-3.721,0-7.17,0.988-10.254,2.578C797.515-206.771,787.129-214,775-214c-16.567,0-30,13.433-30,30
	c0,3.296,0.659,6.408,1.641,9.375C736.914-170.787,730-161.354,730-150.25c0,13.213,9.793,24.038,22.5,25.869V-124h3.75h26.25h15
	h24.75h5.25v-0.381c12.707-1.831,22.5-12.656,22.5-25.869C850-160.812,843.73-169.85,834.751-174.01z"/>
<g>
	<path fill="#7CC253" d="M151.044-185.035c4.973,0,9.004-4.03,9.004-9.003c0-0.079-0.021-0.15-0.021-0.229
		c0.742,0.123,1.494,0.229,2.273,0.229c2.435,0,4.686-0.696,6.661-1.822c3.302,3.839,8.138,6.323,13.598,6.323
		c9.945,0,18.009-8.062,18.009-18.009c0-9.945-8.063-18.008-18.009-18.008c-5.46,0-10.296,2.483-13.598,6.321
		c-1.976-1.124-4.227-1.82-6.661-1.82c-7.462,0-13.507,6.047-13.507,13.507c0,1.637,0.334,3.188,0.871,4.644
		c-4.313,0.668-7.624,4.361-7.624,8.864C142.04-189.065,146.071-185.035,151.044-185.035z"/>
	<path fill="#7CC253" d="M200.021-115.246c-9.289-7.284-17.154-16.283-23.086-26.549c-6.05-10.467-10.1-22.232-11.629-34.789
		h-14.263h-14.263c-1.53,12.557-5.579,24.322-11.629,34.789c-5.932,10.266-13.797,19.265-23.086,26.549H80v2.8h140v-2.8H200.021z
		 M128.238-137.641c2.592-4.482,4.749-9.242,6.452-14.213v0.914h32.708v-0.914c1.703,4.971,3.859,9.73,6.451,14.213
		c4.2,7.272,9.529,13.783,15.694,19.409h-77C118.708-123.857,124.037-130.368,128.238-137.641z"/>
</g>
<g>
	<path fill="#015084" d="M475,106V90h-16v16h-32v104h80V106H475z M467,94c2.209,0,4,1.791,4,4s-1.791,4-4,4s-4-1.791-4-4
		S464.791,94,467,94z M503,206h-72v-96h28v12h16v-12h28V206z"/>
	<path fill="#015084" d="M467,130c-11.047,0-20,8.953-20,20s8.953,20,20,20s20-8.953,20-20S478.047,130,467,130z M467,166
		c-8.822,0-16-7.178-16-16s7.178-16,16-16s16,7.178,16,16S475.822,166,467,166z"/>
	<path fill="#015084" d="M451,178c-4.418,0-8,3.582-8,8v8h48v-8c0-4.418-3.582-8-8-8H451z"/>
</g>
<path fill="#015084" d="M497.819,140.301c-1.679,0.745-3.483,1.249-5.378,1.475c1.934-1.159,3.418-2.993,4.117-5.18
	c-1.81,1.072-3.813,1.853-5.946,2.272c-1.707-1.82-4.142-2.957-6.835-2.957c-5.17,0-9.362,4.192-9.362,9.362
	c0,0.734,0.082,1.449,0.242,2.134c-7.782-0.39-14.681-4.118-19.299-9.782c-0.807,1.383-1.269,2.991-1.269,4.707
	c0,3.248,1.653,6.114,4.166,7.793c-1.534-0.048-2.979-0.47-4.24-1.17c-0.001,0.039-0.002,0.078-0.002,0.117
	c0,4.537,3.228,8.321,7.512,9.182c-0.786,0.213-1.613,0.328-2.467,0.328c-0.604,0-1.19-0.059-1.762-0.169
	c1.191,3.721,4.649,6.428,8.746,6.503c-3.204,2.512-7.241,4.009-11.628,4.009c-0.756,0-1.502-0.045-2.234-0.131
	c4.144,2.656,9.065,4.206,14.353,4.206c17.224,0,26.641-14.267,26.641-26.64c0-0.406-0.009-0.811-0.026-1.213
	C494.977,143.828,496.563,142.18,497.819,140.301z"/>
</svg>
